<?xml version="1.0" encoding="utf-8"?>
<!-- Generator: Adobe Illustrator 19.0.0, SVG Export Plug-In . SVG Version: 6.00 Build 0)  -->
<svg version="1.1" id="Слой_1" xmlns="http://www.w3.org/2000/svg" xmlns:xlink="http://www.w3.org/1999/xlink" x="0px" y="0px"
	 viewBox="-318 236.6 369.6 201.4" style="enable-background:new -318 236.6 369.6 201.4;" xml:space="preserve">
<style type="text/css">
	.st0{fill:url(#SVGID_1_);}
	.st1{fill:url(#SVGID_2_);}
	.st2{fill:url(#SVGID_3_);}
</style>
<g>
	
		<linearGradient id="SVGID_1_" gradientUnits="userSpaceOnUse" x1="-132.85" y1="360.3307" x2="-132.85" y2="331.5211" gradientTransform="matrix(1 0 0 -1 0 677.2)">
		<stop  offset="0" style="stop-color:#F8991D"/>
		<stop  offset="0" style="stop-color:#FBAD1D"/>
		<stop  offset="0" style="stop-color:#FBAD1D"/>
		<stop  offset="6.326544e-02" style="stop-color:#FAA71D"/>
		<stop  offset="0.2116" style="stop-color:#F99F1D"/>
		<stop  offset="0.4203" style="stop-color:#F89A1D"/>
		<stop  offset="1" style="stop-color:#F8991D"/>
	</linearGradient>
	<path class="st0" d="M-265.8,396.7v-17.1h-39.4V373h39.3v-5h-45.5v28.8L-265.8,396.7L-265.8,396.7z M-272.1,391.8h-33.1v-7.2h33.1
		V391.8L-272.1,391.8z M-214,396.7v-28.8h-25.4l-19.1,13.8v15h5.9v-7.5h32.6v7.5H-214L-214,396.7z M-220,384.3h-32.6l15.7-11.4h16.9
		V384.3L-220,384.3z M-161.1,396.7v-5h-39.3v-18.8h39.3v-5h-45.5v28.8H-161.1L-161.1,396.7z M-110.4,372.9v-5h-45.3v5h19.6v23.8h6.2
		v-23.8H-110.4L-110.4,372.9z M-60.1,396.7v-28.8h-6.7l-32.1,23.4v-23.4h-5.9v28.8h7l31.6-23.6v23.6H-60.1L-60.1,396.7z M-7.2,396.7
		v-28.8h-45.5v28.8H-7.2L-7.2,396.7z M-13.5,391.8h-33.1V373h33.1V391.8L-13.5,391.8z M45.7,396.7v-28.8h-6.2v11.7H6.4V368H0.2v28.8
		h6.2v-12.2h33.1v12.2L45.7,396.7L45.7,396.7z"/>
	
		<linearGradient id="SVGID_2_" gradientUnits="userSpaceOnUse" x1="-132.7514" y1="443.1653" x2="-132.7514" y2="344.3528" gradientTransform="matrix(1 0 0 -1 0 677.2)">
		<stop  offset="0" style="stop-color:#F8991D"/>
		<stop  offset="1" style="stop-color:#F6861F"/>
	</linearGradient>
	<path class="st1" d="M-99.9,324.7L-99.9,324.7l-1,1c-10.4,8.7-20.4,17.8-30.1,27.2l-2,2l-2-2c-9.8-9.7-21.4-19.7-31.7-29l0,0l0,0
		c-9.2-8.4-16-19.4-20.5-30.9c-5.5-13.8-8.1-28.9-8-43.7c0-0.5,0-1.1,0-1.6l0.1-4l3.8,1.4c7.9,2.9,16.8,4.6,25.1,5.8
		c11,1.6,22.3,2.2,33.5,2.2c11.1,0,22.4-0.6,33.5-2.2c8.3-1.2,17.2-2.9,25.1-5.8l3.8-1.4v4c0,0.5,0,1.1,0,1.6
		c0,15.1-2.7,30.3-8.4,44.3C-83.4,305.4-90.5,316.4-99.9,324.7L-99.9,324.7z M-87.7,260.8c-0.4,19.6-20.7,35.8-45.6,35.4h-1.7
		c-24.2-0.7-43.5-16.4-43.8-35.6c12.6,4.5,27.4,7.2,43.3,7.5l-0.2-10.6c-10.4-0.1-20.9-0.8-31.2-2.3c-4.8-0.7-9.6-1.5-14.3-2.6
		c-3.3-0.8-6.6-1.7-9.9-2.8c0,14.1,2.5,28.5,7.7,41.6c4.7,11.3,11.4,22.2,20.5,30.2l0.5,0.4l0,0c9.8,8.2,19.2,16.9,28.3,25.8
		l-0.9-51.6l-0.5-28.1c0.8,0,1.6,0,2.4,0C-116.4,268.1-100.9,265.4-87.7,260.8L-87.7,260.8z M-102.8,323.4
		c17.7-14.9,29.5-42.4,29.6-73.9c0-0.5,0-1,0-1.5c-13.5,4.9-35.2,8.1-59.6,8.1s-46-3.3-59.6-8.2c0,0.5,0,1,0,1.5
		c0,31,11.4,58.2,28.6,73.3l0,0c10.7,8.9,20.7,18.2,30.8,28.2C-123,341.1-113.2,332.2-102.8,323.4L-102.8,323.4z"/>
	<linearGradient id="SVGID_3_" gradientUnits="userSpaceOnUse" x1="-310.6" y1="421.6" x2="45.7" y2="421.6">
		<stop  offset="0" style="stop-color:#F8991D"/>
		<stop  offset="0" style="stop-color:#FBAD1D"/>
		<stop  offset="0" style="stop-color:#FBAD1D"/>
		<stop  offset="6.326544e-02" style="stop-color:#FAA71D"/>
		<stop  offset="0.2116" style="stop-color:#F99F1D"/>
		<stop  offset="0.4203" style="stop-color:#F89A1D"/>
		<stop  offset="1" style="stop-color:#F8991D"/>
	</linearGradient>
	<path class="st2" d="M-291.8,422v-0.5h-4.3v0.5c0,0.5-0.1,0.8-0.2,1.1c-0.1,0.3-0.3,0.5-0.5,0.6c-0.2,0.1-0.5,0.2-0.8,0.3
		c-0.3,0-0.7,0.1-1.1,0h-5.2c-0.5,0-0.9-0.1-1.2-0.2c-0.3-0.1-0.5-0.3-0.7-0.6c-0.2-0.3-0.3-0.6-0.3-1c-0.1-0.4-0.1-0.9-0.1-1.5
		v-2.5c0-0.7,0.1-1.3,0.2-1.8c0.1-0.4,0.3-0.7,0.7-0.9c0.3-0.2,0.8-0.3,1.3-0.3h5.2c0.3,0,0.7,0,1,0c0.3,0,0.6,0.1,0.8,0.2
		c0.2,0.1,0.4,0.3,0.5,0.5c0.1,0.2,0.2,0.5,0.3,0.8v0.6h4.3v-0.6c0-0.9-0.1-1.7-0.3-2.3c-0.2-0.6-0.4-1.1-0.8-1.5
		c-0.3-0.4-0.8-0.7-1.2-0.8c-0.5-0.2-1-0.3-1.7-0.4c-0.6-0.1-1.3-0.1-2-0.1h-5.7c-0.8,0-1.6,0-2.3,0.1c-0.7,0.1-1.3,0.2-1.9,0.5
		c-0.6,0.2-1.1,0.6-1.5,1c-0.4,0.4-0.7,1-1,1.7c-0.2,0.7-0.3,1.6-0.3,2.6v4.1c0,1,0.1,1.8,0.3,2.4c0.2,0.7,0.4,1.2,0.7,1.7
		c0.3,0.4,0.7,0.8,1.1,1c0.4,0.3,0.9,0.4,1.4,0.6c0.5,0.1,1.1,0.2,1.7,0.2s1.2,0,1.8,0h5.2c0.5,0,1,0,1.4,0s0.9-0.1,1.3-0.1
		c0.4-0.1,0.8-0.2,1.2-0.3c0.4-0.2,0.7-0.4,1.1-0.7c0.4-0.3,0.6-0.6,0.8-1c0.2-0.3,0.3-0.7,0.4-1.1c0.1-0.4,0.1-0.8,0.2-1.2
		C-291.8,422.8-291.8,422.4-291.8,422L-291.8,422z M-266.9,415.4v-3.7h-17.4v3.7h6.5v12.1h4.2v-12.1H-266.9L-266.9,415.4z
		 M-238.7,427.5l-8.1-15.8h-6l-8.2,15.8h4.7l1.4-2.7h10.1l1.4,2.7H-238.7L-238.7,427.5z M-246.5,421.5h-6.7l3.4-6.5L-246.5,421.5
		L-246.5,421.5z M-212.9,427.5v-15.8h-17.5v11.2c0,0.4-0.1,0.8-0.2,1c-0.1,0.2-0.3,0.4-0.5,0.5c-0.2,0.1-0.5,0.2-0.8,0.2h-0.9v2.9
		h3.5c0.5,0,1-0.1,1.4-0.3c0.4-0.2,0.7-0.5,1-0.9c0.3-0.4,0.4-0.8,0.6-1.3c0.1-0.5,0.2-1,0.2-1.5v-8.2h9.1v12.1h4.1V427.5z
		 M-187.5,422.6c0-0.9-0.1-1.7-0.2-2.3c-0.2-0.6-0.4-1.1-0.7-1.5c-0.3-0.4-0.6-0.7-1.1-0.8c-0.4-0.2-0.9-0.3-1.4-0.4
		s-1.1-0.1-1.6-0.1h-7.8v-5.8h-4.2v15.8h11.9c0.7,0,1.3,0,1.8-0.1s1-0.2,1.4-0.3c0.4-0.2,0.8-0.4,1-0.8c0.3-0.4,0.5-0.8,0.6-1.4
		C-187.6,424.2-187.5,423.5-187.5,422.6L-187.5,422.6z M-191.7,422.4c0,0.3,0,0.6-0.1,0.8c-0.1,0.2-0.2,0.4-0.3,0.5
		c-0.2,0.1-0.4,0.2-0.6,0.2s-0.5,0.1-0.9,0.1h-6.7v-3.1h6.7c0.5,0,0.8,0,1.1,0.1c0.3,0.1,0.5,0.2,0.6,0.4
		C-191.8,421.7-191.7,422-191.7,422.4L-191.7,422.4z M-160.8,427.5v-15.8h-4.2v5.9h-10.3v-5.9h-4.2v15.8h4.2v-6.2h10.3v6.2H-160.8
		L-160.8,427.5z M-129.8,427.5v-15.8h-4.2v15.8H-129.8L-129.8,427.5z M-135.4,422.6c0-0.9-0.1-1.7-0.2-2.3c-0.2-0.6-0.4-1.1-0.7-1.5
		c-0.3-0.4-0.7-0.7-1.1-0.8c-0.4-0.2-0.9-0.3-1.4-0.4s-1-0.1-1.6-0.1h-7.8v-5.8h-4.2v15.8h11.9c0.7,0,1.3,0,1.8-0.1s1-0.2,1.4-0.3
		c0.4-0.2,0.8-0.4,1-0.8c0.3-0.4,0.5-0.8,0.6-1.4C-135.5,424.2-135.4,423.5-135.4,422.6L-135.4,422.6z M-139.7,422.4
		c0,0.3,0,0.6-0.1,0.8s-0.2,0.4-0.3,0.5c-0.2,0.1-0.4,0.2-0.6,0.2c-0.2,0-0.5,0.1-0.9,0.1h-6.7v-3.1h6.7c0.5,0,0.8,0,1.1,0.1
		c0.3,0.1,0.5,0.2,0.6,0.4C-139.7,421.7-139.6,422-139.7,422.4L-139.7,422.4z M-104.9,427.5V424h-12.3v-3.1h11.7V418h-11.7v-2.9
		h12.2v-3.5h-16.4v15.8L-104.9,427.5L-104.9,427.5z M-56.3,431.6v-7.8h-1.5v-12.1H-74v5.4c0,1,0,1.8-0.1,2.4
		c-0.1,0.7-0.2,1.2-0.3,1.7s-0.3,0.8-0.5,1.2c-0.2,0.3-0.4,0.6-0.6,0.8c-0.2,0.2-0.4,0.4-0.7,0.6h-1v7.8h4.2v-4.2h12.6v4.2
		L-56.3,431.6L-56.3,431.6z M-62,423.8h-9.6c0.2-0.2,0.3-0.3,0.5-0.6c0.2-0.2,0.3-0.5,0.5-0.8s0.3-0.7,0.4-1.2
		c0.1-0.5,0.2-1.1,0.3-1.7c0.1-0.7,0.1-1.5,0.1-2.4v-1.7h7.8V423.8L-62,423.8z M-31.2,423.1c0-0.5,0-0.9-0.1-1.4
		c-0.1-0.4-0.2-0.8-0.4-1.1c-0.2-0.3-0.5-0.6-0.8-0.7c-0.4-0.2-0.8-0.3-1.4-0.3v-0.2c0.5-0.1,0.9-0.2,1.3-0.4
		c0.3-0.2,0.6-0.5,0.8-0.8c0.2-0.3,0.3-0.7,0.4-1.1s0.1-0.9,0.1-1.4c0-0.9-0.1-1.6-0.3-2.1c-0.2-0.5-0.6-0.9-1-1.2
		c-0.4-0.3-0.9-0.5-1.6-0.6c-0.6-0.1-1.3-0.2-2.1-0.2h-12.4v15.8h12.5c0.7,0,1.3,0,1.8-0.1c0.5-0.1,1-0.2,1.4-0.3
		c0.4-0.2,0.8-0.4,1-0.7c0.3-0.3,0.5-0.7,0.6-1.3C-31.2,424.5-31.2,423.9-31.2,423.1L-31.2,423.1z M-35.6,416.5c0,0.4,0,0.7-0.1,1
		c-0.1,0.2-0.3,0.4-0.6,0.5c-0.3,0.1-0.6,0.1-1.1,0.1h-7.1v-2.9h7.6c0.4,0,0.7,0.1,0.9,0.1c0.2,0.1,0.3,0.2,0.4,0.4
		C-35.6,415.9-35.6,416.2-35.6,416.5L-35.6,416.5z M-35.4,422.4c0,0.4-0.1,0.7-0.2,1c-0.1,0.2-0.3,0.4-0.6,0.5
		c-0.3,0.1-0.6,0.1-1.1,0.1h-7.3v-3.1h7.4c0.4,0,0.8,0,1.1,0.1c0.3,0.1,0.5,0.2,0.6,0.4C-35.4,421.7-35.4,422-35.4,422.4
		L-35.4,422.4z M-6.3,427.5V424h-12.3v-3.1h11.7V418h-11.7v-2.9h12.2v-3.5h-16.4v15.8L-6.3,427.5L-6.3,427.5z M19.1,417.5
		c0-1.4-0.2-2.5-0.5-3.3c-0.4-0.9-0.9-1.5-1.7-1.9c-0.8-0.4-1.8-0.6-3.1-0.6H2.1v15.8h4.2v-4h7.5c0.9,0,1.6-0.1,2.3-0.2
		c0.6-0.1,1.1-0.3,1.6-0.6c0.4-0.3,0.7-0.7,1-1.1c0.2-0.5,0.4-1,0.5-1.7C19.1,419.2,19.1,418.4,19.1,417.5L19.1,417.5z M14.8,417.5
		c0,0.5,0,0.9-0.1,1.2c0,0.3-0.1,0.5-0.3,0.7c-0.1,0.2-0.3,0.3-0.6,0.3c-0.3,0.1-0.6,0.1-1,0.1H6.2v-4.4h6.6c0.4,0,0.7,0,1,0.1
		c0.3,0.1,0.4,0.2,0.6,0.4c0.1,0.2,0.2,0.4,0.3,0.7C14.8,416.8,14.8,417.1,14.8,417.5L14.8,417.5z M45.7,427.5v-15.8h-4.2
		l-10.3,10.6l0,0l0.1-10.6H27v15.8h4.2l10.3-10.6l0,0l-0.1,10.6H45.7z"/>
</g>
</svg>
