<svg width="108" height="108" viewBox="0 0 108 108" fill="none" xmlns="http://www.w3.org/2000/svg">
<path d="M28.4459 20.8835L27.4695 87.3708L78.9874 87.5305L79.7949 21.1934L28.4459 20.8835Z" fill="white"/>
<path d="M78.9874 88.0001L27.4695 87.8404C27.343 87.8382 27.2221 87.7878 27.1315 87.6996C27.0459 87.608 26.9988 87.4869 27 87.3615L27.9859 20.8742C27.9859 20.8138 27.9978 20.754 28.0209 20.6981C28.044 20.6423 28.0779 20.5916 28.1206 20.5488C28.1633 20.5061 28.2141 20.4722 28.2699 20.4491C28.3257 20.426 28.3855 20.4141 28.4459 20.4141V20.4141L79.7854 20.7334C79.847 20.7326 79.9081 20.7447 79.9647 20.769C80.0213 20.7933 80.0721 20.8291 80.1141 20.8742C80.1579 20.9166 80.1923 20.9678 80.215 21.0245C80.2377 21.0811 80.2481 21.1419 80.2455 21.2029L79.4474 87.5306C79.4487 87.5918 79.4377 87.6526 79.4152 87.7095C79.3926 87.7664 79.3589 87.8183 79.3161 87.862C79.2732 87.9057 79.2221 87.9405 79.1656 87.9642C79.1092 87.9879 79.0486 88.0001 78.9874 88.0001V88.0001ZM27.9389 86.9014L78.5179 87.061L79.316 21.663L28.8778 21.3531L27.9389 86.9014Z" fill="black"/>
<path d="M88.2415 26.2831C87.9004 26.288 87.5631 26.2113 87.2577 26.0594C86.9523 25.9075 86.6876 25.6847 86.4857 25.4098C86.3577 25.2259 86.2691 25.0175 86.2254 24.7977C86.1818 24.5779 86.1841 24.3515 86.2322 24.1326C86.2721 23.9243 86.3813 23.7357 86.542 23.5974L87.7438 20.7238C87.9313 20.1292 88.307 19.6117 88.8142 19.2494C89.3601 18.9966 89.9748 18.9338 90.5606 19.071C90.9395 19.0837 91.308 19.1986 91.627 19.4036C91.946 19.6086 92.2036 19.896 92.3727 20.2354C92.4501 20.5703 92.4507 20.9183 92.3743 21.2534C92.2978 21.5885 92.1464 21.9019 91.9314 22.17C91.2554 23.2405 90.5606 24.3111 89.8188 25.3535C89.6403 25.6435 89.3998 25.8904 89.1146 26.0765C88.847 26.2216 88.5457 26.2929 88.2415 26.2831V26.2831ZM87.1429 24.3111C87.1143 24.408 87.1087 24.5103 87.1267 24.6097C87.1446 24.7092 87.1855 24.8031 87.2462 24.8839C87.3579 25.0271 87.5002 25.1436 87.6626 25.2248C87.8251 25.306 88.0036 25.35 88.1851 25.3535C88.3319 25.3612 88.478 25.3287 88.6076 25.2595C88.7698 25.1402 88.9069 24.9903 89.0114 24.8182C89.7249 23.7852 90.4291 22.724 91.1051 21.6722C91.3493 21.2684 91.5746 20.8646 91.4619 20.5641C91.3492 20.2636 90.7953 20.0664 90.3728 19.9913C89.9925 19.8961 89.5919 19.9224 89.2273 20.0664C88.8969 20.327 88.657 20.6852 88.5419 21.09L87.3401 24.0857C87.2986 24.179 87.2299 24.2575 87.1429 24.3111V24.3111Z" fill="black"/>
<path d="M74.5992 45.3467C71.5101 51.4226 69.1065 56.982 65.6514 63.7716C65.2781 64.6574 64.9645 65.5672 64.7125 66.4949C64.4701 67.4453 64.5976 68.4523 65.0692 69.3122C65.3175 69.7307 65.6966 70.0558 66.1479 70.2374C66.5993 70.419 67.0979 70.447 67.5667 70.317C68.2932 69.9588 68.8713 69.3574 69.2004 68.6172C73.219 61.7525 76.7117 54.4652 80.4673 47.4315L74.5992 45.3467Z" fill="white"/>
<path d="M66.9752 70.8617C66.51 70.8476 66.0556 70.7184 65.6525 70.4857C65.2495 70.253 64.9104 69.924 64.6655 69.5282C64.1395 68.5745 63.9984 67.4555 64.2711 66.401C64.4254 65.7212 64.6358 65.0552 64.9002 64.4102L65.1913 63.6213C65.1857 63.5998 65.1857 63.5772 65.1913 63.5556C66.9658 60.0716 68.4681 56.9069 69.8858 53.8454C71.3036 50.784 72.6086 48.0982 74.1109 45.1401C74.1617 45.0382 74.2477 44.9581 74.3531 44.915C74.4585 44.8718 74.5759 44.8683 74.6836 44.9053L80.5518 46.9619C80.6147 46.9859 80.6721 47.0224 80.7206 47.0692C80.769 47.116 80.8074 47.1722 80.8335 47.2343C80.8613 47.2947 80.8757 47.3603 80.8757 47.4268C80.8757 47.4933 80.8613 47.5589 80.8335 47.6193C79.7913 49.6196 78.7303 51.6855 77.7069 53.6764C75.1249 58.7099 72.4584 63.9125 69.5854 68.8239C69.1973 69.6496 68.5331 70.3139 67.7075 70.702C67.4741 70.796 67.2265 70.8499 66.9752 70.8617V70.8617ZM66.0363 63.95C65.9518 64.213 65.8485 64.4759 65.7546 64.7389C65.5108 65.3492 65.3131 65.9771 65.1631 66.617C64.9521 67.4387 65.0559 68.3096 65.4542 69.0586C65.6479 69.3854 65.941 69.6418 66.2905 69.7904C66.6401 69.939 67.028 69.9722 67.3977 69.885C68.0186 69.5573 68.5089 69.0271 68.7873 68.3825C71.604 63.4899 74.3175 58.2967 76.8901 53.282C77.829 51.4038 78.7679 49.5257 79.7725 47.6944L74.7963 45.9571C73.3692 48.7744 72.1016 51.4414 70.759 54.268C69.3131 57.3013 67.8108 60.466 66.0363 63.95Z" fill="black"/>
<g opacity="0.13">
<path d="M79.9075 38.0406C80.0765 34.2843 79.6446 30.6313 79.607 26.9219C79.607 25.532 79.438 24.1046 79.3441 22.7523C79.3441 22.264 79.3441 21.7005 78.978 21.3343C78.8185 21.1792 78.6174 21.0739 78.3991 21.0313C78.1808 20.9886 77.9548 21.0104 77.7487 21.0941C77.5426 21.1777 77.3653 21.3196 77.2385 21.5023C77.1117 21.6851 77.0407 21.9008 77.0344 22.1231C77.3067 25.2879 77.3912 28.462 77.4945 31.6267C77.748 36.1719 77.6353 40.7264 77.4945 45.2622C77.4404 45.6635 77.4627 46.0713 77.5602 46.4642C77.6584 46.701 77.839 46.8941 78.0685 47.0081C78.2981 47.122 78.5611 47.149 78.809 47.084C79.6634 46.8587 79.607 45.9571 79.6352 45.2528C79.6634 44.5485 79.823 43.6658 79.8511 42.8675C79.9075 41.2335 79.8511 39.6465 79.9075 38.0406Z" fill="black"/>
</g>
<path d="M80.5612 49.0561C78.0596 47.9509 75.6266 46.6965 73.2753 45.2998C75.4441 41.6373 76.1859 39.3272 78.12 35.4581C78.8712 33.9556 81.6597 28.584 82.2418 27.4477C84.5609 22.8838 87.8753 23.8604 89.6311 25.1188C92.8233 27.3538 89.1804 31.6924 88.5231 32.8663C85.5843 38.118 82.9266 43.5222 80.5612 49.0561V49.0561Z" fill="#ACD4F7"/>
<path d="M80.5612 49.4973C80.5021 49.506 80.442 49.506 80.3828 49.4973C77.8562 48.3935 75.3981 47.1392 73.0218 45.7409C72.9209 45.6753 72.849 45.5734 72.8211 45.4563C72.7931 45.3393 72.8112 45.2159 72.8716 45.1117C74.0033 43.1829 75.013 41.185 75.8948 39.1298C76.43 37.9559 76.984 36.7445 77.6976 35.2983C78.167 34.3592 79.4439 31.8988 80.4579 29.9267C81.0776 28.7341 81.6128 27.7105 81.8287 27.2785C82.824 25.3252 84.0821 24.1513 85.5844 23.7757C86.3345 23.6302 87.1068 23.6445 87.851 23.8177C88.5951 23.9908 89.2945 24.3189 89.9034 24.7805C93.0018 26.9498 90.4573 30.8095 89.3682 32.4623C89.213 32.6803 89.0688 32.9059 88.9363 33.1384C85.998 38.3586 83.3464 43.735 80.9931 49.2437C80.9446 49.3579 80.8538 49.4488 80.7396 49.4973C80.6806 49.5071 80.6203 49.5071 80.5612 49.4973ZM73.9044 45.1587C75.985 46.3507 78.1254 47.4352 80.3171 48.4079C82.6431 43.0236 85.2473 37.7639 88.1194 32.6501C88.2227 32.4529 88.3823 32.2181 88.5889 31.9082C90.2132 29.4384 91.4056 26.9592 89.3682 25.513C88.8684 25.1279 88.2938 24.8513 87.6811 24.7009C87.0683 24.5505 86.431 24.5297 85.8097 24.6397C84.5798 24.9496 83.5282 25.9638 82.6644 27.6635C82.439 28.0955 81.9039 29.1285 81.2936 30.3211C80.2702 32.2932 79.0026 34.7348 78.5332 35.6739C77.8196 37.1013 77.275 38.3128 76.7493 39.4772C75.9032 41.4206 74.9535 43.3171 73.9044 45.1587V45.1587Z" fill="black"/>
<path d="M84.7769 47.8822C84.4165 47.8851 84.0635 47.7805 83.7629 47.5817C83.3527 47.2538 83.0541 46.807 82.9078 46.3026C82.7616 45.7982 82.7749 45.2609 82.946 44.7644C83.2704 43.9102 83.7692 43.133 84.4107 42.4825L89.6217 36.3408C90.7178 35.1596 91.6639 33.8475 92.4384 32.4342C93.1847 31.0797 93.3926 29.4935 93.0205 27.9924C92.8189 27.2831 92.4099 26.6502 91.8461 26.175C91.2824 25.6998 90.5895 25.4039 89.8564 25.3253C89.7952 25.3242 89.7348 25.3107 89.6788 25.2859C89.6228 25.261 89.5724 25.2253 89.5304 25.1807C89.4884 25.136 89.4558 25.0835 89.4344 25.0261C89.4129 24.9687 89.4032 24.9076 89.4057 24.8464C89.4081 24.7847 89.4227 24.7241 89.4485 24.6681C89.4744 24.612 89.511 24.5617 89.5564 24.5198C89.6017 24.4779 89.6549 24.4454 89.7128 24.4241C89.7707 24.4028 89.8323 24.3931 89.894 24.3957C90.8226 24.4786 91.7042 24.8418 92.4218 25.4372C93.1395 26.0325 93.6593 26.8319 93.9125 27.7294C94.3831 29.4421 94.192 31.2692 93.3773 32.8474C92.5639 34.3342 91.5672 35.7129 90.4104 36.9512L85.1712 43.0553C84.6104 43.6163 84.1723 44.2879 83.8849 45.0274C83.772 45.3364 83.7554 45.6724 83.8376 45.9911C83.9198 46.3097 84.0967 46.5958 84.345 46.8116C84.4877 46.8941 84.6496 46.9375 84.8145 46.9375C84.9793 46.9375 85.1412 46.8941 85.2839 46.8116C85.3789 46.7789 85.4636 46.7218 85.5295 46.6459C85.5954 46.5701 85.6403 46.4783 85.6595 46.3797C85.6663 46.318 85.6851 46.2583 85.715 46.2039C85.7448 46.1495 85.7851 46.1016 85.8335 46.0628C85.8819 46.024 85.9374 45.9951 85.997 45.9777C86.0565 45.9604 86.1189 45.955 86.1806 45.9618C86.2422 45.9686 86.3019 45.9874 86.3563 46.0173C86.4107 46.0471 86.4586 46.0874 86.4974 46.1358C86.5362 46.1842 86.5651 46.2398 86.5824 46.2993C86.5997 46.3589 86.6052 46.4213 86.5984 46.483C86.5594 46.7452 86.4521 46.9926 86.2873 47.2003C86.1225 47.408 85.906 47.5686 85.6595 47.6662C85.3858 47.805 85.0838 47.8789 84.7769 47.8822V47.8822Z" fill="black"/>
<path d="M64.4683 73.7259C64.4 73.7248 64.3327 73.7088 64.2712 73.679C64.2151 73.6537 64.1647 73.6175 64.1229 73.5724C64.0811 73.5274 64.0487 73.4744 64.0277 73.4166C64.0067 73.3589 63.9975 73.2975 64.0006 73.2361C64.0037 73.1747 64.0191 73.1145 64.0458 73.0592L65.473 69.9977C65.4938 69.9348 65.5277 69.877 65.5725 69.8281C65.6173 69.7793 65.6719 69.7404 65.7327 69.7142C65.7936 69.6879 65.8593 69.6749 65.9255 69.6758C65.9918 69.6768 66.0571 69.6918 66.1172 69.7198C66.1772 69.7479 66.2307 69.7883 66.274 69.8385C66.3173 69.8886 66.3495 69.9474 66.3684 70.0109C66.3874 70.0744 66.3927 70.1412 66.384 70.2069C66.3753 70.2726 66.3528 70.3358 66.318 70.3922L64.8908 73.4724C64.85 73.5489 64.7891 73.613 64.7147 73.6577C64.6403 73.7023 64.5551 73.7259 64.4683 73.7259V73.7259Z" fill="black"/>
<path d="M70.0772 36.0687C59.0544 35.7118 47.8814 35.6461 36.8586 35.8715C36.7364 35.8692 36.6198 35.8202 36.5325 35.7347C36.4452 35.6491 36.3939 35.5334 36.3892 35.4113C36.3891 35.2884 36.4373 35.1704 36.5233 35.0826C36.6093 34.9948 36.7264 34.9442 36.8492 34.9418C47.8908 34.707 59.0826 34.7727 70.1241 35.139C70.2486 35.139 70.3681 35.1884 70.4561 35.2765C70.5441 35.3646 70.5936 35.484 70.5936 35.6085C70.5936 35.733 70.5441 35.8525 70.4561 35.9405C70.3681 36.0286 70.2486 36.0781 70.1241 36.0781L70.0772 36.0687Z" fill="black"/>
<path d="M56.9512 46.8678C50.0783 46.8678 43.1868 46.6894 36.3515 46.3326C36.2278 46.3229 36.1127 46.2657 36.0304 46.1728C35.9481 46.08 35.905 45.9588 35.9102 45.8348C35.9175 45.7119 35.9727 45.5968 36.0641 45.5143C36.1554 45.4317 36.2755 45.3883 36.3985 45.3935C47.1396 45.9569 57.9933 46.079 68.772 45.7503C68.8942 45.7526 69.0109 45.8016 69.0981 45.8871C69.1854 45.9727 69.2367 46.0883 69.2415 46.2105C69.244 46.3334 69.1982 46.4525 69.114 46.5421C69.0297 46.6316 68.9137 46.6845 68.7908 46.6894C64.8662 46.8084 60.9196 46.8678 56.9512 46.8678Z" fill="black"/>
<path d="M56.9794 57.6769C49.9376 57.6769 42.8958 57.5454 35.8822 57.2825C35.761 57.2728 35.6482 57.2166 35.5677 57.1255C35.4871 57.0344 35.445 56.9156 35.4503 56.7941C35.4575 56.6704 35.5125 56.5543 35.6035 56.4703C35.6945 56.3862 35.8146 56.3407 35.9385 56.3434C46.4167 56.7472 57.0358 56.8411 67.5046 56.6439C67.6291 56.6439 67.7485 56.6933 67.8366 56.7814C67.9246 56.8695 67.9741 56.9889 67.9741 57.1134C67.9741 57.238 67.9246 57.3574 67.8366 57.4454C67.7485 57.5335 67.6291 57.583 67.5046 57.583C64.0119 57.6487 60.491 57.6769 56.9794 57.6769Z" fill="black"/>
<path d="M47.4495 67.6875C43.4435 67.6875 39.4437 67.6342 35.4502 67.5278C35.3885 67.5254 35.328 67.5108 35.2719 67.485C35.2159 67.4591 35.1655 67.4225 35.1236 67.3771C35.0818 67.3318 35.0493 67.2786 35.028 67.2207C35.0067 67.1627 34.997 67.1012 34.9995 67.0395C35.0042 66.9214 35.0531 66.8094 35.1367 66.7259C35.2202 66.6423 35.3322 66.5934 35.4502 66.5887C44.0976 66.8986 52.867 66.8704 61.5143 66.5136C61.6373 66.5085 61.7574 66.5518 61.8487 66.6344C61.94 66.7169 61.9953 66.8321 62.0025 66.955C62.0063 67.0162 61.9979 67.0775 61.9776 67.1354C61.9574 67.1933 61.9258 67.2465 61.8847 67.292C61.8436 67.3375 61.7938 67.3743 61.7382 67.4003C61.6827 67.4263 61.6225 67.4409 61.5613 67.4433C56.8949 67.5935 52.1722 67.6875 47.4495 67.6875Z" fill="black"/>
<path d="M35.0465 76.9189C34.9227 76.9165 34.8047 76.8662 34.7172 76.7787C34.6297 76.6912 34.5794 76.5731 34.577 76.4493C34.577 76.3248 34.6265 76.2054 34.7145 76.1173C34.8026 76.0293 34.922 75.9798 35.0465 75.9798L68.2275 75.9141C68.352 75.9141 68.4714 75.9635 68.5595 76.0516C68.6475 76.1396 68.697 76.2591 68.697 76.3836C68.697 76.5081 68.6475 76.6276 68.5595 76.7156C68.4714 76.8037 68.352 76.8531 68.2275 76.8531L35.0465 76.9189Z" fill="black"/>
<g opacity="0.13">
<path d="M78.1765 47.8163C77.5034 47.4101 76.8039 47.0493 76.0827 46.7364H76.017L74.7588 46.1917C74.6453 46.1205 74.5179 46.0745 74.3851 46.0567C74.2523 46.0389 74.1172 46.0497 73.9889 46.0884C73.802 46.1428 73.6349 46.2503 73.5079 46.3979C73.3809 46.5455 73.2995 46.7268 73.2737 46.9198C73.2478 47.1128 73.2786 47.3091 73.3622 47.485C73.4459 47.6608 73.5788 47.8085 73.7448 47.9102C74.3633 48.1601 74.9654 48.4486 75.5475 48.7742C76.3768 49.4176 77.2937 49.9394 78.2704 50.3237L78.0075 50.211C78.768 50.6617 79.782 50.5209 79.8853 49.5255C79.9886 48.53 78.8806 48.1826 78.1765 47.8163Z" fill="black"/>
</g>
<g opacity="0.13">
<path d="M90.7859 26.6212C90.7062 26.4422 90.568 26.2956 90.394 26.2056C90.22 26.1155 90.0206 26.0873 89.8285 26.1255C89.6363 26.1637 89.4629 26.2661 89.3366 26.4159C89.2103 26.5657 89.1387 26.754 89.1335 26.9498C89.1335 28.5463 87.7251 30.5559 86.5139 32.7816C85.4342 34.6597 84.4389 36.6694 83.4625 38.6415C82.5893 40.3788 81.641 42.0785 80.8335 43.8534C80.4486 44.7925 79.9791 45.6095 79.5754 46.5016C79.3219 47.112 78.8994 47.9478 79.5754 48.3798C79.766 48.5295 80.0048 48.6045 80.2468 48.5907C80.4888 48.5769 80.7175 48.4752 80.8898 48.3047C81.2196 47.7499 81.4723 47.1528 81.641 46.5298C81.6748 46.4798 81.7032 46.4263 81.7255 46.3701C82.439 44.9052 83.1151 43.4214 83.8756 41.9752C85.9599 37.6648 88.6546 33.6455 90.3822 29.1755C90.6063 28.6264 90.7486 28.0474 90.8047 27.4569C90.8658 27.1809 90.8594 26.8942 90.7859 26.6212Z" fill="black"/>
</g>
<g opacity="0.13">
<path d="M79.1188 74.0452C79.1188 71.5472 79.1658 69.0586 79.2878 66.5325C79.3535 65.4713 79.2127 64.4195 79.2878 63.3678C79.4609 62.852 79.562 62.3148 79.5883 61.7713C79.5507 61.5144 79.4263 61.278 79.2358 61.1016C79.0452 60.9253 78.8 60.8195 78.541 60.8019C78.2819 60.7844 78.0247 60.8561 77.8121 61.0051C77.5995 61.1541 77.4443 61.3715 77.3725 61.6211C77.2053 62.1488 77.0797 62.6889 76.9969 63.2363C76.7152 63.565 76.5368 63.9594 76.2833 64.3068C76.1905 64.4229 76.0902 64.5327 75.9829 64.6355V64.6355C75.9262 64.6523 75.8723 64.6777 75.8233 64.7107C74.6027 64.7107 73.5887 65.5464 74.1802 66.786C74.4772 67.1526 74.8912 67.4058 75.3528 67.5033C75.8144 67.6007 76.2954 67.5365 76.7152 67.3213C76.6401 68.899 76.6495 70.486 76.7152 72.0167C76.7152 73.2282 76.6307 74.4302 76.6589 75.6416C76.6589 77.5198 76.9875 79.4637 77.1096 81.3794C77.1201 82.7822 77.0417 84.1843 76.8748 85.5772C76.7708 85.9085 76.717 86.2535 76.7152 86.6008C76.7361 86.7654 76.7974 86.9223 76.8937 87.0575C76.99 87.1927 77.1183 87.3018 77.2671 87.3753C77.4159 87.4488 77.5806 87.4843 77.7464 87.4786C77.9122 87.4729 78.0741 87.4262 78.2175 87.3426C78.3916 87.2331 78.5315 87.077 78.6212 86.8919C78.6681 86.8074 78.7057 86.7041 78.7433 86.6383L78.6869 86.751C78.9566 86.1276 79.1246 85.4649 79.1845 84.7883C79.3813 83.2314 79.4472 81.6608 79.3817 80.0929C79.316 78.102 79.1564 76.083 79.1188 74.0452Z" fill="black"/>
</g>
<path d="M31.826 30.9786C31.7878 30.9739 31.7529 30.9547 31.7285 30.925C31.704 30.8953 31.6919 30.8573 31.6946 30.819L31.9669 23.757C31.9653 23.7361 31.9684 23.715 31.976 23.6954C31.9836 23.6758 31.9955 23.6582 32.0108 23.6438C32.0261 23.6293 32.0444 23.6185 32.0644 23.6122C32.0845 23.6058 32.1057 23.6039 32.1265 23.6068C32.1672 23.6092 32.2054 23.6271 32.2333 23.6567C32.2613 23.6864 32.2768 23.7257 32.2767 23.7664L32.0044 30.8377C32.0021 30.8588 31.9956 30.8791 31.9854 30.8976C31.9751 30.9161 31.9613 30.9324 31.9447 30.9455C31.9281 30.9586 31.909 30.9683 31.8887 30.974C31.8683 30.9796 31.847 30.9812 31.826 30.9786Z" fill="black"/>
<path d="M34.455 27.7668C34.4152 27.7668 34.377 27.751 34.3488 27.7228C34.3206 27.6946 34.3048 27.6564 34.3048 27.6166C34.25 26.1857 34.2751 24.753 34.3799 23.3249C34.3818 23.2898 34.3961 23.2564 34.4201 23.2307C34.4441 23.2049 34.4764 23.1884 34.5114 23.1841C34.552 23.1888 34.5893 23.209 34.6155 23.2405C34.6417 23.2719 34.6549 23.3123 34.6522 23.3531C34.5473 24.7686 34.5222 26.1889 34.5771 27.6072C34.5771 27.6479 34.5616 27.6872 34.5337 27.7169C34.5058 27.7466 34.4675 27.7644 34.4268 27.7668H34.455Z" fill="black"/>
<path d="M75.7199 29.0252C75.6784 29.0206 75.6401 29.0008 75.6124 28.9696C75.5847 28.9383 75.5694 28.898 75.5697 28.8562L75.8983 23.8697C75.8981 23.8495 75.9023 23.8295 75.9105 23.811C75.9187 23.7926 75.9308 23.7761 75.946 23.7628C75.9611 23.7494 75.9789 23.7395 75.9983 23.7336C76.0176 23.7277 76.0379 23.7261 76.0579 23.7288C76.0994 23.7334 76.1377 23.7533 76.1655 23.7845C76.1932 23.8157 76.2084 23.8561 76.2082 23.8978L75.8889 28.875C75.8877 28.896 75.8824 28.9165 75.8733 28.9354C75.8641 28.9543 75.8513 28.9713 75.8356 28.9852C75.8199 28.9992 75.8016 29.0099 75.7818 29.0168C75.7619 29.0236 75.7409 29.0265 75.7199 29.0252V29.0252Z" fill="black"/>
<path d="M73.861 26.3021C73.8397 26.3035 73.8183 26.3003 73.7983 26.2928C73.7783 26.2852 73.7602 26.2735 73.745 26.2584C73.7299 26.2433 73.7182 26.2251 73.7107 26.2051C73.7032 26.1851 73.7 26.1638 73.7014 26.1425V23.8229C73.7013 23.8024 73.7055 23.782 73.7136 23.7632C73.7218 23.7443 73.7337 23.7273 73.7486 23.7132C73.7636 23.6991 73.7813 23.6883 73.8006 23.6813C73.8199 23.6743 73.8405 23.6714 73.861 23.6727V23.6727C73.9008 23.6727 73.939 23.6885 73.9672 23.7167C73.9954 23.7448 74.0112 23.7831 74.0112 23.8229V26.1425C74.0125 26.163 74.0095 26.1835 74.0026 26.2028C73.9956 26.2222 73.9847 26.2399 73.9707 26.2548C73.9566 26.2698 73.9396 26.2817 73.9207 26.2898C73.9019 26.298 73.8815 26.3021 73.861 26.3021Z" fill="black"/>
<path d="M30.3614 85.7462C30.319 85.7462 30.2784 85.7294 30.2485 85.6994C30.2186 85.6695 30.2018 85.6289 30.2018 85.5866V81.6142C30.2004 81.5941 30.2033 81.574 30.2104 81.5551C30.2174 81.5363 30.2284 81.5191 30.2427 81.5049C30.2569 81.4906 30.274 81.4796 30.2929 81.4726C30.3117 81.4655 30.3319 81.4626 30.352 81.464V81.464C30.3927 81.4639 30.432 81.4794 30.4616 81.5074C30.4913 81.5353 30.5092 81.5735 30.5116 81.6142V85.5866C30.5093 85.6282 30.4918 85.6675 30.4623 85.6969C30.4329 85.7264 30.3936 85.7439 30.352 85.7462H30.3614Z" fill="black"/>
<path d="M32.3612 85.8402C32.3414 85.8415 32.3216 85.8389 32.3029 85.8325C32.2842 85.8261 32.2669 85.816 32.2521 85.8029C32.2373 85.7899 32.2252 85.774 32.2165 85.7562C32.2078 85.7384 32.2027 85.7191 32.2015 85.6994L32.1077 83.8212C32.105 83.8007 32.1067 83.7799 32.1125 83.7601C32.1182 83.7403 32.128 83.7219 32.1413 83.706C32.1545 83.6901 32.1708 83.6772 32.1893 83.6679C32.2077 83.6586 32.2279 83.6533 32.2485 83.6521C32.2695 83.6509 32.2905 83.6538 32.3103 83.6606C32.3302 83.6675 32.3485 83.6782 32.3642 83.6922C32.3799 83.7061 32.3927 83.7231 32.4018 83.742C32.411 83.7609 32.4163 83.7814 32.4175 83.8024L32.5114 85.6806C32.5141 85.7006 32.5124 85.7209 32.5066 85.7403C32.5007 85.7596 32.4908 85.7774 32.4774 85.7926C32.4641 85.8077 32.4476 85.8198 32.4292 85.828C32.4107 85.8362 32.3907 85.8404 32.3705 85.8402H32.3612Z" fill="black"/>
<path d="M75.4571 86.1688C75.4164 86.1664 75.3782 86.1485 75.3503 86.1189C75.3223 86.0892 75.3068 86.0499 75.3069 86.0092L75.5416 79.9521C75.5428 79.9311 75.5481 79.9106 75.5573 79.8916C75.5664 79.8727 75.5792 79.8558 75.5949 79.8418C75.6106 79.8279 75.6289 79.8172 75.6488 79.8103C75.6686 79.8034 75.6896 79.8005 75.7106 79.8018C75.7521 79.8064 75.7904 79.8263 75.8182 79.8575C75.8459 79.8887 75.8611 79.9291 75.8608 79.9708L75.6261 86.0186C75.6249 86.0395 75.6196 86.0601 75.6104 86.079C75.6013 86.0979 75.5885 86.1148 75.5728 86.1288C75.5571 86.1427 75.5388 86.1535 75.5189 86.1603C75.4991 86.1672 75.4781 86.1701 75.4571 86.1688V86.1688Z" fill="black"/>
<path d="M73.861 85.7836C73.8401 85.7852 73.819 85.7821 73.7994 85.7745C73.7798 85.7669 73.7622 85.755 73.7478 85.7397C73.7333 85.7244 73.7226 85.7061 73.7162 85.686C73.7098 85.666 73.7079 85.6448 73.7108 85.624L73.8422 83.342C73.8406 83.321 73.8437 83.3 73.8513 83.2804C73.8589 83.2608 73.8708 83.2431 73.8861 83.2287C73.9014 83.2143 73.9198 83.2035 73.9398 83.1971C73.9598 83.1907 73.981 83.1889 74.0018 83.1917C74.0425 83.1941 74.0808 83.212 74.1087 83.2417C74.1366 83.2714 74.1521 83.3106 74.1521 83.3514L74.0206 85.6428C74.0194 85.6625 74.0143 85.6818 74.0057 85.6996C73.997 85.7174 73.9849 85.7333 73.9701 85.7463C73.9552 85.7594 73.938 85.7695 73.9193 85.7759C73.9005 85.7823 73.8807 85.7849 73.861 85.7836V85.7836Z" fill="black"/>
<path d="M71.8048 86.2346C71.7641 86.2322 71.7259 86.2143 71.6979 86.1846C71.67 86.1549 71.6545 86.1157 71.6545 86.0749L71.7015 84.4315C71.7015 84.3917 71.7173 84.3534 71.7455 84.3253C71.7737 84.2971 71.8119 84.2813 71.8517 84.2812V84.2812C71.8924 84.2836 71.9306 84.3015 71.9586 84.3312C71.9865 84.3609 72.002 84.4001 72.0019 84.4409L71.9456 86.1219C71.9375 86.1534 71.9194 86.1814 71.894 86.2017C71.8686 86.222 71.8373 86.2335 71.8048 86.2346V86.2346Z" fill="black"/>
</svg>
