<svg width="108" height="108" viewBox="0 0 108 108" fill="none" xmlns="http://www.w3.org/2000/svg">
<g clip-path="url(#clip0_3_711)">
<path d="M91.7834 84.9999H16.2166C16.1591 84.9999 16.104 84.9769 16.0634 84.936C16.0228 84.8951 16 84.8397 16 84.7818V26.5921C16 26.5342 16.0228 26.4788 16.0634 26.4379C16.104 26.397 16.1591 26.374 16.2166 26.374H91.7967C91.8541 26.374 91.9092 26.397 91.9498 26.4379C91.9904 26.4788 92.0133 26.5342 92.0133 26.5921V84.7818C92.0133 84.8116 92.0073 84.8411 91.9956 84.8685C91.9839 84.8959 91.9668 84.9205 91.9452 84.9409C91.9237 84.9614 91.8982 84.9771 91.8704 84.9873C91.8426 84.9974 91.813 85.0017 91.7834 84.9999V84.9999ZM16.442 84.5638H91.5801V26.8101H16.442V84.5638Z" fill="black" stroke="black" stroke-width="0.6"/>
<g opacity="0.13">
<path d="M91.7834 31.8875H16.2166V33.6362H91.7834V31.8875Z" fill="black"/>
</g>
<path d="M16.2166 31.7896L91.7834 31.7896V26.5922L16.2166 26.5922V31.7896Z" fill="#ACD4F7"/>
<path d="M91.7834 31.9335H16.2166C16.1591 31.9335 16.104 31.9105 16.0634 31.8696C16.0228 31.8287 16 31.7733 16 31.7154V26.5181C16 26.4603 16.0228 26.4048 16.0634 26.3639C16.104 26.323 16.1591 26.3 16.2166 26.3H91.7967C91.8541 26.3 91.9092 26.323 91.9498 26.3639C91.9904 26.4048 92.0133 26.4603 92.0133 26.5181V31.7154C92.0133 31.7452 92.0073 31.7747 91.9956 31.8021C91.9839 31.8294 91.9668 31.8541 91.9452 31.8745C91.9237 31.895 91.8982 31.9107 91.8704 31.9209C91.8426 31.931 91.813 31.9353 91.7834 31.9335ZM16.6595 31.3164H91.4101V26.7361H16.6595V31.3164Z" fill="black"/>
<path d="M73.3215 29.4089C73.2931 29.4089 73.2649 29.4033 73.2387 29.3923C73.2124 29.3814 73.1885 29.3653 73.1684 29.3451C73.1483 29.3248 73.1323 29.3008 73.1215 29.2743C73.1106 29.2479 73.105 29.2195 73.105 29.1909V22.2181C73.105 22.1591 73.1283 22.1025 73.1697 22.0608C73.2111 22.019 73.2674 21.9956 73.326 21.9956C73.3846 21.9956 73.4408 22.019 73.4822 22.0608C73.5237 22.1025 73.547 22.1591 73.547 22.2181V29.1909C73.547 29.2203 73.5411 29.2494 73.5297 29.2764C73.5182 29.3035 73.5015 29.3279 73.4804 29.3483C73.4594 29.3687 73.4345 29.3846 73.4071 29.395C73.3798 29.4054 73.3507 29.4101 73.3215 29.4089V29.4089Z" fill="black"/>
<path d="M36.3536 29.4089C36.2962 29.4089 36.2411 29.386 36.2004 29.3451C36.1598 29.3042 36.137 29.2487 36.137 29.1909V22.2181C36.137 22.1591 36.1603 22.1025 36.2017 22.0608C36.2432 22.019 36.2994 21.9956 36.358 21.9956C36.4166 21.9956 36.4728 22.019 36.5143 22.0608C36.5557 22.1025 36.579 22.1591 36.579 22.2181V29.1909C36.579 29.2203 36.5731 29.2494 36.5617 29.2764C36.5503 29.3035 36.5335 29.3279 36.5125 29.3483C36.4914 29.3687 36.4665 29.3846 36.4392 29.395C36.4119 29.4054 36.3828 29.4101 36.3536 29.4089V29.4089Z" fill="black"/>
<path d="M31.7613 41.6235H24.1901V47.7642H31.7613V41.6235Z" fill="white"/>
<path d="M31.7613 47.9823H24.1901C24.16 47.9855 24.1297 47.9822 24.101 47.9726C24.0723 47.963 24.046 47.9474 24.0239 47.9268C24.0017 47.9061 23.9841 47.8809 23.9724 47.8529C23.9607 47.8249 23.955 47.7947 23.9558 47.7643V41.6236C23.9552 41.5948 23.9604 41.5662 23.9711 41.5395C23.9817 41.5127 23.9977 41.4884 24.0179 41.4681C24.0381 41.4477 24.0622 41.4317 24.0888 41.4209C24.1153 41.4102 24.1438 41.405 24.1724 41.4056H31.7613C31.8188 41.4056 31.8739 41.4285 31.9145 41.4694C31.9551 41.5103 31.9779 41.5658 31.9779 41.6236V47.7643C31.9779 47.8221 31.9551 47.8776 31.9145 47.9185C31.8739 47.9594 31.8188 47.9823 31.7613 47.9823ZM24.3978 47.5463H31.5447V41.8416H24.3978V47.5463Z" fill="black"/>
<path d="M44.663 41.6235H37.0917V47.7642H44.663V41.6235Z" fill="white"/>
<path d="M44.663 47.9823H37.0917C37.0343 47.9823 36.9792 47.9594 36.9386 47.9185C36.898 47.8776 36.8751 47.8221 36.8751 47.7643V41.6236C36.8751 41.5658 36.898 41.5103 36.9386 41.4694C36.9792 41.4285 37.0343 41.4056 37.0917 41.4056H44.663C44.6916 41.405 44.72 41.4102 44.7466 41.4209C44.7731 41.4317 44.7972 41.4477 44.8175 41.4681C44.8377 41.4884 44.8536 41.5127 44.8643 41.5395C44.875 41.5662 44.8802 41.5948 44.8796 41.6236V47.7643C44.8802 47.7931 44.875 47.8217 44.8643 47.8485C44.8536 47.8752 44.8377 47.8995 44.8175 47.9198C44.7972 47.9402 44.7731 47.9562 44.7466 47.967C44.72 47.9777 44.6916 47.9829 44.663 47.9823ZM37.3083 47.5374H44.4464V41.8416H37.3083V47.5374Z" fill="black"/>
<path d="M57.5691 41.6235H49.9978V47.7642H57.5691V41.6235Z" fill="white"/>
<path d="M57.5691 47.9823H49.9978C49.9404 47.9823 49.8853 47.9593 49.8447 47.9184C49.804 47.8775 49.7812 47.8221 49.7812 47.7643V41.6236C49.7812 41.5657 49.804 41.5103 49.8447 41.4694C49.8853 41.4285 49.9404 41.4055 49.9978 41.4055H57.5691C57.6265 41.4055 57.6816 41.4285 57.7222 41.4694C57.7628 41.5103 57.7856 41.5657 57.7856 41.6236V47.7643C57.7856 47.8221 57.7628 47.8775 57.7222 47.9184C57.6816 47.9593 57.6265 47.9823 57.5691 47.9823ZM50.2144 47.5373H57.3525V41.8416H50.2144V47.5373Z" fill="black"/>
<path d="M70.9039 41.6235H63.3326V47.7642H70.9039V41.6235Z" fill="white"/>
<path d="M70.9083 47.9823H63.3326C63.2752 47.9823 63.2201 47.9593 63.1795 47.9184C63.1388 47.8775 63.116 47.8221 63.116 47.7643V41.6236C63.116 41.5657 63.1388 41.5103 63.1795 41.4694C63.2201 41.4285 63.2752 41.4055 63.3326 41.4055H70.9083C70.9657 41.4055 71.0208 41.4285 71.0614 41.4694C71.1021 41.5103 71.1249 41.5657 71.1249 41.6236V47.7643C71.1249 47.8221 71.1021 47.8775 71.0614 47.9184C71.0208 47.9593 70.9657 47.9823 70.9083 47.9823ZM63.5536 47.5373H70.6917V41.8416H63.5536V47.5373Z" fill="black"/>
<path d="M83.8099 41.6235H76.2387V47.7642H83.8099V41.6235Z" fill="white"/>
<path d="M83.8099 47.9823H76.2387C76.1812 47.9823 76.1261 47.9593 76.0855 47.9184C76.0449 47.8775 76.0221 47.8221 76.0221 47.7643V41.6236C76.0221 41.5657 76.0449 41.5103 76.0855 41.4694C76.1261 41.4285 76.1812 41.4055 76.2387 41.4055H83.8099C83.8674 41.4055 83.9225 41.4285 83.9631 41.4694C84.0037 41.5103 84.0265 41.5657 84.0265 41.6236V47.7643C84.0265 47.8221 84.0037 47.8775 83.9631 47.9184C83.9225 47.9593 83.8674 47.9823 83.8099 47.9823ZM76.4552 47.5373H83.5934V41.8416H76.4552V47.5373Z" fill="black"/>
<path d="M31.7613 54.7549H24.1901V60.8956H31.7613V54.7549Z" fill="white"/>
<path d="M31.7613 61.1181H24.1901C24.1614 61.1187 24.133 61.1135 24.1065 61.1028C24.0799 61.092 24.0558 61.076 24.0356 61.0556C24.0153 61.0353 23.9994 61.011 23.9887 60.9843C23.9781 60.9575 23.9729 60.9289 23.9735 60.9001V54.755C23.9729 54.7262 23.9781 54.6975 23.9887 54.6708C23.9994 54.6441 24.0153 54.6198 24.0356 54.5994C24.0558 54.5791 24.0799 54.563 24.1065 54.5523C24.133 54.5415 24.1614 54.5363 24.1901 54.5369H31.7613C31.8188 54.5369 31.8739 54.5599 31.9145 54.6008C31.9551 54.6417 31.9779 54.6971 31.9779 54.755V60.9001C31.9779 60.9579 31.9551 61.0134 31.9145 61.0543C31.8739 61.0952 31.8188 61.1181 31.7613 61.1181V61.1181ZM24.3978 60.6821H31.5448V54.973H24.3978V60.6821Z" fill="black"/>
<path d="M44.663 54.7549H37.0917V60.8956H44.663V54.7549Z" fill="white"/>
<path d="M44.663 61.1181H37.0917C37.0343 61.1181 36.9792 61.0952 36.9386 61.0543C36.898 61.0134 36.8751 60.9579 36.8751 60.9001V54.755C36.8751 54.6971 36.898 54.6417 36.9386 54.6008C36.9792 54.5599 37.0343 54.5369 37.0917 54.5369H44.663C44.6916 54.5363 44.72 54.5415 44.7466 54.5523C44.7731 54.563 44.7972 54.5791 44.8175 54.5994C44.8377 54.6198 44.8536 54.6441 44.8643 54.6708C44.875 54.6975 44.8802 54.7262 44.8796 54.755V60.9001C44.8802 60.9289 44.875 60.9575 44.8643 60.9843C44.8536 61.011 44.8377 61.0353 44.8175 61.0556C44.7972 61.076 44.7731 61.092 44.7466 61.1028C44.72 61.1135 44.6916 61.1187 44.663 61.1181ZM37.3083 60.6732H44.4464V54.973H37.3083V60.6732Z" fill="black"/>
<path d="M57.5691 54.7549H49.9978V60.8956H57.5691V54.7549Z" fill="white"/>
<path d="M57.5691 61.1181H49.9978C49.9404 61.1181 49.8853 61.0951 49.8447 61.0542C49.804 61.0133 49.7812 60.9579 49.7812 60.9V54.7549C49.7812 54.6971 49.804 54.6416 49.8447 54.6007C49.8853 54.5598 49.9404 54.5369 49.9978 54.5369H57.5691C57.6265 54.5369 57.6816 54.5598 57.7222 54.6007C57.7628 54.6416 57.7856 54.6971 57.7856 54.7549V60.9C57.7856 60.9579 57.7628 61.0133 57.7222 61.0542C57.6816 61.0951 57.6265 61.1181 57.5691 61.1181V61.1181ZM50.2144 60.6731H57.3525V54.9729H50.2144V60.6731Z" fill="black"/>
<path d="M70.9039 54.7549H63.3326V60.8956H70.9039V54.7549Z" fill="white"/>
<path d="M70.9083 61.1181H63.3326C63.2752 61.1181 63.2201 61.0951 63.1795 61.0542C63.1388 61.0133 63.116 60.9579 63.116 60.9V54.7549C63.116 54.6971 63.1388 54.6416 63.1795 54.6007C63.2201 54.5598 63.2752 54.5369 63.3326 54.5369H70.9083C70.9657 54.5369 71.0208 54.5598 71.0614 54.6007C71.1021 54.6416 71.1249 54.6971 71.1249 54.7549V60.9C71.1249 60.9579 71.1021 61.0133 71.0614 61.0542C71.0208 61.0951 70.9657 61.1181 70.9083 61.1181ZM63.5536 60.6731H70.6917V54.9729H63.5536V60.6731Z" fill="black"/>
<path d="M83.8099 54.7549H76.2387V60.8956H83.8099V54.7549Z" fill="white"/>
<path d="M83.8099 61.1181H76.2387C76.1812 61.1181 76.1261 61.0951 76.0855 61.0542C76.0449 61.0133 76.0221 60.9579 76.0221 60.9V54.7549C76.0221 54.6971 76.0449 54.6416 76.0855 54.6007C76.1261 54.5598 76.1812 54.5369 76.2387 54.5369H83.8099C83.8674 54.5369 83.9225 54.5598 83.9631 54.6007C84.0037 54.6416 84.0265 54.6971 84.0265 54.7549V60.9C84.0265 60.9579 84.0037 61.0133 83.9631 61.0542C83.9225 61.0951 83.8674 61.1181 83.8099 61.1181V61.1181ZM76.4552 60.6731H83.5934V54.9729H76.4552V60.6731Z" fill="black"/>
<path d="M31.7613 67.8906H24.1901V74.0313H31.7613V67.8906Z" fill="white"/>
<path d="M31.7613 74.2494H24.1901C24.1614 74.25 24.133 74.2448 24.1065 74.2341C24.0799 74.2233 24.0558 74.2073 24.0356 74.1869C24.0153 74.1666 23.9994 74.1423 23.9887 74.1155C23.9781 74.0888 23.9729 74.0602 23.9735 74.0314V67.8907C23.9729 67.8619 23.9781 67.8333 23.9887 67.8065C23.9994 67.7798 24.0153 67.7555 24.0356 67.7352C24.0558 67.7148 24.0799 67.6988 24.1065 67.688C24.133 67.6773 24.1614 67.672 24.1901 67.6727H31.7613C31.8188 67.6727 31.8739 67.6956 31.9145 67.7365C31.9551 67.7774 31.9779 67.8329 31.9779 67.8907V74.0314C31.9779 74.0892 31.9551 74.1447 31.9145 74.1856C31.8739 74.2265 31.8188 74.2494 31.7613 74.2494V74.2494ZM24.4066 73.8045H31.5448V68.1087H24.3978L24.4066 73.8045Z" fill="black"/>
<path d="M44.663 67.8906H37.0917V74.0313H44.663V67.8906Z" fill="white"/>
<path d="M44.663 74.2494H37.0917C37.0343 74.2494 36.9792 74.2265 36.9386 74.1856C36.898 74.1447 36.8751 74.0892 36.8751 74.0314V67.8907C36.8751 67.8329 36.898 67.7774 36.9386 67.7365C36.9792 67.6956 37.0343 67.6727 37.0917 67.6727H44.663C44.6916 67.672 44.72 67.6773 44.7466 67.688C44.7731 67.6988 44.7972 67.7148 44.8175 67.7352C44.8377 67.7555 44.8536 67.7798 44.8643 67.8065C44.875 67.8333 44.8802 67.8619 44.8796 67.8907V74.0314C44.8802 74.0602 44.875 74.0888 44.8643 74.1155C44.8536 74.1423 44.8377 74.1666 44.8175 74.1869C44.7972 74.2073 44.7731 74.2233 44.7466 74.2341C44.72 74.2448 44.6916 74.25 44.663 74.2494V74.2494ZM37.3083 73.8045H44.4464V68.1087H37.3083V73.8045Z" fill="black"/>
<path d="M57.5691 67.8906H49.9978V74.0313H57.5691V67.8906Z" fill="white"/>
<path d="M57.5691 74.2494H49.9978C49.9404 74.2494 49.8853 74.2264 49.8447 74.1855C49.804 74.1446 49.7812 74.0892 49.7812 74.0313V67.8906C49.7812 67.8328 49.804 67.7774 49.8447 67.7365C49.8853 67.6956 49.9404 67.6726 49.9978 67.6726H57.5691C57.6265 67.6726 57.6816 67.6956 57.7222 67.7365C57.7628 67.7774 57.7856 67.8328 57.7856 67.8906V74.0313C57.7856 74.0892 57.7628 74.1446 57.7222 74.1855C57.6816 74.2264 57.6265 74.2494 57.5691 74.2494V74.2494ZM50.2144 73.8044H57.3525V68.1087H50.2144V73.8044Z" fill="black"/>
<path d="M70.9039 67.8906H63.3326V74.0313H70.9039V67.8906Z" fill="white"/>
<path d="M70.9083 74.2494H63.3326C63.2752 74.2494 63.2201 74.2264 63.1795 74.1855C63.1388 74.1446 63.116 74.0892 63.116 74.0313V67.8906C63.116 67.8328 63.1388 67.7774 63.1795 67.7365C63.2201 67.6956 63.2752 67.6726 63.3326 67.6726H70.9083C70.9657 67.6726 71.0208 67.6956 71.0614 67.7365C71.1021 67.7774 71.1249 67.8328 71.1249 67.8906V74.0313C71.1249 74.0892 71.1021 74.1446 71.0614 74.1855C71.0208 74.2264 70.9657 74.2494 70.9083 74.2494ZM63.5536 73.8044H70.6917V68.1087H63.5536V73.8044Z" fill="black"/>
<path d="M83.8099 67.8906H76.2387V74.0313H83.8099V67.8906Z" fill="white"/>
<path d="M83.8099 74.2494H76.2387C76.1812 74.2494 76.1261 74.2264 76.0855 74.1855C76.0449 74.1446 76.0221 74.0892 76.0221 74.0313V67.8906C76.0221 67.8328 76.0449 67.7774 76.0855 67.7365C76.1261 67.6956 76.1812 67.6726 76.2387 67.6726H83.8099C83.8674 67.6726 83.9225 67.6956 83.9631 67.7365C84.0037 67.7774 84.0265 67.8328 84.0265 67.8906V74.0313C84.0265 74.0892 84.0037 74.1446 83.9631 74.1855C83.9225 74.2264 83.8674 74.2494 83.8099 74.2494V74.2494ZM76.4552 73.8044H83.5934V68.1087H76.4552V73.8044Z" fill="black"/>
<path d="M40.6365 46.6742C40.6038 46.6743 40.5716 46.6668 40.5425 46.6521C40.5133 46.6374 40.4879 46.616 40.4685 46.5896C39.7067 45.5961 39.007 44.5558 38.3735 43.4748C38.3565 43.4502 38.3447 43.4224 38.3389 43.393C38.3331 43.3637 38.3333 43.3334 38.3396 43.3042C38.3459 43.2749 38.3581 43.2473 38.3755 43.223C38.3928 43.1987 38.415 43.1782 38.4405 43.1629C38.4661 43.1476 38.4945 43.1378 38.524 43.134C38.5534 43.1302 38.5834 43.1326 38.6119 43.141C38.6405 43.1493 38.667 43.1636 38.6899 43.1827C38.7127 43.2019 38.7314 43.2255 38.7448 43.2523C39.3233 44.2405 39.9578 45.1943 40.6453 46.109L43.116 42.9942C43.1337 42.9716 43.1556 42.9528 43.1805 42.9388C43.2054 42.9248 43.2328 42.9159 43.2612 42.9126C43.2895 42.9093 43.3182 42.9116 43.3456 42.9195C43.3731 42.9274 43.3987 42.9407 43.421 42.9586C43.4653 42.9952 43.4937 43.0476 43.5003 43.1049C43.5069 43.1622 43.4911 43.2198 43.4564 43.2656L40.8044 46.5852C40.7847 46.6116 40.7595 46.6333 40.7304 46.6487C40.7014 46.6641 40.6693 46.6728 40.6365 46.6742Z" fill="black"/>
<path d="M67.1381 59.3782C67.1006 59.3781 67.0638 59.3682 67.0313 59.3495C66.9988 59.3308 66.9716 59.3039 66.9525 59.2714C66.4044 58.3503 65.8033 57.447 65.1845 56.6016C65.1672 56.5785 65.1547 56.5523 65.1475 56.5244C65.1404 56.4964 65.1388 56.4673 65.1429 56.4388C65.147 56.4102 65.1567 56.3827 65.1715 56.358C65.1862 56.3332 65.2057 56.3117 65.2287 56.2945C65.2515 56.2775 65.2774 56.2652 65.305 56.2584C65.3326 56.2516 65.3613 56.2504 65.3893 56.255C65.4173 56.2596 65.4441 56.2698 65.4682 56.285C65.4922 56.3001 65.513 56.3201 65.5293 56.3435C66.0994 57.1133 66.6431 57.9187 67.1425 58.7375C67.7087 57.7046 68.3941 56.7427 69.1845 55.8718C69.2251 55.8313 69.2799 55.8086 69.337 55.8086C69.3941 55.8086 69.4489 55.8313 69.4895 55.8718C69.51 55.8917 69.5262 55.9156 69.5373 55.9419C69.5484 55.9683 69.5542 55.9967 69.5542 56.0253C69.5542 56.054 69.5484 56.0823 69.5373 56.1087C69.5262 56.1351 69.51 56.1589 69.4895 56.1788C68.6397 57.1178 67.916 58.165 67.337 59.2937C67.319 59.3278 67.2924 59.3565 67.2597 59.3768C67.2271 59.3971 67.1897 59.4084 67.1514 59.4094L67.1381 59.3782Z" fill="black"/>
<path d="M53.3613 72.9499C53.321 72.9501 53.2815 72.939 53.2471 72.9178C53.2127 72.8965 53.185 72.8661 53.1669 72.8298L51.6862 69.804C51.6604 69.752 51.6562 69.6919 51.6744 69.6368C51.6926 69.5818 51.7319 69.5362 51.7834 69.5103C51.835 69.4843 51.8947 69.48 51.9494 69.4984C52.0041 69.5167 52.0494 69.5562 52.0751 69.6082L53.3525 72.2157C53.8559 71.1049 54.5104 70.0701 55.2972 69.1409C55.3158 69.119 55.3385 69.101 55.364 69.0879C55.3895 69.0748 55.4173 69.0669 55.4458 69.0646C55.4743 69.0624 55.503 69.0658 55.5302 69.0747C55.5574 69.0836 55.5827 69.0978 55.6044 69.1165C55.6262 69.1352 55.6441 69.158 55.6571 69.1837C55.6701 69.2093 55.6779 69.2373 55.6802 69.266C55.6825 69.2947 55.6791 69.3236 55.6702 69.351C55.6614 69.3784 55.6473 69.4038 55.6287 69.4257C54.7715 70.4415 54.0766 71.5854 53.5691 72.8165C53.5537 72.8549 53.5275 72.8879 53.4937 72.9116C53.46 72.9353 53.4201 72.9486 53.379 72.9499H53.3613Z" fill="black"/>
</g>
<g clip-path="url(#clip1_3_711)">
<path d="M83.7923 74.0994H76.2166C76.1992 74.0994 76.1824 74.0925 76.1699 74.0798C76.1573 74.0671 76.15 74.0497 76.15 74.0313V67.8906C76.15 67.8723 76.1573 67.8549 76.1699 67.8422C76.1824 67.8295 76.1992 67.8226 76.2166 67.8226H83.7923C83.8096 67.8226 83.8264 67.8295 83.839 67.8422C83.8516 67.8549 83.8588 67.8723 83.8588 67.8906V74.0313C83.8588 74.0497 83.8516 74.0671 83.839 74.0798C83.8264 74.0925 83.8096 74.0994 83.7923 74.0994Z" fill="#ACD4F7" stroke="black" stroke-width="0.3"/>
<g opacity="0.13">
<path d="M16.3666 32.0375H91.6334V33.4862H16.3666V32.0375Z" fill="black" stroke="black" stroke-width="0.3"/>
</g>
<path d="M73.3215 29.4089C73.2931 29.4089 73.2649 29.4033 73.2387 29.3923C73.2124 29.3814 73.1885 29.3653 73.1684 29.3451C73.1483 29.3248 73.1323 29.3008 73.1215 29.2743C73.1106 29.2479 73.105 29.2195 73.105 29.1909V22.2181C73.105 22.1591 73.1283 22.1025 73.1697 22.0608C73.2111 22.019 73.2674 21.9956 73.326 21.9956C73.3846 21.9956 73.4408 22.019 73.4822 22.0608C73.5237 22.1025 73.547 22.1591 73.547 22.2181V29.1909C73.547 29.2203 73.5411 29.2494 73.5297 29.2764C73.5182 29.3035 73.5015 29.3279 73.4804 29.3483C73.4594 29.3687 73.4345 29.3846 73.4071 29.395C73.3798 29.4054 73.3507 29.4101 73.3215 29.4089V29.4089Z" fill="black" stroke="black" stroke-width="0.4"/>
<path d="M36.3536 29.4089C36.2962 29.4089 36.2411 29.386 36.2004 29.3451C36.1598 29.3042 36.137 29.2487 36.137 29.1909V22.2181C36.137 22.1591 36.1603 22.1025 36.2017 22.0608C36.2432 22.019 36.2994 21.9956 36.358 21.9956C36.4166 21.9956 36.4728 22.019 36.5143 22.0608C36.5557 22.1025 36.579 22.1591 36.579 22.2181V29.1909C36.579 29.2203 36.5731 29.2494 36.5617 29.2764C36.5503 29.3035 36.5335 29.3279 36.5125 29.3483C36.4914 29.3687 36.4665 29.3846 36.4392 29.395C36.4119 29.4054 36.3828 29.4101 36.3536 29.4089V29.4089Z" fill="black" stroke="black" stroke-width="0.4"/>
<path d="M24.3401 41.7735H31.6113V47.6142H24.3401V41.7735Z" fill="white" stroke="black" stroke-width="0.3"/>
<path d="M37.2417 41.7735H44.513V47.6142H37.2417V41.7735Z" fill="white" stroke="black" stroke-width="0.3"/>
<path d="M44.6662 47.8321L44.6662 47.8321H44.663H37.0917C37.0744 47.8321 37.0576 47.8252 37.045 47.8125C37.0324 47.7998 37.0251 47.7824 37.0251 47.7641V41.6234C37.0251 41.605 37.0324 41.5876 37.045 41.5749C37.0576 41.5622 37.0744 41.5553 37.0917 41.5553H44.663V41.5554L44.6662 41.5553C44.6744 41.5551 44.6826 41.5566 44.6903 41.5597C44.698 41.5628 44.7051 41.5675 44.711 41.5735C44.717 41.5796 44.7218 41.5868 44.725 41.5948C44.7282 41.6029 44.7298 41.6115 44.7296 41.6202L44.7296 41.6202V41.6234V47.7641H44.7295L44.7296 47.7672C44.7298 47.7759 44.7282 47.7846 44.725 47.7926C44.7218 47.8006 44.717 47.8079 44.711 47.8139C44.7051 47.8199 44.698 47.8246 44.6903 47.8277C44.6826 47.8308 44.6744 47.8323 44.6662 47.8321ZM37.1583 47.5371V47.6871H37.3083H44.4464H44.5964V47.5371V41.8414V41.6914H44.4464H37.3083H37.1583V41.8414V47.5371Z" fill="black" stroke="black" stroke-width="0.3"/>
<path d="M50.1478 41.7735H57.4191V47.6142H50.1478V41.7735Z" fill="white" stroke="black" stroke-width="0.3"/>
<path d="M50.0644 47.5373V47.6873H50.2144H57.3525H57.5025V47.5373V41.8416V41.6916H57.3525H50.2144H50.0644V41.8416V47.5373ZM57.5691 47.8323H49.9978C49.9805 47.8323 49.9636 47.8254 49.9511 47.8127C49.9385 47.8 49.9312 47.7826 49.9312 47.7643V41.6236C49.9312 41.6052 49.9385 41.5878 49.9511 41.5751C49.9636 41.5624 49.9805 41.5555 49.9978 41.5555H57.5691C57.5864 41.5555 57.6032 41.5624 57.6158 41.5751C57.6284 41.5878 57.6356 41.6052 57.6356 41.6236V47.7643C57.6356 47.7826 57.6284 47.8 57.6158 47.8127C57.6032 47.8254 57.5864 47.8323 57.5691 47.8323Z" fill="black" stroke="black" stroke-width="0.3"/>
<path d="M63.4826 41.7735H70.7539V47.6142H63.4826V41.7735Z" fill="white" stroke="black" stroke-width="0.3"/>
<path d="M63.4036 47.5373V47.6873H63.5536H70.6917H70.8417V47.5373V41.8416V41.6916H70.6917H63.5536H63.4036V41.8416V47.5373ZM70.9083 47.8323H63.3326C63.3153 47.8323 63.2984 47.8254 63.2859 47.8127C63.2733 47.8 63.266 47.7826 63.266 47.7643V41.6236C63.266 41.6052 63.2733 41.5878 63.2859 41.5751C63.2984 41.5624 63.3153 41.5555 63.3326 41.5555H70.9083C70.9256 41.5555 70.9425 41.5624 70.955 41.5751C70.9676 41.5878 70.9749 41.6052 70.9749 41.6236V47.7643C70.9749 47.7826 70.9676 47.8 70.955 47.8127C70.9425 47.8254 70.9256 47.8323 70.9083 47.8323Z" fill="black" stroke="black" stroke-width="0.3"/>
<path d="M76.3887 41.7735H83.6599V47.6142H76.3887V41.7735Z" fill="white" stroke="black" stroke-width="0.3"/>
<path d="M76.3052 47.5373V47.6873H76.4552H83.5934H83.7434V47.5373V41.8416V41.6916H83.5934H76.4552H76.3052V41.8416V47.5373ZM83.8099 47.8323H76.2387C76.2213 47.8323 76.2045 47.8254 76.192 47.8127C76.1794 47.8 76.1721 47.7826 76.1721 47.7643V41.6236C76.1721 41.6052 76.1794 41.5878 76.192 41.5751C76.2045 41.5624 76.2213 41.5555 76.2387 41.5555H83.8099C83.8273 41.5555 83.8441 41.5624 83.8567 41.5751C83.8693 41.5878 83.8765 41.6052 83.8765 41.6236V47.7643C83.8765 47.7826 83.8693 47.8 83.8567 47.8127C83.8441 47.8254 83.8273 47.8323 83.8099 47.8323Z" fill="black" stroke="black" stroke-width="0.3"/>
<path d="M24.3401 54.9049H31.6113V60.7456H24.3401V54.9049Z" fill="white" stroke="black" stroke-width="0.3"/>
<path d="M24.1901 60.9681V60.9681L24.1869 60.9682C24.1786 60.9683 24.1704 60.9668 24.1627 60.9637C24.155 60.9606 24.148 60.9559 24.142 60.9499C24.136 60.9439 24.1313 60.9367 24.128 60.9286C24.1248 60.9206 24.1233 60.912 24.1234 60.9032L24.1235 60.9032V60.9001V54.755H24.1235L24.1234 54.7518C24.1233 54.7431 24.1248 54.7344 24.128 54.7264C24.1313 54.7184 24.136 54.7112 24.142 54.7051C24.148 54.6991 24.155 54.6944 24.1627 54.6913C24.1704 54.6882 24.1786 54.6867 24.1869 54.6869L24.1869 54.6869H24.1901H31.7613C31.7787 54.6869 31.7955 54.6938 31.808 54.7065C31.8206 54.7192 31.8279 54.7366 31.8279 54.755V60.9001C31.8279 60.9185 31.8206 60.9359 31.808 60.9486C31.7955 60.9612 31.7787 60.9681 31.7613 60.9681H24.1901ZM24.2478 60.6821V60.8321H24.3978H31.5448H31.6948V60.6821V54.973V54.823H31.5448H24.3978H24.2478V54.973V60.6821Z" fill="black" stroke="black" stroke-width="0.3"/>
<path d="M37.2417 54.9049H44.513V60.7456H37.2417V54.9049Z" fill="white" stroke="black" stroke-width="0.3"/>
<path d="M44.6662 60.9682L44.6662 60.9681H44.663H37.0917C37.0744 60.9681 37.0576 60.9612 37.045 60.9486C37.0324 60.9359 37.0251 60.9185 37.0251 60.9001V54.755C37.0251 54.7366 37.0324 54.7192 37.045 54.7065C37.0576 54.6938 37.0744 54.6869 37.0917 54.6869H44.663V54.6869L44.6662 54.6869C44.6744 54.6867 44.6826 54.6882 44.6903 54.6913C44.698 54.6944 44.7051 54.6991 44.711 54.7051C44.717 54.7112 44.7218 54.7184 44.725 54.7264C44.7282 54.7344 44.7298 54.7431 44.7296 54.7518L44.7296 54.7518V54.755V60.9001H44.7295L44.7296 60.9032C44.7298 60.912 44.7282 60.9206 44.725 60.9286C44.7218 60.9367 44.717 60.9439 44.711 60.9499C44.7051 60.9559 44.698 60.9606 44.6903 60.9637C44.6826 60.9668 44.6744 60.9683 44.6662 60.9682ZM37.1583 60.6732V60.8232H37.3083H44.4464H44.5964V60.6732V54.973V54.823H44.4464H37.3083H37.1583V54.973V60.6732Z" fill="black" stroke="black" stroke-width="0.3"/>
<path d="M50.1478 54.9049H57.4191V60.7456H50.1478V54.9049Z" fill="white" stroke="black" stroke-width="0.3"/>
<path d="M50.0644 60.6731V60.8231H50.2144H57.3525H57.5025V60.6731V54.9729V54.8229H57.3525H50.2144H50.0644V54.9729V60.6731ZM57.5691 60.9681H49.9978C49.9805 60.9681 49.9636 60.9612 49.9511 60.9485C49.9385 60.9358 49.9312 60.9184 49.9312 60.9V54.7549C49.9312 54.7365 49.9385 54.7191 49.9511 54.7064C49.9636 54.6938 49.9805 54.6869 49.9978 54.6869H57.5691C57.5864 54.6869 57.6032 54.6938 57.6158 54.7064C57.6284 54.7191 57.6356 54.7365 57.6356 54.7549V60.9C57.6356 60.9184 57.6284 60.9358 57.6158 60.9485C57.6032 60.9612 57.5864 60.9681 57.5691 60.9681Z" fill="black" stroke="black" stroke-width="0.3"/>
<path d="M63.4826 54.9049H70.7539V60.7456H63.4826V54.9049Z" fill="white" stroke="black" stroke-width="0.3"/>
<path d="M63.4036 60.6731V60.8231H63.5536H70.6917H70.8417V60.6731V54.9729V54.8229H70.6917H63.5536H63.4036V54.9729V60.6731ZM70.9083 60.9681H63.3326C63.3153 60.9681 63.2985 60.9612 63.2859 60.9485C63.2733 60.9358 63.266 60.9184 63.266 60.9V54.7549C63.266 54.7365 63.2733 54.7191 63.2859 54.7064C63.2984 54.6938 63.3153 54.6869 63.3326 54.6869H70.9083C70.9256 54.6869 70.9425 54.6938 70.955 54.7064C70.9676 54.7191 70.9749 54.7365 70.9749 54.7549V60.9C70.9749 60.9184 70.9676 60.9358 70.955 60.9485C70.9424 60.9612 70.9256 60.9681 70.9083 60.9681Z" fill="black" stroke="black" stroke-width="0.3"/>
<path d="M76.3887 54.9049H83.6599V60.7456H76.3887V54.9049Z" fill="white" stroke="black" stroke-width="0.3"/>
<path d="M76.3052 60.6731V60.8231H76.4552H83.5934H83.7434V60.6731V54.9729V54.8229H83.5934H76.4552H76.3052V54.9729V60.6731ZM83.8099 60.9681H76.2387C76.2213 60.9681 76.2045 60.9612 76.192 60.9485C76.1794 60.9358 76.1721 60.9184 76.1721 60.9V54.7549C76.1721 54.7365 76.1794 54.7191 76.192 54.7064C76.2045 54.6938 76.2213 54.6869 76.2387 54.6869H83.8099C83.8273 54.6869 83.8441 54.6938 83.8567 54.7064C83.8693 54.7191 83.8765 54.7365 83.8765 54.7549V60.9C83.8765 60.9184 83.8693 60.9358 83.8567 60.9485C83.8441 60.9612 83.8273 60.9681 83.8099 60.9681Z" fill="black" stroke="black" stroke-width="0.3"/>
<path d="M24.3401 68.0406H31.6113V73.8813H24.3401V68.0406Z" fill="white" stroke="black" stroke-width="0.3"/>
<path d="M24.1901 74.0994V74.0994L24.1869 74.0995C24.1786 74.0996 24.1704 74.0981 24.1627 74.095C24.155 74.0919 24.148 74.0872 24.142 74.0812C24.136 74.0752 24.1313 74.068 24.128 74.0599C24.1248 74.0519 24.1233 74.0432 24.1234 74.0345L24.1235 74.0345V74.0314V67.8907H24.1235L24.1234 67.8876C24.1233 67.8788 24.1248 67.8702 24.128 67.8622C24.1313 67.8541 24.136 67.8469 24.142 67.8409C24.148 67.8349 24.155 67.8302 24.1627 67.8271C24.1704 67.8239 24.1786 67.8224 24.1869 67.8226L24.1869 67.8227H24.1901H31.7613C31.7787 67.8227 31.7955 67.8296 31.808 67.8422C31.8206 67.8549 31.8279 67.8723 31.8279 67.8907V74.0314C31.8279 74.0498 31.8206 74.0672 31.808 74.0799C31.7955 74.0925 31.7787 74.0994 31.7613 74.0994H24.1901ZM24.2566 73.8047L24.2569 73.9545H24.4066H31.5448H31.6948V73.8045V68.1087V67.9587H31.5448H24.3978H24.2476L24.2478 68.109L24.2566 73.8047Z" fill="black" stroke="black" stroke-width="0.3"/>
<path d="M37.2417 68.0406H44.513V73.8813H37.2417V68.0406Z" fill="white" stroke="black" stroke-width="0.3"/>
<path d="M44.663 67.8227V67.8227L44.6662 67.8226C44.6744 67.8224 44.6826 67.8239 44.6903 67.8271C44.698 67.8302 44.7051 67.8349 44.711 67.8409C44.717 67.8469 44.7218 67.8541 44.725 67.8622C44.7282 67.8702 44.7298 67.8788 44.7296 67.8876L44.7296 67.8876V67.8907V74.0314H44.7295L44.7296 74.0345C44.7298 74.0433 44.7282 74.0519 44.725 74.0599C44.7218 74.068 44.717 74.0752 44.711 74.0812C44.7051 74.0872 44.698 74.0919 44.6903 74.095C44.6826 74.0981 44.6744 74.0996 44.6662 74.0995L44.663 74.2494V74.0994H37.0917C37.0744 74.0994 37.0576 74.0925 37.045 74.0799C37.0324 74.0672 37.0251 74.0498 37.0251 74.0314V67.8907C37.0251 67.8723 37.0324 67.8549 37.045 67.8422C37.0576 67.8296 37.0744 67.8227 37.0917 67.8227H44.663ZM37.1583 73.8045V73.9545H37.3083H44.4464H44.5964V73.8045V68.1087V67.9587H44.4464H37.3083H37.1583V68.1087V73.8045Z" fill="black" stroke="black" stroke-width="0.3"/>
<path d="M50.1478 68.0406H57.4191V73.8813H50.1478V68.0406Z" fill="white" stroke="black" stroke-width="0.3"/>
<path d="M50.0644 73.8044V73.9544H50.2144H57.3525H57.5025V73.8044V68.1087V67.9587H57.3525H50.2144H50.0644V68.1087V73.8044ZM57.5691 74.0994H49.9978C49.9805 74.0994 49.9636 74.0925 49.9511 74.0798C49.9385 74.0671 49.9312 74.0497 49.9312 74.0313V67.8906C49.9312 67.8723 49.9385 67.8549 49.9511 67.8422C49.9636 67.8295 49.9805 67.8226 49.9978 67.8226H57.5691C57.5864 67.8226 57.6032 67.8295 57.6158 67.8422C57.6284 67.8549 57.6356 67.8723 57.6356 67.8906V74.0313C57.6356 74.0497 57.6284 74.0671 57.6158 74.0798C57.6032 74.0925 57.5864 74.0994 57.5691 74.0994Z" fill="black" stroke="black" stroke-width="0.3"/>
<path d="M63.4826 68.0406H70.7539V73.8813H63.4826V68.0406Z" fill="white" stroke="black" stroke-width="0.3"/>
<path d="M70.9083 74.2494H63.3326C63.2752 74.2494 63.2201 74.2264 63.1795 74.1855C63.1388 74.1446 63.116 74.0892 63.116 74.0313V67.8906C63.116 67.8328 63.1388 67.7774 63.1795 67.7365C63.2201 67.6956 63.2752 67.6726 63.3326 67.6726H70.9083C70.9657 67.6726 71.0208 67.6956 71.0614 67.7365C71.1021 67.7774 71.1249 67.8328 71.1249 67.8906V74.0313C71.1249 74.0892 71.1021 74.1446 71.0614 74.1855C71.0208 74.2264 70.9657 74.2494 70.9083 74.2494Z" fill="#ACD4F7"/>
<path d="M76.3887 68.0406H83.6599V73.8813H76.3887V68.0406Z" fill="white" stroke="black" stroke-width="0.3"/>
<path d="M63.3931 73.8044V73.9544H63.5431H70.6813H70.8313V73.8044V68.1087V67.9587H70.6813H63.5431H63.3931V68.1087V73.8044ZM70.8978 74.0994H63.3266C63.3092 74.0994 63.2924 74.0925 63.2799 74.0798C63.2673 74.0671 63.26 74.0497 63.26 74.0313V67.8906C63.26 67.8723 63.2673 67.8549 63.2799 67.8422C63.2924 67.8295 63.3092 67.8226 63.3266 67.8226H70.8978C70.9152 67.8226 70.932 67.8295 70.9446 67.8422C70.9572 67.8549 70.9644 67.8723 70.9644 67.8906V74.0313C70.9644 74.0497 70.9572 74.0671 70.9446 74.0798C70.932 74.0925 70.9152 74.0994 70.8978 74.0994Z" fill="black" stroke="black" stroke-width="0.3"/>
<path d="M40.5893 46.5006L40.5893 46.5006L40.5875 46.4983C39.8295 45.5097 39.1333 44.4746 38.5029 43.3989L38.5033 43.3987L38.4969 43.3895C38.4916 43.3818 38.4879 43.3731 38.486 43.3638C38.4842 43.3545 38.4843 43.3449 38.4863 43.3357C38.4882 43.3264 38.4921 43.3177 38.4975 43.3102C38.5029 43.3026 38.5098 43.2963 38.5176 43.2916C38.5254 43.2869 38.5341 43.2839 38.543 43.2828C38.5519 43.2816 38.561 43.2823 38.5697 43.2849C38.5783 43.2874 38.5864 43.2918 38.5935 43.2977C38.6005 43.3036 38.6064 43.3109 38.6106 43.3193L38.6103 43.3195L38.6153 43.3281C39.1967 44.3212 39.8345 45.2798 40.5254 46.1992L40.6421 46.3544L40.7628 46.2023L43.2335 43.0874L43.2341 43.0867C43.2396 43.0796 43.2464 43.0738 43.254 43.0696C43.2616 43.0653 43.27 43.0626 43.2786 43.0616C43.2871 43.0606 43.2958 43.0613 43.3041 43.0637C43.3121 43.066 43.3196 43.0698 43.3263 43.0749C43.3401 43.0867 43.3491 43.1035 43.3513 43.1221C43.3534 43.1406 43.3485 43.1591 43.3377 43.1739L40.6872 46.4915L40.6872 46.4915L40.684 46.4957C40.6776 46.5043 40.6695 46.5113 40.6602 46.5162C40.6517 46.5207 40.6425 46.5234 40.6331 46.5241C40.6251 46.5238 40.6172 46.5218 40.6099 46.5181C40.6019 46.514 40.5948 46.5081 40.5893 46.5006Z" fill="black" stroke="black" stroke-width="0.3"/>
<path d="M53.4546 46.5006L53.4546 46.5006L53.4528 46.4983C52.6948 45.5097 51.9985 44.4746 51.3682 43.3989L51.3685 43.3987L51.3622 43.3895C51.3569 43.3818 51.3532 43.3731 51.3513 43.3638C51.3495 43.3545 51.3496 43.3449 51.3515 43.3357C51.3535 43.3264 51.3574 43.3177 51.3628 43.3102C51.3682 43.3026 51.3751 43.2963 51.3829 43.2916C51.3907 43.2869 51.3994 43.2839 51.4083 43.2828C51.4172 43.2816 51.4263 43.2823 51.435 43.2849C51.4436 43.2874 51.4517 43.2918 51.4588 43.2977C51.4658 43.3036 51.4717 43.3109 51.4759 43.3193L51.4756 43.3195L51.4806 43.3281C52.062 44.3212 52.6997 45.2798 53.3907 46.1992L53.5074 46.3544L53.6281 46.2023L56.0988 43.0874L56.0994 43.0867C56.1049 43.0796 56.1117 43.0738 56.1193 43.0696C56.1269 43.0653 56.1353 43.0626 56.1438 43.0616C56.1524 43.0606 56.1611 43.0613 56.1694 43.0637C56.1774 43.066 56.1849 43.0698 56.1916 43.0749C56.2054 43.0867 56.2144 43.1035 56.2166 43.1221C56.2187 43.1406 56.2137 43.1591 56.203 43.1739L53.5525 46.4915L53.5524 46.4915L53.5493 46.4957C53.5429 46.5043 53.5348 46.5113 53.5255 46.5162C53.517 46.5207 53.5078 46.5234 53.4984 46.5241C53.4904 46.5238 53.4825 46.5218 53.4752 46.5181C53.4671 46.514 53.4601 46.5081 53.4546 46.5006Z" fill="black" stroke="black" stroke-width="0.3"/>
<path d="M53.4546 59.5895L53.4546 59.5895L53.4528 59.5872C52.6948 58.5986 51.9985 57.5635 51.3682 56.4878L51.3685 56.4876L51.3622 56.4784C51.3569 56.4707 51.3532 56.462 51.3513 56.4527C51.3495 56.4434 51.3496 56.4338 51.3515 56.4245C51.3535 56.4153 51.3574 56.4066 51.3628 56.399C51.3682 56.3914 51.3751 56.3851 51.3829 56.3804C51.3907 56.3758 51.3994 56.3728 51.4083 56.3716C51.4172 56.3705 51.4263 56.3712 51.435 56.3737C51.4436 56.3763 51.4517 56.3806 51.4588 56.3865C51.4658 56.3924 51.4717 56.3998 51.4759 56.4082L51.4756 56.4083L51.4806 56.4169C52.062 57.4101 52.6997 58.3687 53.3907 59.288L53.5074 59.4433L53.6281 59.2911L56.0988 56.1763L56.0994 56.1755C56.1049 56.1685 56.1117 56.1627 56.1193 56.1584C56.1269 56.1541 56.1353 56.1514 56.1438 56.1504C56.1524 56.1494 56.1611 56.1502 56.1694 56.1525C56.1774 56.1548 56.1849 56.1586 56.1916 56.1638C56.2054 56.1756 56.2144 56.1924 56.2166 56.2109C56.2187 56.2295 56.2137 56.248 56.203 56.2627L53.5525 59.5804L53.5524 59.5803L53.5493 59.5845C53.5429 59.5932 53.5348 59.6001 53.5255 59.6051C53.517 59.6095 53.5078 59.6122 53.4984 59.613C53.4904 59.6127 53.4825 59.6106 53.4752 59.607C53.4671 59.6029 53.4601 59.597 53.4546 59.5895Z" fill="black" stroke="black" stroke-width="0.3"/>
<path d="M40.5546 72.5895L40.5546 72.5895L40.5528 72.5872C39.7948 71.5986 39.0986 70.5635 38.4682 69.4878L38.4685 69.4876L38.4622 69.4784C38.4569 69.4707 38.4532 69.462 38.4513 69.4527C38.4495 69.4434 38.4496 69.4338 38.4516 69.4245C38.4535 69.4153 38.4574 69.4066 38.4628 69.399C38.4682 69.3914 38.4751 69.3851 38.4829 69.3804C38.4907 69.3758 38.4994 69.3728 38.5083 69.3716C38.5172 69.3705 38.5263 69.3712 38.535 69.3737C38.5436 69.3763 38.5517 69.3806 38.5588 69.3865C38.5658 69.3924 38.5717 69.3998 38.5759 69.4082L38.5756 69.4083L38.5806 69.4169C39.162 70.4101 39.7998 71.3687 40.4907 72.288L40.6074 72.4433L40.7281 72.2911L43.1988 69.1763L43.1994 69.1755C43.2049 69.1685 43.2117 69.1627 43.2193 69.1584C43.2269 69.1541 43.2353 69.1514 43.2438 69.1504C43.2524 69.1494 43.2611 69.1502 43.2694 69.1525C43.2774 69.1548 43.2849 69.1586 43.2916 69.1638C43.3054 69.1756 43.3144 69.1924 43.3166 69.2109C43.3187 69.2295 43.3137 69.248 43.303 69.2627L40.6525 72.5804L40.6524 72.5803L40.6493 72.5845C40.6429 72.5932 40.6348 72.6001 40.6255 72.6051C40.617 72.6095 40.6078 72.6122 40.5984 72.613C40.5904 72.6127 40.5825 72.6106 40.5752 72.607C40.5671 72.6029 40.5601 72.597 40.5546 72.5895Z" fill="black" stroke="black" stroke-width="0.3"/>
<path d="M31.791 47.8321L31.791 47.8321H31.7878H24.2166C24.1992 47.8321 24.1824 47.8252 24.1699 47.8125C24.1573 47.7998 24.15 47.7824 24.15 47.7641V41.6234C24.15 41.605 24.1573 41.5876 24.1699 41.5749C24.1824 41.5622 24.1992 41.5553 24.2166 41.5553H31.7878V41.5554L31.791 41.5553C31.7993 41.5551 31.8075 41.5566 31.8152 41.5597C31.8229 41.5628 31.8299 41.5675 31.8359 41.5735C31.8419 41.5796 31.8466 41.5868 31.8499 41.5948C31.8531 41.6029 31.8546 41.6115 31.8545 41.6202L31.8544 41.6202V41.6234V47.7641H31.8544L31.8545 47.7672C31.8546 47.7759 31.8531 47.7846 31.8499 47.7926C31.8466 47.8006 31.8419 47.8079 31.8359 47.8139C31.8299 47.8199 31.8229 47.8246 31.8152 47.8277C31.8075 47.8308 31.7993 47.8323 31.791 47.8321ZM24.2831 47.5371V47.6871H24.4331H31.5713H31.7213V47.5371V41.8414V41.6914H31.5713H24.4331H24.2831V41.8414V47.5371Z" fill="black" stroke="black" stroke-width="0.3"/>
<path d="M27.7141 46.5004L27.7142 46.5004L27.7124 46.4981C26.9543 45.5095 26.2581 44.4744 25.6278 43.3987L25.6281 43.3985L25.6218 43.3893C25.6165 43.3816 25.6127 43.3728 25.6109 43.3636C25.6091 43.3543 25.6091 43.3447 25.6111 43.3354C25.6131 43.3262 25.617 43.3175 25.6224 43.3099C25.6278 43.3023 25.6347 43.296 25.6425 43.2913C25.6503 43.2866 25.659 43.2837 25.6679 43.2825C25.6768 43.2814 25.6859 43.2821 25.6945 43.2846C25.7032 43.2872 25.7113 43.2915 25.7184 43.2974C25.7254 43.3033 25.7312 43.3107 25.7354 43.3191L25.7351 43.3192L25.7402 43.3278C26.3216 44.321 26.9593 45.2796 27.6503 46.1989L27.767 46.3542L27.8877 46.202L30.3584 43.0872L30.359 43.0864C30.3645 43.0794 30.3713 43.0736 30.3789 43.0693C30.3865 43.065 30.3948 43.0623 30.4034 43.0613C30.412 43.0603 30.4207 43.061 30.429 43.0634C30.437 43.0657 30.4445 43.0695 30.4512 43.0747C30.4649 43.0865 30.474 43.1033 30.4761 43.1218C30.4783 43.1403 30.4733 43.1588 30.4625 43.1736L27.8121 46.4913L27.812 46.4912L27.8089 46.4954C27.8025 46.504 27.7943 46.511 27.785 46.5159C27.7766 46.5204 27.7674 46.5231 27.758 46.5239C27.7499 46.5235 27.742 46.5215 27.7348 46.5179C27.7267 46.5138 27.7196 46.5078 27.7141 46.5004Z" fill="black" stroke="black" stroke-width="0.3"/>
<path d="M27.7141 59.5895L27.7142 59.5895L27.7124 59.5872C26.9543 58.5986 26.2581 57.5635 25.6278 56.4878L25.6281 56.4876L25.6218 56.4784C25.6165 56.4707 25.6127 56.462 25.6109 56.4527C25.6091 56.4434 25.6091 56.4338 25.6111 56.4245C25.6131 56.4153 25.617 56.4066 25.6224 56.399C25.6278 56.3914 25.6347 56.3851 25.6425 56.3804C25.6503 56.3758 25.659 56.3728 25.6679 56.3716C25.6768 56.3705 25.6859 56.3712 25.6945 56.3737C25.7032 56.3763 25.7113 56.3806 25.7184 56.3865C25.7254 56.3924 25.7312 56.3998 25.7354 56.4082L25.7351 56.4083L25.7402 56.4169C26.3216 57.4101 26.9593 58.3687 27.6503 59.288L27.767 59.4433L27.8877 59.2911L30.3584 56.1763L30.359 56.1755C30.3645 56.1685 30.3713 56.1627 30.3789 56.1584C30.3865 56.1541 30.3948 56.1514 30.4034 56.1504C30.412 56.1494 30.4207 56.1502 30.429 56.1525C30.437 56.1548 30.4445 56.1586 30.4512 56.1638C30.4649 56.1756 30.474 56.1924 30.4761 56.2109C30.4783 56.2295 30.4733 56.248 30.4625 56.2627L27.8121 59.5804L27.812 59.5803L27.8089 59.5845C27.8025 59.5932 27.7943 59.6001 27.785 59.6051C27.7766 59.6095 27.7674 59.6122 27.758 59.613C27.7499 59.6127 27.742 59.6106 27.7348 59.607C27.7267 59.6029 27.7196 59.597 27.7141 59.5895Z" fill="black" stroke="black" stroke-width="0.3"/>
<path d="M65.2287 56.2945C65.2057 56.3117 65.1862 56.3332 65.1715 56.358C65.1567 56.3827 65.147 56.4102 65.1429 56.4388C65.1388 56.4673 65.1404 56.4964 65.1475 56.5244C65.1547 56.5523 65.1672 56.5785 65.1845 56.6016C65.8033 57.447 66.4044 58.3503 66.9525 59.2714C66.9716 59.3039 66.9988 59.3308 67.0313 59.3495C67.0638 59.3682 67.1006 59.3781 67.1381 59.3782L65.2287 56.2945ZM65.2287 56.2945C65.2515 56.2775 65.2774 56.2652 65.305 56.2584M65.2287 56.2945L65.305 56.2584M65.305 56.2584C65.3326 56.2516 65.3613 56.2504 65.3893 56.255M65.305 56.2584L65.3893 56.255M65.3893 56.255C65.4173 56.2596 65.4441 56.2698 65.4682 56.285M65.3893 56.255L65.4682 56.285M65.4682 56.285C65.4922 56.3001 65.513 56.3201 65.5293 56.3435L65.4682 56.285ZM67.204 59.2243C67.2033 59.2257 67.2025 59.2271 67.2016 59.2284L67.1386 59.2282C67.1272 59.2282 67.1161 59.2252 67.1061 59.2195C67.0961 59.2137 67.0877 59.2054 67.0817 59.1953L67.0814 59.1947C66.5308 58.2693 65.927 57.3621 65.3056 56.513L65.3056 56.513L65.3045 56.5115C65.2991 56.5043 65.2951 56.496 65.2928 56.4872C65.2906 56.4784 65.2901 56.4692 65.2914 56.4601C65.2927 56.4511 65.2958 56.4424 65.3004 56.4347C65.305 56.4269 65.311 56.4202 65.3181 56.415L65.3181 56.415L65.3187 56.4146C65.3254 56.4096 65.3329 56.406 65.3409 56.404C65.3488 56.4021 65.3571 56.4017 65.3652 56.4031C65.3733 56.4044 65.381 56.4073 65.3881 56.4118C65.3951 56.4162 65.4012 56.4221 65.4061 56.429L65.406 56.4291L65.4087 56.4328C65.9763 57.199 66.5174 58.0007 67.0145 58.8156L67.1495 59.0369L67.2741 58.8096C67.8338 57.7884 68.5113 56.8374 69.2924 55.9761C69.3047 55.9648 69.3206 55.9586 69.337 55.9586C69.3542 55.9586 69.371 55.9654 69.3835 55.978L69.3835 55.978L69.3848 55.9793C69.3909 55.9852 69.3958 55.9922 69.3991 56.0002C69.4024 56.0081 69.4042 56.0166 69.4042 56.0253C69.4042 56.034 69.4024 56.0426 69.3991 56.0505C69.3958 56.0584 69.3909 56.0655 69.3848 56.0714L69.3846 56.0712L69.3783 56.0782C68.5199 57.0266 67.789 58.0844 67.204 59.2243Z" fill="black" stroke="black" stroke-width="0.3"/>
<path d="M65.2287 43.4859C65.2057 43.5031 65.1862 43.5246 65.1715 43.5494C65.1567 43.5741 65.147 43.6016 65.1429 43.6302C65.1388 43.6587 65.1404 43.6878 65.1475 43.7158C65.1547 43.7437 65.1672 43.77 65.1845 43.793C65.8033 44.6384 66.4044 45.5417 66.9525 46.4628C66.9716 46.4953 66.9988 46.5222 67.0313 46.5409C67.0638 46.5596 67.1006 46.5695 67.1381 46.5696L65.2287 43.4859ZM65.2287 43.4859C65.2515 43.4689 65.2774 43.4566 65.305 43.4498M65.2287 43.4859L65.305 43.4498M65.305 43.4498C65.3326 43.443 65.3613 43.4419 65.3893 43.4464M65.305 43.4498L65.3893 43.4464M65.3893 43.4464C65.4173 43.451 65.4441 43.4612 65.4682 43.4764M65.3893 43.4464L65.4682 43.4764M65.4682 43.4764C65.4922 43.4916 65.513 43.5115 65.5293 43.5349L65.4682 43.4764ZM67.204 46.4157C67.2033 46.4171 67.2025 46.4185 67.2016 46.4198L67.1386 46.4196C67.1272 46.4196 67.1161 46.4166 67.1061 46.4109C67.0961 46.4052 67.0877 46.3968 67.0817 46.3867L67.0814 46.3861C66.5308 45.4607 65.927 44.5535 65.3056 43.7044L65.3056 43.7044L65.3045 43.7029C65.2991 43.6957 65.2951 43.6875 65.2928 43.6786C65.2906 43.6698 65.2901 43.6606 65.2914 43.6515C65.2927 43.6425 65.2958 43.6338 65.3004 43.6261C65.305 43.6183 65.311 43.6116 65.3181 43.6064L65.3181 43.6064L65.3187 43.606C65.3254 43.601 65.3329 43.5974 65.3409 43.5954C65.3488 43.5935 65.3571 43.5932 65.3652 43.5945C65.3733 43.5958 65.381 43.5987 65.3881 43.6032C65.3951 43.6076 65.4012 43.6135 65.4061 43.6204L65.406 43.6205L65.4087 43.6242C65.9763 44.3905 66.5174 45.1921 67.0145 46.007L67.1495 46.2283L67.2741 46.001C67.8338 44.9798 68.5113 44.0288 69.2924 43.1675C69.3047 43.1562 69.3206 43.15 69.337 43.15C69.3542 43.15 69.371 43.1568 69.3835 43.1694L69.3835 43.1694L69.3848 43.1707C69.3909 43.1766 69.3958 43.1837 69.3991 43.1916C69.4024 43.1995 69.4042 43.208 69.4042 43.2167C69.4042 43.2254 69.4024 43.234 69.3991 43.2419C69.3958 43.2498 69.3909 43.2569 69.3848 43.2628L69.3846 43.2626L69.3783 43.2696C68.5199 44.218 67.789 45.2758 67.204 46.4157Z" fill="black" stroke="black" stroke-width="0.3"/>
<path d="M39.088 56.4859C39.065 56.5031 39.0455 56.5246 39.0308 56.5494C39.0161 56.5741 39.0064 56.6016 39.0022 56.6302C38.9981 56.6587 38.9997 56.6878 39.0068 56.7158C39.014 56.7437 39.0266 56.77 39.0439 56.793C39.6626 57.6384 40.2637 58.5417 40.8118 59.4628C40.8309 59.4953 40.8581 59.5222 40.8906 59.5409C40.9232 59.5596 40.96 59.5695 40.9974 59.5696L39.088 56.4859ZM39.088 56.4859C39.1108 56.4689 39.1368 56.4566 39.1643 56.4498M39.088 56.4859L39.1643 56.4498M39.1643 56.4498C39.1919 56.443 39.2206 56.4419 39.2486 56.4464M39.1643 56.4498L39.2486 56.4464M39.2486 56.4464C39.2766 56.451 39.3035 56.4612 39.3275 56.4764M39.2486 56.4464L39.3275 56.4764M39.3275 56.4764C39.3516 56.4916 39.3723 56.5115 39.3886 56.5349L39.3275 56.4764ZM41.0634 59.4157C41.0626 59.4171 41.0618 59.4185 41.0609 59.4198L40.9979 59.4196C40.9866 59.4196 40.9754 59.4166 40.9654 59.4109C40.9555 59.4052 40.947 59.3968 40.941 59.3867L40.9407 59.3861C40.3901 58.4607 39.7863 57.5535 39.1649 56.7044L39.1649 56.7044L39.1638 56.7029C39.1584 56.6957 39.1544 56.6875 39.1522 56.6786C39.1499 56.6698 39.1494 56.6606 39.1507 56.6515C39.152 56.6425 39.1551 56.6338 39.1597 56.6261C39.1643 56.6183 39.1704 56.6116 39.1775 56.6064L39.1775 56.6064L39.178 56.606C39.1847 56.601 39.1922 56.5974 39.2002 56.5954C39.2082 56.5935 39.2164 56.5932 39.2245 56.5945C39.2326 56.5958 39.2404 56.5987 39.2474 56.6032C39.2544 56.6076 39.2605 56.6135 39.2654 56.6204L39.2653 56.6205L39.2681 56.6242C39.8356 57.3905 40.3768 58.1921 40.8738 59.007L41.0088 59.2283L41.1334 59.001C41.6932 57.9798 42.3706 57.0288 43.1517 56.1675C43.164 56.1562 43.18 56.15 43.1963 56.15C43.2136 56.15 43.2303 56.1568 43.2429 56.1694L43.2428 56.1694L43.2442 56.1707C43.2502 56.1766 43.2551 56.1837 43.2584 56.1916C43.2617 56.1995 43.2635 56.208 43.2635 56.2167C43.2635 56.2254 43.2617 56.234 43.2584 56.2419C43.2551 56.2498 43.2502 56.2569 43.2442 56.2628L43.244 56.2626L43.2376 56.2696C42.3793 57.218 41.6483 58.2758 41.0634 59.4157Z" fill="black" stroke="black" stroke-width="0.3"/>
<path d="M53.3607 72.7999L53.3613 72.7999L53.3759 72.7999C53.3872 72.7993 53.3981 72.7955 53.4075 72.7889C53.4174 72.7819 53.4252 72.7722 53.4299 72.7606L53.4304 72.7593L53.4304 72.7593C53.9439 71.5139 54.6468 70.3566 55.5141 69.329L55.5143 69.3287C55.5202 69.3218 55.5246 69.3138 55.5275 69.305C55.5303 69.2963 55.5314 69.287 55.5307 69.2778C55.5299 69.2686 55.5274 69.2596 55.5233 69.2514C55.5191 69.2433 55.5135 69.2361 55.5067 69.2302C55.4999 69.2244 55.492 69.22 55.4837 69.2173C55.4753 69.2145 55.4665 69.2135 55.4577 69.2142C55.449 69.2149 55.4404 69.2173 55.4325 69.2214L53.3607 72.7999ZM53.3607 72.7999C53.3485 72.8 53.3365 72.7966 53.3259 72.7901C53.3155 72.7837 53.3069 72.7744 53.3013 72.7632L51.8209 69.738L51.8209 69.738L51.8205 69.7372C51.8123 69.7207 51.811 69.7016 51.8168 69.684C51.8226 69.6664 51.835 69.6522 51.8509 69.6442C51.8667 69.6363 51.885 69.635 51.9017 69.6406C51.9184 69.6462 51.9325 69.6583 51.9407 69.6746C51.9407 69.6747 51.9408 69.6748 51.9408 69.6749L53.2178 72.2817L53.3578 72.5675L53.4891 72.2776C53.9868 71.1795 54.6339 70.1564 55.4117 69.2379L53.3607 72.7999Z" fill="black" stroke="black" stroke-width="0.3"/>
<path d="M27.6974 72.7999L27.6981 72.7999L27.7127 72.7999C27.7239 72.7993 27.7349 72.7955 27.7443 72.7889C27.7542 72.7819 27.762 72.7722 27.7666 72.7606L27.7671 72.7593L27.7672 72.7593C28.2806 71.5139 28.9836 70.3566 29.8509 69.329L29.8511 69.3287C29.8569 69.3218 29.8614 69.3138 29.8642 69.305C29.8671 69.2963 29.8681 69.287 29.8674 69.2778C29.8667 69.2686 29.8642 69.2596 29.86 69.2514C29.8559 69.2433 29.8502 69.2361 29.8434 69.2302C29.8366 69.2244 29.8288 69.22 29.8204 69.2173C29.812 69.2145 29.8032 69.2135 29.7945 69.2142C29.7857 69.2149 29.7772 69.2173 29.7693 69.2214L27.6974 72.7999ZM27.6974 72.7999C27.6852 72.8 27.6732 72.7966 27.6627 72.7901C27.6523 72.7837 27.6437 72.7744 27.638 72.7632L26.1577 69.738L26.1577 69.738L26.1573 69.7372C26.1491 69.7207 26.1477 69.7016 26.1536 69.684C26.1594 69.6664 26.1718 69.6522 26.1876 69.6442C26.2035 69.6363 26.2217 69.635 26.2385 69.6406C26.2551 69.6462 26.2692 69.6583 26.2774 69.6746C26.2775 69.6747 26.2775 69.6748 26.2776 69.6749L27.5545 72.2817L27.6945 72.5675L27.8259 72.2776C28.3236 71.1795 28.9706 70.1564 29.7484 69.2379L27.6974 72.7999Z" fill="black" stroke="black" stroke-width="0.3"/>
<path d="M79.6974 59.736L79.6981 59.736L79.7127 59.736C79.7239 59.7353 79.7349 59.7315 79.7443 59.7249C79.7542 59.718 79.762 59.7082 79.7666 59.6966L79.7671 59.6953L79.7672 59.6953C80.2806 58.4499 80.9836 57.2926 81.8509 56.265L81.8511 56.2648C81.8569 56.2579 81.8614 56.2498 81.8642 56.241C81.8671 56.2323 81.8681 56.223 81.8674 56.2138C81.8667 56.2046 81.8642 56.1956 81.86 56.1875C81.8559 56.1793 81.8502 56.1721 81.8434 56.1663C81.8366 56.1604 81.8288 56.156 81.8204 56.1533C81.812 56.1506 81.8032 56.1495 81.7945 56.1502C81.7857 56.1509 81.7772 56.1533 81.7693 56.1574L79.6974 59.736ZM79.6974 59.736C79.6852 59.736 79.6732 59.7327 79.6627 59.7262C79.6523 59.7197 79.6437 59.7104 79.638 59.6992L78.1577 56.6741L78.1577 56.6741L78.1573 56.6733C78.1491 56.6568 78.1477 56.6376 78.1536 56.62C78.1594 56.6025 78.1718 56.5883 78.1876 56.5803C78.2035 56.5723 78.2217 56.571 78.2385 56.5766C78.2551 56.5822 78.2692 56.5943 78.2774 56.6107C78.2775 56.6107 78.2775 56.6108 78.2776 56.6109L79.5545 59.2178L79.6945 59.5035L79.8259 59.2137C80.3236 58.1155 80.9706 57.0925 81.7484 56.174L79.6974 59.736Z" fill="black" stroke="black" stroke-width="0.3"/>
<path d="M79.6974 46.4359L79.6981 46.4359L79.7127 46.4359C79.7239 46.4353 79.7349 46.4315 79.7443 46.4249C79.7542 46.4179 79.762 46.4081 79.7666 46.3966L79.7671 46.3953L79.7672 46.3953C80.2806 45.1499 80.9836 43.9926 81.8509 42.965L81.8511 42.9647C81.8569 42.9578 81.8614 42.9498 81.8642 42.941C81.8671 42.9322 81.8681 42.923 81.8674 42.9138C81.8667 42.9045 81.8642 42.8956 81.86 42.8874C81.8559 42.8793 81.8502 42.8721 81.8434 42.8662C81.8366 42.8604 81.8288 42.856 81.8204 42.8532C81.812 42.8505 81.8032 42.8495 81.7945 42.8502C81.7857 42.8509 81.7772 42.8533 81.7693 42.8573L79.6974 46.4359ZM79.6974 46.4359C79.6852 46.436 79.6732 46.4326 79.6627 46.4261C79.6523 46.4197 79.6437 46.4104 79.638 46.3992L78.1577 43.374L78.1577 43.374L78.1573 43.3732C78.1491 43.3567 78.1477 43.3375 78.1536 43.32C78.1594 43.3024 78.1718 43.2882 78.1876 43.2802C78.2035 43.2723 78.2217 43.271 78.2385 43.2766C78.2551 43.2822 78.2692 43.2943 78.2774 43.3106C78.2775 43.3107 78.2775 43.3108 78.2776 43.3109L79.5545 45.9177L79.6945 46.2035L79.8259 45.9136C80.3236 44.8155 80.9706 43.7924 81.7484 42.8739L79.6974 46.4359Z" fill="black" stroke="black" stroke-width="0.3"/>
<path d="M83.7923 74.2494H76.2166C76.1591 74.2494 76.104 74.2264 76.0634 74.1855C76.0228 74.1446 76 74.0892 76 74.0313V67.8906C76 67.8328 76.0228 67.7774 76.0634 67.7365C76.104 67.6956 76.1591 67.6726 76.2166 67.6726H83.7923C83.8497 67.6726 83.9048 67.6956 83.9454 67.7365C83.986 67.7774 84.0088 67.8328 84.0088 67.8906V74.0313C84.0088 74.0892 83.986 74.1446 83.9454 74.1855C83.9048 74.2264 83.8497 74.2494 83.7923 74.2494Z" fill="#ACD4F7"/>
<path d="M76.3052 73.8044V73.9544H76.4552H83.5934H83.7434V73.8044V68.1087V67.9587H83.5934H76.4552H76.3052V68.1087V73.8044ZM83.8099 74.0994H76.2387C76.2213 74.0994 76.2045 74.0925 76.192 74.0798C76.1794 74.0671 76.1721 74.0497 76.1721 74.0313V67.8906C76.1721 67.8723 76.1794 67.8549 76.192 67.8422C76.2045 67.8295 76.2213 67.8226 76.2387 67.8226H83.8099C83.8273 67.8226 83.8441 67.8295 83.8567 67.8422C83.8693 67.8549 83.8765 67.8723 83.8765 67.8906V74.0313C83.8765 74.0497 83.8693 74.0671 83.8567 74.0798C83.8441 74.0925 83.8273 74.0994 83.8099 74.0994Z" fill="black" stroke="black" stroke-width="0.3"/>
</g>
<defs>
<clipPath id="clip0_3_711">
<rect width="76" height="63" fill="white" transform="translate(16 22)"/>
</clipPath>
<clipPath id="clip1_3_711">
<rect width="76" height="63" fill="white" transform="translate(16 22)"/>
</clipPath>
</defs>
</svg>
