<svg width="108" height="108" viewBox="0 0 108 108" fill="none" xmlns="http://www.w3.org/2000/svg">
<g clip-path="url(#clip0_3_576)">
<path d="M83.7278 39.1737L80.8945 37.1429C76.2581 33.8093 71.6306 30.4577 66.9854 27.133L62.3579 23.8353C64.9159 17.0512 74.3485 13.8973 81.9781 19.3425C87.5648 23.3321 90.3093 33.6745 83.7278 39.1737Z" fill="white"/>
<path d="M83.7278 39.614C83.6359 39.6136 83.5462 39.5854 83.4702 39.5331L82.2267 38.6346L80.6457 37.4934L76.6755 34.636L66.7278 27.4475C65.4606 26.531 64.1846 25.6325 62.8997 24.7519L62.1092 24.1858C62.0292 24.1313 61.9698 24.051 61.9408 23.9579C61.9118 23.8649 61.9148 23.7647 61.9493 23.6736C62.6167 21.9968 63.657 20.498 64.9893 19.2934C66.3217 18.0889 67.9103 17.211 69.6322 16.7277C71.7344 16.0954 73.9523 15.9611 76.1141 16.3351C78.2759 16.7091 80.3236 17.5815 82.0986 18.8846C83.8736 20.1878 85.3284 21.8868 86.3502 23.85C87.372 25.8133 87.9335 27.9881 87.9911 30.2061C88.0971 31.9671 87.7912 33.7285 87.0983 35.3475C86.4054 36.9665 85.345 38.3974 84.0031 39.5242C83.9235 39.5838 83.8268 39.6153 83.7278 39.614ZM62.8908 23.6736L63.4059 24.042C64.6849 24.9525 65.961 25.8511 67.234 26.7377L77.1818 33.9261L81.152 36.7836L82.733 37.9247L83.7011 38.6166C84.8629 37.5716 85.7745 36.273 86.3669 34.819C86.9593 33.365 87.2171 31.7937 87.1207 30.2241C87.035 28.1786 86.508 26.1768 85.5767 24.3591C84.6453 22.5414 83.3322 20.9519 81.7293 19.702C80.0497 18.4518 78.1081 17.6095 76.055 17.2402C74.002 16.8709 71.8924 16.9846 69.8897 17.5724C68.351 18.0053 66.9258 18.7766 65.7159 19.8313C64.506 20.886 63.5413 22.198 62.8908 23.6736V23.6736Z" fill="black"/>
<path d="M24.2811 39.1737L27.1055 37.1429C31.7419 33.8093 36.3783 30.4577 41.0235 27.133C42.5571 26.0248 44.0996 24.9256 45.651 23.8353C43.093 17.0512 33.6515 13.8973 26.0219 19.3425C20.4352 23.3321 17.6907 33.6745 24.2811 39.1737Z" fill="white"/>
<path d="M24.2811 39.614C24.1783 39.6127 24.0787 39.5781 23.9969 39.5152C22.6534 38.3893 21.5913 36.9588 20.8968 35.3398C20.2023 33.7207 19.8951 31.9588 20 30.1971C20.0808 28.0119 20.6406 25.8722 21.6391 23.9328C22.6376 21.9933 24.0497 20.3027 25.7733 18.9831C27.5613 17.6558 29.627 16.7621 31.8108 16.371C33.9946 15.98 36.2381 16.102 38.3678 16.7277C40.0911 17.2106 41.681 18.0894 43.0136 19.2958C44.3462 20.5021 45.3855 22.0033 46.0507 23.6826C46.0861 23.7727 46.0905 23.8722 46.0631 23.9652C46.0357 24.0581 45.9781 24.139 45.8997 24.1947L45.1003 24.7608C43.8213 25.6714 42.5453 26.5699 41.2722 27.4565L31.3245 34.645L27.3631 37.5024L25.7733 38.6436L24.5298 39.5421C24.4565 39.5921 24.3694 39.6173 24.2811 39.614V39.614ZM34.3976 17.0063C31.4811 17.0335 28.6447 17.9753 26.2795 19.702C24.6758 20.951 23.362 22.5404 22.4306 24.3582C21.4991 26.1761 20.9727 28.1783 20.8882 30.2241C20.7944 31.7934 21.0534 33.3639 21.6456 34.8175C22.2379 36.271 23.1481 37.5699 24.3077 38.6166L25.2847 37.9247L26.8657 36.7835L30.8182 33.9711L40.7659 26.7826L44.6029 24.0869L45.1181 23.7185C44.4728 22.2345 43.5105 20.9137 42.3003 19.851C41.0901 18.7882 39.6621 18.0101 38.1191 17.5724C36.9133 17.1975 35.659 17.0067 34.3976 17.0063V17.0063Z" fill="black"/>
<path d="M35.5611 78.0005C34.436 81.5988 33.5984 85.2828 33.0564 89.0168C32.9143 90.0412 33.0564 91.4699 34.1045 91.5597C34.7795 91.6136 35.2946 90.9667 35.6677 90.3916C37.6217 87.3545 39.4751 84.2515 41.2278 81.0825C41.3493 80.904 41.4029 80.687 41.3788 80.4715C41.3386 80.3727 41.2794 80.2829 41.2047 80.2073C41.13 80.1317 41.0413 80.0719 40.9435 80.0312C39.3193 78.9611 37.4813 78.2677 35.5611 78.0005V78.0005Z" fill="white"/>
<path d="M34.2111 92.0001H34.0867C33.8927 91.9864 33.7037 91.9313 33.5322 91.8384C33.3607 91.7455 33.2107 91.6168 33.0919 91.461C32.6485 90.7107 32.4907 89.8226 32.6478 88.963C33.1871 85.1952 34.0277 81.478 35.1614 77.8478C35.192 77.7497 35.2563 77.6659 35.3426 77.6116C35.4289 77.5572 35.5316 77.5358 35.6322 77.5513C37.6139 77.8323 39.5096 78.5534 41.1834 79.6629C41.477 79.8028 41.7038 80.0549 41.814 80.3638C41.8659 80.6764 41.7993 80.9973 41.6275 81.2623C39.8511 84.4253 38.0036 87.5522 36.0496 90.5984C35.7832 91.0117 35.1525 92.0001 34.2111 92.0001ZM35.8809 78.4678C34.8162 81.9367 34.0233 85.485 33.5094 89.0798C33.3853 89.6919 33.4797 90.3286 33.7758 90.8769C33.82 90.939 33.877 90.9905 33.9431 91.0278C34.0091 91.0651 34.0824 91.0872 34.1578 91.0926C34.6196 91.0926 35.046 90.5534 35.3213 90.1221C37.2664 87.103 39.1316 83.985 40.8636 80.84C40.9198 80.7558 40.9591 80.6611 40.9791 80.5615C40.909 80.4915 40.828 80.4338 40.7393 80.3908C39.2625 79.4161 37.6023 78.7614 35.8631 78.4678H35.8809Z" fill="black"/>
<path d="M70.627 78.0005C71.7548 81.6067 72.5895 85.3001 73.1228 89.0438C73.2738 90.0681 73.1228 91.4968 72.0836 91.5867C71.3997 91.6406 70.8934 90.9936 70.5204 90.4186C68.5545 87.3814 66.7012 84.2784 64.9603 81.1095C64.879 81.0269 64.8217 80.9233 64.7945 80.81C64.7673 80.6967 64.7714 80.578 64.8062 80.4669C64.8409 80.3558 64.9052 80.2564 64.9918 80.1796C65.0785 80.1028 65.1844 80.0515 65.2978 80.0312C66.9062 78.9685 68.7253 78.2753 70.627 78.0005V78.0005Z" fill="white"/>
<path d="M72.0125 92.0001C71.0533 92.0001 70.4138 91.0116 70.174 90.6343C68.2111 87.5971 66.337 84.4612 64.5961 81.2982C64.4203 81.0348 64.3505 80.7134 64.4007 80.3997C64.5171 80.0917 64.7461 79.8408 65.0402 79.6988C66.72 78.5671 68.6289 77.8302 70.627 77.5423C70.7275 77.5268 70.8302 77.5482 70.9165 77.6025C71.0028 77.6569 71.0671 77.7407 71.0977 77.8388C72.2272 81.4701 73.0678 85.187 73.6113 88.954C73.7684 89.8135 73.6106 90.7016 73.1672 91.4519C73.0484 91.6078 72.8984 91.7364 72.7269 91.8294C72.5554 91.9223 72.3665 91.9774 72.1724 91.9911L72.0125 92.0001ZM70.3427 78.4678C68.6045 78.7703 66.9472 79.4342 65.4754 80.4177C65.3873 80.4572 65.3085 80.5154 65.2445 80.5884C65.2445 80.5884 65.2445 80.6872 65.36 80.8669C67.1364 84.0119 68.9127 87.1568 70.9023 90.149C71.1776 90.5803 71.604 91.1464 72.0658 91.1195C72.1411 91.1135 72.2142 91.0911 72.2801 91.0539C72.346 91.0167 72.4032 90.9655 72.4477 90.9038C72.7438 90.3555 72.8382 89.7188 72.7142 89.1067C72.1974 85.5036 71.4045 81.9466 70.3427 78.4678V78.4678Z" fill="black"/>
<path d="M53.6447 85.3957C69.7588 85.3957 82.8218 72.3894 82.8218 56.3453C82.8218 40.3012 69.7588 27.2949 53.6447 27.2949C37.5306 27.2949 24.4676 40.3012 24.4676 56.3453C24.4676 72.3894 37.5306 85.3957 53.6447 85.3957Z" fill="white"/>
<path d="M53.6447 85.8268C37.3109 85.8268 24.0235 72.609 24.0235 56.3452C24.0235 40.0813 37.3464 26.8545 53.6447 26.8545C69.943 26.8545 83.257 40.0813 83.257 56.3452C83.257 72.609 69.9697 85.8268 53.6447 85.8268ZM53.6447 27.7351C37.7638 27.7351 24.8939 40.5665 24.8939 56.3452C24.8939 72.1238 37.7638 84.9462 53.6447 84.9462C69.5256 84.9462 82.3866 72.1148 82.3866 56.3452C82.3866 40.5755 69.4901 27.7351 53.6447 27.7351V27.7351Z" fill="black"/>
<path d="M53.6447 81.5048C67.6005 81.5048 78.9138 70.2404 78.9138 56.3452C78.9138 42.4499 67.6005 31.1855 53.6447 31.1855C39.689 31.1855 28.3757 42.4499 28.3757 56.3452C28.3757 70.2404 39.689 81.5048 53.6447 81.5048Z" fill="white"/>
<path d="M53.6447 81.9452C46.8814 81.9931 40.3756 79.3245 35.5549 74.525C30.7342 69.7256 27.9926 63.1874 27.9316 56.3453C27.9926 49.4953 30.7403 42.9502 35.5706 38.1495C40.4009 33.3488 46.9182 30.6855 53.6892 30.7454C60.4433 30.7118 66.9355 33.3867 71.7446 38.1846C76.5537 42.9825 79.288 49.5125 79.349 56.3453C79.288 63.1859 76.5476 69.7227 71.7289 74.5219C66.9101 79.321 60.4065 81.9907 53.6447 81.9452V81.9452ZM53.6447 31.626C47.1084 31.5733 40.8184 34.1467 36.1557 38.7812C31.493 43.4158 28.8387 49.7327 28.7754 56.3453C28.8387 62.9578 31.493 69.2748 36.1557 73.9093C40.8184 78.5439 47.1084 81.1173 53.6447 81.0646C60.1818 81.1197 66.4731 78.547 71.1363 73.912C75.7995 69.2769 78.4532 62.9586 78.5141 56.3453C78.4532 49.732 75.7995 43.4136 71.1363 38.7786C66.4731 34.1435 60.1818 31.5709 53.6447 31.626V31.626Z" fill="black"/>
<path d="M53.3161 61.9523L64.6139 51.538L68.5752 44.7988L61.5941 48.7705L51.0157 59.7239L53.3161 61.9523Z" fill="#ACD4F7"/>
<path d="M53.3161 62.3925C53.2045 62.3933 53.0967 62.3516 53.0141 62.2757L50.7137 60.0293C50.6308 59.9458 50.5831 59.8331 50.5804 59.7148C50.5816 59.5979 50.6259 59.4857 50.7048 59.4003L61.2832 48.4648L61.3809 48.384L68.3621 44.4123C68.4455 44.3659 68.5414 44.3478 68.6358 44.3608C68.7302 44.3737 68.8179 44.417 68.8861 44.4842C68.9559 44.5533 69.0002 44.6445 69.0115 44.7427C69.0228 44.8408 69.0005 44.9399 68.9483 45.0234L64.9869 51.7625L64.907 51.8704L53.6092 62.2757C53.5704 62.3138 53.5245 62.3437 53.4742 62.3638C53.4239 62.3838 53.3701 62.3936 53.3161 62.3925V62.3925ZM51.6374 59.6968L53.325 61.3412L64.2675 51.2593L67.3673 45.9938L61.8605 49.1208L51.6374 59.6968Z" fill="black"/>
<g opacity="0.13">
<path d="M54.8438 55.8061C54.8438 55.978 54.8957 56.1458 54.9925 56.2871C55.0894 56.4284 55.2265 56.5365 55.3856 56.5968V56.6508C55.6965 57.118 55.6077 57.4325 55.9718 58.1873C56.0827 58.3437 56.2439 58.456 56.4279 58.505C56.6118 58.554 56.8069 58.5365 56.9795 58.4556C57.152 58.3747 57.2913 58.2354 57.3733 58.0618C57.4552 57.8881 57.4747 57.691 57.4285 57.5044C57.2796 56.7251 56.9509 55.9923 56.4692 55.3658C55.9452 54.7818 54.9149 54.8626 54.8438 55.8061Z" fill="black"/>
</g>
<path d="M53.4937 59.4362C53.4334 59.4364 53.3737 59.4238 53.3186 59.399C53.2635 59.3742 53.2142 59.3379 53.174 59.2924L37.5862 42.6691C37.5061 42.5845 37.4625 42.4712 37.465 42.354C37.4675 42.2369 37.5159 42.1256 37.5995 42.0446C37.6831 41.9636 37.7952 41.9195 37.9109 41.922C38.0267 41.9245 38.1367 41.9735 38.2168 42.0581L53.8046 58.6904C53.8854 58.7728 53.9307 58.8842 53.9307 59.0004C53.9307 59.1165 53.8854 59.2279 53.8046 59.3104C53.7206 59.3909 53.6094 59.4359 53.4937 59.4362V59.4362Z" fill="black"/>
<path d="M53.1562 55.905C52.5308 55.9726 51.9406 56.2316 51.4645 56.6474C50.9884 57.0633 50.649 57.6162 50.4917 58.2323C50.3495 58.8528 50.4049 59.5029 50.65 60.0896C50.8951 60.6762 51.3173 61.1695 51.8563 61.4987C52.3953 61.828 53.0234 61.9763 53.6507 61.9226C54.2781 61.8688 54.8725 61.6157 55.3491 61.1995C55.8257 60.7832 56.1599 60.2252 56.304 59.6052C56.4481 58.9851 56.3947 58.3349 56.1513 57.7474C55.908 57.1599 55.4873 56.6654 54.9493 56.3345C54.4114 56.0035 53.7838 55.8532 53.1562 55.905V55.905Z" fill="white"/>
<path d="M53.3694 62.3926H52.9697C52.5004 62.3224 52.0512 62.1523 51.6516 61.8937C51.252 61.635 50.9112 61.2936 50.6515 60.892C50.3807 60.5054 50.1913 60.0667 50.0951 59.603C49.9988 59.1393 49.9978 58.6605 50.0919 58.1964C50.2665 57.4907 50.6486 56.8551 51.1878 56.3738C51.727 55.8925 52.3979 55.5881 53.1118 55.5007C53.582 55.4636 54.0547 55.5277 54.4986 55.6888C54.9426 55.8499 55.3478 56.1043 55.6876 56.4352C56.0469 56.7634 56.3344 57.1639 56.5318 57.6111C56.7291 58.0583 56.8318 58.5423 56.8333 59.032C56.8143 59.5131 56.6944 59.9847 56.4816 60.4153C56.2687 60.846 55.9678 61.226 55.5987 61.53C54.9809 62.077 54.1903 62.3829 53.3694 62.3926V62.3926ZM53.1917 56.3453C52.6625 56.41 52.1646 56.6339 51.7624 56.9879C51.3602 57.3419 51.0723 57.8098 50.9357 58.3312C50.8695 58.6753 50.8735 59.0295 50.9476 59.372C51.0217 59.7145 51.1642 60.038 51.3665 60.3227C51.5688 60.6074 51.8266 60.8472 52.1239 61.0273C52.4212 61.2074 52.7518 61.3241 53.0954 61.3702C53.4389 61.4162 53.7882 61.3907 54.1216 61.2951C54.4551 61.1995 54.7656 61.0359 55.0342 60.8144C55.3028 60.5928 55.5238 60.318 55.6835 60.0069C55.8432 59.6957 55.9383 59.3548 55.9629 59.0051C55.9561 58.6382 55.8736 58.2769 55.7206 57.9442C55.5676 57.6115 55.3476 57.3148 55.0747 57.0732C54.8264 56.8233 54.5287 56.6293 54.2012 56.5039C53.8736 56.3784 53.5236 56.3244 53.174 56.3453H53.1917Z" fill="black"/>
<g opacity="0.13">
<path d="M54.0444 85.7102C54.0444 85.7102 54.0789 85.7188 54.0444 85.7102V85.7102Z" fill="black"/>
</g>
<g opacity="0.13">
<path d="M39.4514 81.9182C40.1087 82.2506 40.7837 82.5562 41.4587 82.8167C42.8333 83.3965 44.2423 83.8887 45.6776 84.2904C45.7731 84.3117 45.8579 84.3669 45.9166 84.446C45.9753 84.5252 46.0039 84.623 45.9974 84.7217C46.477 84.8295 46.9478 84.9194 47.4363 84.9823C49.2623 85.3335 51.1205 85.4842 52.9786 85.4315C53.0875 85.539 53.2276 85.6083 53.3783 85.6292L54.0355 85.7191H53.9734C54.2384 85.7568 54.5052 85.7808 54.7727 85.791C55.3077 85.8359 55.8454 85.8359 56.3804 85.791C57.7118 85.6463 59.0284 85.3847 60.315 85.0092C62.3409 84.4918 64.3221 83.8097 66.2393 82.9695C68.2246 82.192 70.086 81.1232 71.7638 79.7976C73.2759 78.4931 74.6269 77.0087 75.7874 75.3767C75.8609 75.4188 75.9421 75.4453 76.0261 75.4545C76.1101 75.4638 76.1951 75.4557 76.2759 75.4306C76.7644 75.197 76.5779 75.2059 76.9509 74.7477C77.3239 74.2894 77.7147 73.5346 78.07 72.9506C78.5531 72.2066 78.9721 71.4219 79.3224 70.6053C79.4302 70.4115 79.4767 70.1888 79.4556 69.9674C79.7861 69.4328 80.0828 68.8776 80.3438 68.305C82.1303 64.2802 82.9694 59.891 82.7952 55.4826C82.658 53.5868 82.3998 51.7019 82.0225 49.8397C81.5355 47.8148 80.845 45.8457 79.9619 43.9631C79.9096 43.8649 79.8347 43.7809 79.7434 43.7184C79.6522 43.6558 79.5473 43.6164 79.4378 43.6037C78.9671 42.4895 78.3631 40.908 77.6614 39.6231C77.126 38.4887 76.3985 37.4578 75.512 36.577C75.2736 36.3125 75.0053 36.0773 74.7126 35.8761C74.57 35.8134 74.4095 35.8062 74.2619 35.856C74.1144 35.9057 73.9902 36.0089 73.9133 36.1457C73.5935 36.7028 74.2153 37.1071 74.5439 37.4665C74.7563 37.6883 74.9522 37.9255 75.1301 38.1764C75.6498 38.9244 76.1017 39.7183 76.4802 40.5486C76.9775 41.4471 77.4483 42.4086 77.8657 43.3701C78.1233 44.044 78.6029 45.0504 79.1181 46.1196C79.674 47.8846 80.1102 49.6859 80.4237 51.511C81.3582 56.3253 80.9303 61.3087 79.1891 65.8879V65.8879C77.9426 68.3837 76.4167 70.7263 74.6416 72.8697C73.1606 74.4654 71.5825 75.966 69.9164 77.3625C68.4465 78.7523 66.7972 79.9342 65.0136 80.8758C63.5387 81.5462 62.0262 82.1283 60.4838 82.6191C57.4951 83.3089 54.4447 83.6883 51.3798 83.7512C50.0298 83.6254 48.9107 83.4008 47.303 83.1312C44.8289 82.777 42.3993 82.1564 40.0554 81.2802C39.9681 81.2451 39.8737 81.2321 39.7803 81.2423C39.6869 81.2525 39.5974 81.2856 39.5195 81.3387C39.4416 81.3918 39.3777 81.4634 39.3333 81.5471C39.289 81.6309 39.2655 81.7243 39.2649 81.8193L39.4514 81.9182Z" fill="black"/>
</g>
<path d="M53.9822 37.3676C53.8668 37.3676 53.7561 37.3212 53.6745 37.2386C53.5928 37.1561 53.547 37.0441 53.547 36.9273V33.3331C53.547 33.2139 53.5938 33.0996 53.6771 33.0154C53.7604 32.9311 53.8733 32.8838 53.9911 32.8838C54.1089 32.8838 54.2218 32.9311 54.3051 33.0154C54.3884 33.0996 54.4352 33.2139 54.4352 33.3331V36.9273C54.4352 36.9867 54.4234 37.0454 54.4004 37.1C54.3775 37.1547 54.3438 37.204 54.3015 37.2452C54.2592 37.2863 54.2091 37.3183 54.1542 37.3394C54.0994 37.3604 54.0408 37.37 53.9822 37.3676Z" fill="black"/>
<path d="M53.9822 78.9618C53.8668 78.9618 53.7561 78.9154 53.6745 78.8329C53.5928 78.7503 53.547 78.6383 53.547 78.5215V74.9273C53.547 74.8081 53.5938 74.6939 53.6771 74.6096C53.7604 74.5254 53.8733 74.478 53.9911 74.478C54.1089 74.478 54.2218 74.5254 54.3051 74.6096C54.3884 74.6939 54.4352 74.8081 54.4352 74.9273V78.5215C54.4352 78.5809 54.4234 78.6397 54.4004 78.6943C54.3775 78.7489 54.3438 78.7983 54.3015 78.8394C54.2592 78.8805 54.2091 78.9126 54.1542 78.9336C54.0994 78.9547 54.0408 78.9643 53.9822 78.9618V78.9618Z" fill="black"/>
<path d="M76.3114 56.3722H72.7586C72.6408 56.3722 72.5279 56.3249 72.4446 56.2406C72.3613 56.1563 72.3145 56.0421 72.3145 55.9229C72.3145 55.8038 72.3613 55.6895 72.4446 55.6052C72.5279 55.521 72.6408 55.4736 72.7586 55.4736H76.3114C76.4292 55.4736 76.5421 55.521 76.6254 55.6052C76.7087 55.6895 76.7555 55.8038 76.7555 55.9229C76.7555 56.0421 76.7087 56.1563 76.6254 56.2406C76.5421 56.3249 76.4292 56.3722 76.3114 56.3722Z" fill="black"/>
<path d="M35.197 56.3722H31.6442C31.5264 56.3722 31.4135 56.3249 31.3302 56.2406C31.2469 56.1563 31.2001 56.0421 31.2001 55.9229C31.2001 55.8038 31.2469 55.6895 31.3302 55.6052C31.4135 55.521 31.5264 55.4736 31.6442 55.4736H35.197C35.3148 55.4736 35.4277 55.521 35.511 55.6052C35.5943 55.6895 35.6411 55.8038 35.6411 55.9229C35.6411 56.0421 35.5943 56.1563 35.511 56.2406C35.4277 56.3249 35.3148 56.3722 35.197 56.3722Z" fill="black"/>
<path d="M51.5575 16.4673C50.5024 16.4816 49.4722 16.7927 48.582 17.3658C48.1454 17.6641 47.817 18.0985 47.6471 18.603C47.4771 19.1075 47.4748 19.6544 47.6405 20.1603C48.1024 21.2117 49.4169 21.589 50.5183 21.7059C52.2947 21.8766 55.5632 22.1911 57.3129 21.8406C57.6998 21.7998 58.0737 21.6763 58.4098 21.4782C58.7459 21.2802 59.0365 21.0121 59.2624 20.6918C59.4884 20.3714 59.6444 20.0062 59.7202 19.6203C59.796 19.2343 59.7899 18.8364 59.7022 18.4531C59.5954 18.1216 59.4208 17.8167 59.1897 17.5581C58.9586 17.2996 58.6762 17.0932 58.361 16.9525C57.7482 16.638 53.2539 16.3325 51.5575 16.4673Z" fill="white"/>
<path d="M55.1902 22.4516C53.4937 22.4516 51.5841 22.2718 50.4739 22.155C48.8041 21.9933 47.685 21.3733 47.2409 20.3579C47.0407 19.7598 47.0381 19.1121 47.2335 18.5124C47.429 17.9127 47.8119 17.3936 48.3245 17.0333C49.274 16.3936 50.3817 16.0356 51.522 15.9999V15.9999C53.1207 15.8741 57.8015 16.1257 58.5653 16.5211C58.9372 16.6895 59.2686 16.9373 59.5369 17.2475C59.8052 17.5577 60.004 17.9229 60.1197 18.3182C60.2286 18.7241 60.2533 19.1484 60.1921 19.5644C60.131 19.9804 59.9853 20.3791 59.7644 20.7353C59.4952 21.1447 59.1459 21.494 58.738 21.7613C58.3301 22.0287 57.8723 22.2086 57.3929 22.2898C56.6655 22.4148 55.9278 22.469 55.1902 22.4516ZM51.593 16.8985C50.6181 16.9166 49.6665 17.2024 48.8396 17.7251C48.4864 17.9682 48.2187 18.3185 48.0751 18.7255C47.9314 19.1325 47.9192 19.5751 48.0402 19.9895C48.431 20.8881 49.6212 21.1846 50.5538 21.2744C52.1615 21.4272 55.5011 21.7597 57.2241 21.4182C57.5804 21.357 57.9209 21.2245 58.2259 21.0286C58.5309 20.8327 58.7943 20.5772 59.0005 20.277C59.1584 20.0228 59.2621 19.7381 59.3049 19.441C59.3477 19.1439 59.3288 18.8411 59.2492 18.5518C59.1617 18.2898 59.023 18.0482 58.8414 17.8414C58.6599 17.6345 58.4391 17.4667 58.1923 17.3477C56.0149 16.9581 53.8023 16.8075 51.593 16.8985V16.8985Z" fill="black"/>
<path d="M53.5115 27.8251C53.4548 27.8251 53.3986 27.8136 53.3463 27.7914C53.294 27.7691 53.2466 27.7366 53.2069 27.6956C53.1672 27.6546 53.1359 27.6059 53.115 27.5526C53.0941 27.4992 53.084 27.4421 53.0852 27.3848L53.1385 21.9934C53.1385 21.936 53.1498 21.8792 53.1717 21.8263C53.1937 21.7733 53.2259 21.7254 53.2665 21.6852C53.307 21.645 53.355 21.6135 53.4078 21.5923C53.4606 21.5712 53.517 21.5609 53.5737 21.5621C53.6304 21.5621 53.6866 21.5735 53.7389 21.5958C53.7912 21.618 53.8386 21.6506 53.8783 21.6916C53.918 21.7326 53.9493 21.7812 53.9701 21.8346C53.991 21.888 54.0012 21.945 54 22.0024L53.9467 27.3937C53.9422 27.5082 53.8946 27.6166 53.8137 27.6968C53.7328 27.777 53.6247 27.8229 53.5115 27.8251Z" fill="black"/>
<g opacity="0.13">
<path d="M75.4765 68.341C74.5952 69.2926 73.6611 70.1926 72.6787 71.0367C71.8438 71.6926 71.0444 72.2677 70.2272 72.8338C70.0777 72.8604 69.9337 72.9121 69.8009 72.9866C65.6442 75.6822 62.5266 76.5808 57.2685 77.4793C54.1932 78.0773 51.0301 78.0406 47.9692 77.3715C45.2158 76.8054 43.8923 76.1405 41.0146 74.4332C38.9169 73.0354 36.9752 71.4115 35.2236 69.59V69.59C34.7867 69.0654 34.3832 68.5131 34.0157 67.9367C32.1097 65.2808 30.6124 62.3482 29.5747 59.2386C29.2222 58.5325 28.9252 57.7994 28.6865 57.0461C28.5262 58.7246 28.5025 60.4136 28.6154 62.096C29.1484 63.381 29.6902 64.6659 30.2852 65.9239C30.2852 66.0137 30.3652 66.1036 30.4096 66.1935L30.6405 66.6337C32.2888 69.5638 34.2842 72.2795 36.5825 74.7208C38.6583 76.7433 41.0617 78.3906 43.6881 79.5909C44.3278 79.8461 44.98 80.0681 45.6421 80.2559C47.1337 80.5979 48.6474 80.8322 50.1719 80.9568V80.9568C51.8333 81.2083 53.5197 81.2446 55.1902 81.0646C56.5038 80.9354 57.8049 80.698 59.0804 80.3547C61.5587 79.8695 63.9813 79.1288 66.3103 78.1443C66.8876 77.7759 67.4561 77.3895 68.0068 76.9672C71.1483 74.5105 73.8389 71.5147 75.9561 68.1164C76.3202 67.5233 76.6666 66.9123 76.9864 66.3193C76.4357 66.9303 76.0627 67.721 75.4765 68.341Z" fill="black"/>
</g>
<path d="M25.8621 36.0469C25.8434 36.0447 25.8253 36.0387 25.8089 36.0293C25.7924 36.02 25.778 36.0074 25.7664 35.9923C25.7549 35.9773 25.7464 35.9601 25.7415 35.9417C25.7365 35.9232 25.7353 35.904 25.7378 35.8851L27.4164 20.6097C27.4228 20.5716 27.4424 20.5371 27.4717 20.5123C27.501 20.4876 27.5381 20.4743 27.5763 20.4749C27.6155 20.4815 27.6509 20.5026 27.6755 20.5342C27.7002 20.5658 27.7123 20.6055 27.7095 20.6456L26.022 35.9211C26.0198 35.94 26.0139 35.9583 26.0046 35.9749C25.9954 35.9915 25.983 36.0061 25.9681 36.0178C25.9532 36.0295 25.9362 36.0381 25.918 36.0431C25.8998 36.0481 25.8808 36.0494 25.8621 36.0469V36.0469Z" fill="black"/>
<path d="M23.3573 35.5166C23.3386 35.5143 23.3205 35.5084 23.3041 35.499C23.2877 35.4897 23.2733 35.4771 23.2617 35.462C23.2501 35.447 23.2416 35.4297 23.2367 35.4113C23.2318 35.3929 23.2305 35.3737 23.233 35.3548L25.0449 22.9457C25.0515 22.9067 25.0727 22.8718 25.1042 22.8484C25.1357 22.8249 25.1749 22.8147 25.2137 22.8199C25.2325 22.8232 25.2505 22.8302 25.2665 22.8406C25.2826 22.851 25.2964 22.8646 25.3072 22.8805C25.318 22.8964 25.3255 22.9144 25.3292 22.9333C25.333 22.9523 25.333 22.9718 25.3291 22.9907L23.4994 35.3997C23.495 35.4339 23.4778 35.465 23.4514 35.4868C23.4249 35.5085 23.3913 35.5191 23.3573 35.5166V35.5166Z" fill="black"/>
<path d="M21.9185 31.6709C21.8776 31.6664 21.8401 31.6461 21.8136 31.6144C21.7872 31.5826 21.7738 31.5417 21.7764 31.5002L22.3093 27.4477C22.3093 27.4096 22.3243 27.373 22.3509 27.3461C22.3776 27.3191 22.4137 27.304 22.4514 27.304C22.4891 27.304 22.5252 27.3191 22.5519 27.3461C22.5785 27.373 22.5935 27.4096 22.5935 27.4477L22.0695 31.5451C22.0616 31.5801 22.0425 31.6114 22.0152 31.6341C21.9879 31.6569 21.9539 31.6698 21.9185 31.6709Z" fill="black"/>
<path d="M28.5444 34.4115C28.5059 34.407 28.4706 34.3877 28.4458 34.3575C28.421 34.3274 28.4086 34.2888 28.4112 34.2497L29.8767 18.8035C29.8712 18.781 29.8708 18.7576 29.8756 18.7349C29.8803 18.7122 29.8902 18.6909 29.9043 18.6727C29.9184 18.6544 29.9365 18.6396 29.9571 18.6295C29.9777 18.6193 30.0003 18.614 30.0232 18.614C30.0461 18.614 30.0688 18.6193 30.0894 18.6295C30.11 18.6396 30.128 18.6544 30.1421 18.6727C30.1563 18.6909 30.1661 18.7122 30.1709 18.7349C30.1757 18.7576 30.1753 18.781 30.1698 18.8035L28.6954 34.2857C28.6909 34.3222 28.6728 34.3556 28.6447 34.3791C28.6166 34.4025 28.5807 34.4141 28.5444 34.4115V34.4115Z" fill="black"/>
<path d="M31.058 32.5245C31.0195 32.52 30.9842 32.5007 30.9594 32.4706C30.9346 32.4405 30.9222 32.4019 30.9248 32.3628C31.4754 27.8071 31.9551 23.1885 32.337 18.6239C32.338 18.6053 32.3429 18.5872 32.3512 18.5706C32.3595 18.554 32.3711 18.5394 32.3853 18.5276C32.3995 18.5158 32.4159 18.507 32.4336 18.502C32.4513 18.4969 32.4698 18.4956 32.488 18.4981C32.5071 18.4979 32.526 18.5019 32.5434 18.5097C32.5609 18.5176 32.5764 18.5292 32.5891 18.5437C32.6017 18.5581 32.6111 18.5752 32.6167 18.5937C32.6222 18.6122 32.6238 18.6317 32.6212 18.6508C32.2393 23.2155 31.733 27.8431 31.2001 32.3987C31.1958 32.4337 31.1789 32.4658 31.1527 32.489C31.1265 32.5122 31.0928 32.5248 31.058 32.5245Z" fill="black"/>
<path d="M33.5982 30.8981C33.5795 30.8959 33.5614 30.8899 33.545 30.8806C33.5286 30.8712 33.5142 30.8586 33.5026 30.8436C33.491 30.8285 33.4825 30.8113 33.4776 30.7929C33.4727 30.7745 33.4714 30.7553 33.4739 30.7364C34.0068 26.6749 34.4953 22.5505 34.9394 18.4801C34.9339 18.4575 34.9335 18.4341 34.9383 18.4114C34.9431 18.3887 34.9529 18.3674 34.967 18.3492C34.9812 18.3309 34.9992 18.3161 35.0198 18.306C35.0404 18.2958 35.063 18.2905 35.086 18.2905C35.1089 18.2905 35.1315 18.2958 35.1521 18.306C35.1727 18.3161 35.1908 18.3309 35.2049 18.3492C35.219 18.3674 35.2288 18.3887 35.2336 18.4114C35.2384 18.4341 35.238 18.4575 35.2325 18.4801C34.7884 22.5505 34.291 26.6839 33.767 30.7454C33.7659 30.7666 33.7606 30.7874 33.7515 30.8066C33.7424 30.8258 33.7296 30.843 33.714 30.8572C33.6983 30.8714 33.68 30.8823 33.6601 30.8893C33.6403 30.8963 33.6192 30.8993 33.5982 30.8981V30.8981Z" fill="black"/>
<path d="M36.3872 28.6606C36.3681 28.6608 36.3492 28.6568 36.3317 28.6489C36.3143 28.6411 36.2987 28.6295 36.2861 28.615C36.2734 28.6005 36.264 28.5835 36.2585 28.565C36.2529 28.5465 36.2514 28.527 36.2539 28.5079C36.5737 25.309 36.9911 22.0742 37.4974 18.9023C37.504 18.8633 37.5252 18.8284 37.5567 18.8049C37.5882 18.7815 37.6274 18.7713 37.6662 18.7765C37.685 18.7797 37.703 18.7867 37.719 18.7971C37.7351 18.8075 37.7489 18.8211 37.7597 18.837C37.7705 18.853 37.778 18.8709 37.7818 18.8899C37.7855 18.9088 37.7855 18.9283 37.7816 18.9472C37.2754 22.1191 36.8934 25.3359 36.547 28.5348C36.5405 28.5721 36.5206 28.6056 36.491 28.6289C36.4615 28.6521 36.4245 28.6634 36.3872 28.6606V28.6606Z" fill="black"/>
<path d="M38.9363 26.8546C38.9175 26.8524 38.8994 26.8464 38.883 26.8371C38.8666 26.8277 38.8522 26.8151 38.8406 26.8001C38.829 26.785 38.8205 26.7678 38.8156 26.7494C38.8107 26.731 38.8094 26.7118 38.8119 26.6929C39.0872 24.3925 39.4336 22.0743 39.8511 19.8009C39.8543 19.7819 39.8612 19.7637 39.8715 19.7474C39.8818 19.7312 39.8952 19.7172 39.911 19.7063C39.9267 19.6954 39.9445 19.6878 39.9632 19.684C39.9819 19.6802 40.0012 19.6802 40.0199 19.6841C40.0387 19.6873 40.0566 19.6944 40.0727 19.7048C40.0888 19.7152 40.1026 19.7287 40.1134 19.7447C40.1242 19.7606 40.1317 19.7786 40.1354 19.7975C40.1392 19.8164 40.1392 19.8359 40.1353 19.8548C39.7179 22.1192 39.3715 24.4375 39.105 26.7288C39.0985 26.7678 39.0772 26.8027 39.0457 26.8261C39.0143 26.8496 38.975 26.8598 38.9363 26.8546V26.8546Z" fill="black"/>
<path d="M41.7874 24.8687C41.7489 24.8641 41.7136 24.8448 41.6888 24.8147C41.664 24.7846 41.6516 24.746 41.6541 24.7069C41.7874 23.6376 41.965 22.5504 42.1782 21.4991C42.1865 21.4658 42.2063 21.4367 42.234 21.4169C42.2617 21.3972 42.2954 21.3881 42.3292 21.3913C42.348 21.3945 42.366 21.4015 42.382 21.4119C42.3981 21.4223 42.4119 21.4359 42.4227 21.4518C42.4335 21.4677 42.441 21.4857 42.4447 21.5046C42.4485 21.5236 42.4485 21.5431 42.4446 21.562C42.2315 22.6133 42.0538 23.6826 41.9295 24.7519C41.9232 24.7851 41.9055 24.8151 41.8795 24.8365C41.8535 24.8579 41.8209 24.8693 41.7874 24.8687Z" fill="black"/>
<path d="M64.9336 24.4015C64.9149 24.3993 64.8968 24.3934 64.8804 24.384C64.864 24.3746 64.8496 24.3621 64.838 24.347C64.8264 24.332 64.8179 24.3147 64.813 24.2963C64.8081 24.2779 64.8068 24.2587 64.8093 24.2398L65.2978 20.978C65.3059 20.9449 65.3247 20.9155 65.3513 20.8945C65.3779 20.8735 65.4106 20.8621 65.4443 20.8621C65.4781 20.8621 65.5108 20.8735 65.5374 20.8945C65.5639 20.9155 65.5828 20.9449 65.5909 20.978L65.0491 24.2308C65.0526 24.2684 65.043 24.3061 65.0219 24.3373C65.0008 24.3685 64.9696 24.3912 64.9336 24.4015V24.4015Z" fill="black"/>
<path d="M67.2873 25.8843C67.2498 25.8757 67.2165 25.8537 67.1936 25.8224C67.1708 25.791 67.1599 25.7524 67.163 25.7135C67.4827 23.4941 67.8647 21.2207 68.2999 19.0372C68.3031 19.0182 68.31 19 68.3203 18.9838C68.3306 18.9675 68.344 18.9535 68.3597 18.9426C68.3755 18.9317 68.3932 18.9241 68.412 18.9203C68.4307 18.9165 68.4499 18.9165 68.4686 18.9204C68.5055 18.9291 68.5379 18.9514 68.5593 18.983C68.5807 19.0146 68.5895 19.0532 68.5841 19.0912C68.1489 21.2926 67.7758 23.5839 67.4561 25.7585C67.4477 25.7965 67.4259 25.8301 67.3949 25.8532C67.3639 25.8763 67.3257 25.8874 67.2873 25.8843V25.8843Z" fill="black"/>
<path d="M69.8898 27.6274C69.8513 27.6228 69.816 27.6035 69.7912 27.5734C69.7664 27.5433 69.754 27.5047 69.7566 27.4656C70.0497 24.3746 70.4671 21.2566 71.0089 18.1925C71.0121 18.1735 71.019 18.1553 71.0293 18.139C71.0396 18.1228 71.053 18.1088 71.0688 18.0979C71.0845 18.087 71.1023 18.0794 71.121 18.0756C71.1397 18.0718 71.159 18.0718 71.1777 18.0757C71.2146 18.0843 71.2469 18.1067 71.2683 18.1383C71.2897 18.1699 71.2985 18.2085 71.2931 18.2464C70.7602 21.3015 70.3428 24.4105 70.0497 27.4926C70.0452 27.5315 70.0261 27.5672 69.9963 27.5923C69.9666 27.6174 69.9284 27.6299 69.8898 27.6274Z" fill="black"/>
<path d="M72.2168 29.5323C72.1783 29.5278 72.143 29.5084 72.1183 29.4783C72.0935 29.4482 72.081 29.4096 72.0836 29.3705C72.4833 25.5786 72.9096 21.7328 73.3537 17.9589C73.3537 17.9376 73.3578 17.9166 73.3659 17.897C73.3739 17.8773 73.3857 17.8595 73.4005 17.8445C73.4154 17.8295 73.433 17.8176 73.4524 17.8094C73.4718 17.8013 73.4926 17.7971 73.5136 17.7971C73.5323 17.7993 73.5504 17.8053 73.5668 17.8147C73.5832 17.824 73.5976 17.8366 73.6092 17.8516C73.6208 17.8667 73.6293 17.8839 73.6342 17.9023C73.6391 17.9207 73.6404 17.94 73.6379 17.9589C73.1849 21.7418 72.7497 25.5786 72.3678 29.3795C72.3691 29.3999 72.3661 29.4204 72.359 29.4395C72.3518 29.4586 72.3408 29.476 72.3265 29.4905C72.3122 29.5049 72.295 29.5161 72.2761 29.5233C72.2572 29.5306 72.237 29.5336 72.2168 29.5323Z" fill="black"/>
<path d="M74.6416 31.1318C74.6229 31.1296 74.6048 31.1236 74.5883 31.1143C74.5719 31.1049 74.5575 31.0924 74.5459 31.0773C74.5344 31.0622 74.5259 31.045 74.5209 31.0266C74.516 31.0082 74.5147 30.989 74.5172 30.9701C75.0679 26.693 75.5387 22.3439 75.8673 18.0488C75.8671 18.0295 75.871 18.0104 75.8788 17.9927C75.8866 17.9751 75.898 17.9593 75.9124 17.9466C75.9267 17.9338 75.9435 17.9243 75.9618 17.9186C75.9801 17.913 75.9993 17.9115 76.0183 17.914C76.0369 17.9152 76.0552 17.9201 76.072 17.9284C76.0888 17.9367 76.1039 17.9482 76.1162 17.9624C76.1286 17.9766 76.1381 17.9931 76.1442 18.0111C76.1502 18.029 76.1527 18.0479 76.1515 18.0668C75.8318 22.3709 75.3699 26.7199 74.7837 30.997C74.7814 31.0336 74.7655 31.0679 74.739 31.0929C74.7126 31.118 74.6778 31.1319 74.6416 31.1318Z" fill="black"/>
<path d="M76.9775 32.731C76.9391 32.7265 76.9038 32.7072 76.879 32.6771C76.8542 32.647 76.8418 32.6084 76.8443 32.5693L78.2743 19.0909C78.2765 19.072 78.2824 19.0537 78.2916 19.0371C78.3009 19.0204 78.3133 19.0059 78.3282 18.9942C78.3431 18.9824 78.3601 18.9738 78.3783 18.9689C78.3965 18.9639 78.4155 18.9626 78.4342 18.9651C78.4727 18.9696 78.5079 18.989 78.5327 19.0191C78.5575 19.0492 78.57 19.0878 78.5674 19.1269L77.1374 32.6052C77.1309 32.6425 77.111 32.676 77.0814 32.6993C77.0519 32.7225 77.0149 32.7338 76.9775 32.731V32.731Z" fill="black"/>
<path d="M79.3845 34.1688C79.3611 34.1684 79.338 34.1626 79.3172 34.1516C79.2964 34.1407 79.2784 34.1251 79.2646 34.1059C79.2508 34.0867 79.2416 34.0645 79.2378 34.0411C79.2339 34.0177 79.2355 33.9938 79.2424 33.9711C79.5089 29.4783 79.9174 24.9316 80.3971 20.4298C80.3979 20.4104 80.403 20.3913 80.4118 20.3741C80.4207 20.3568 80.4331 20.3416 80.4483 20.3297C80.4635 20.3177 80.4811 20.3092 80.4999 20.3048C80.5186 20.3004 80.5381 20.3001 80.5569 20.304C80.5756 20.3062 80.5937 20.3122 80.6102 20.3216C80.6266 20.3309 80.641 20.3435 80.6526 20.3586C80.6641 20.3736 80.6726 20.3908 80.6776 20.4092C80.6825 20.4276 80.6838 20.4469 80.6813 20.4658C80.2016 24.9586 79.7931 29.5232 79.5266 34.025C79.5266 34.0439 79.5229 34.0626 79.5158 34.08C79.5087 34.0975 79.4982 34.1133 79.485 34.1267C79.4718 34.14 79.4561 34.1506 79.4389 34.1578C79.4217 34.165 79.4032 34.1688 79.3845 34.1688Z" fill="black"/>
<path d="M82.0669 36.6668C82.0482 36.6656 82.0299 36.6608 82.0131 36.6524C81.9963 36.6441 81.9813 36.6326 81.9689 36.6184C81.9565 36.6042 81.947 36.5877 81.941 36.5697C81.9349 36.5518 81.9324 36.5329 81.9336 36.514C82.1202 31.6259 82.3689 26.6299 82.6708 21.7777C82.672 21.7588 82.6768 21.7403 82.685 21.7233C82.6932 21.7063 82.7046 21.6911 82.7187 21.6785C82.7327 21.666 82.749 21.6564 82.7667 21.6503C82.7844 21.6442 82.8032 21.6417 82.8218 21.6429C82.8603 21.6452 82.8965 21.6623 82.9229 21.6907C82.9493 21.7191 82.964 21.7566 82.9639 21.7956C82.662 26.6838 82.4133 31.6798 82.2179 36.523C82.2179 36.5427 82.214 36.5621 82.2063 36.5802C82.1986 36.5982 82.1873 36.6145 82.1731 36.628C82.159 36.6414 82.1423 36.6518 82.124 36.6585C82.1057 36.6652 82.0863 36.668 82.0669 36.6668Z" fill="black"/>
<path d="M84.838 35.7684C84.7986 35.7662 84.7615 35.7494 84.7336 35.7213C84.7057 35.6931 84.6891 35.6554 84.687 35.6156C84.687 32.2011 84.7581 28.7417 84.9801 25.3361C84.9812 25.3164 84.9862 25.2971 84.995 25.2795C85.0038 25.2618 85.016 25.2462 85.031 25.2335C85.046 25.2209 85.0635 25.2115 85.0822 25.206C85.1009 25.2004 85.1206 25.1989 85.14 25.2014C85.1591 25.2012 85.178 25.2052 85.1954 25.213C85.2129 25.2209 85.2284 25.2325 85.2411 25.247C85.2537 25.2614 85.2631 25.2785 85.2687 25.297C85.2742 25.3155 85.2758 25.335 85.2732 25.3541C85.0423 28.7507 84.9446 32.2101 84.9801 35.6156C84.9802 35.6546 84.9655 35.6922 84.9391 35.7206C84.9126 35.749 84.8765 35.7661 84.838 35.7684V35.7684Z" fill="black"/>
<g opacity="0.13">
<path d="M58.1923 19.5223L57.9791 19.6481C57.8693 19.6922 57.7565 19.7282 57.6416 19.7559C56.6662 19.9065 55.6786 19.9606 54.6928 19.9177C53.3339 19.9177 50.9002 19.5313 50.3851 19.4864C49.6035 19.4055 48.8307 19.091 48.0491 19.091C47.9325 19.0833 47.8155 19.099 47.7048 19.1371C47.5942 19.1751 47.492 19.2349 47.4042 19.3129C47.3163 19.3909 47.2445 19.4857 47.1929 19.5917C47.1413 19.6978 47.1108 19.8132 47.1032 19.9312C47.0956 20.0492 47.1111 20.1675 47.1487 20.2795C47.1863 20.3914 47.2454 20.4948 47.3225 20.5836C47.3996 20.6725 47.4933 20.7451 47.5982 20.7974C47.703 20.8496 47.817 20.8805 47.9337 20.8881C50.8428 21.5717 53.8357 21.8169 56.8156 21.616C57.4457 21.5607 58.0699 21.4494 58.6808 21.2835C58.8812 21.2543 59.0698 21.1702 59.2264 21.0403C59.3829 20.9104 59.5014 20.7397 59.569 20.5467C59.6367 20.3635 59.6434 20.163 59.5883 19.9756C59.5331 19.7881 59.419 19.624 59.2633 19.5082C59.1075 19.3923 58.9187 19.331 58.7254 19.3336C58.5321 19.3361 58.345 19.4024 58.1923 19.5223V19.5223Z" fill="black"/>
</g>
<g opacity="0.13">
<path d="M44.2032 22.2899C42.0982 23.3862 40.1886 24.8059 38.1546 26.0369C35.812 27.3589 33.573 28.8609 31.4577 30.5297C28.7171 32.5603 26.0789 34.7286 23.5528 37.0263C23.2597 37.2958 22.9044 37.5834 22.9221 38.0326C22.9372 38.2034 22.9975 38.3669 23.0967 38.5059C23.196 38.6449 23.3305 38.7542 23.486 38.8223C23.6415 38.8903 23.8124 38.9147 23.9804 38.8928C24.1485 38.8708 24.3076 38.8034 24.441 38.6976L24.9383 38.2573C25.0572 38.298 25.1836 38.311 25.3082 38.2955C25.4328 38.2799 25.5522 38.2361 25.6578 38.1674C27.1055 37.0892 27.7273 36.3703 28.9086 35.6065C30.6849 34.3575 32.5413 33.2523 34.3088 32.0123C35.8365 30.8801 36.6003 30.0534 37.7638 29.2088L37.5596 29.3705C39.0784 28.2204 40.686 27.1781 42.2048 26.0279C43.1463 25.354 44.1588 24.7879 45.0648 24.0691C45.2424 23.9246 45.3662 23.7234 45.4157 23.4983C45.4653 23.2733 45.4377 23.0379 45.3374 22.8309C45.2371 22.6238 45.0702 22.4575 44.8641 22.3592C44.658 22.2608 44.4249 22.2364 44.2032 22.2899V22.2899Z" fill="black"/>
</g>
<g opacity="0.13">
<path d="M84.4739 36.9543C84.1275 36.7656 83.8166 36.514 83.488 36.2894L83.4258 36.2355L83.115 35.9929C79.047 32.6952 72.2879 28.1575 67.3407 24.3116C66.6085 23.7974 65.8495 23.3235 65.0669 22.8919C64.9567 22.6875 64.7934 22.5175 64.5945 22.4003C64.3957 22.2831 64.169 22.2232 63.9389 22.227C63.5926 22.227 63.2605 22.3661 63.0157 22.6139C62.7708 22.8616 62.6332 23.1975 62.6332 23.5479C62.6332 23.8982 62.7708 24.2341 63.0157 24.4819C63.2605 24.7296 63.5926 24.8687 63.9389 24.8687C64.0215 24.878 64.1049 24.878 64.1876 24.8687C64.9958 25.3809 65.8041 25.8931 66.5679 26.4682C68.6552 28.0856 71.0888 30.0624 73.8067 31.9404C76.1693 33.6656 79.4201 35.8132 80.9655 37.1161C81.7471 37.7451 82.4843 38.41 83.3104 38.9671C83.514 39.1413 83.772 39.2369 84.0387 39.2369C84.3053 39.2369 84.5634 39.1413 84.767 38.9671C84.9286 38.8402 85.054 38.6721 85.1303 38.4801C85.2065 38.288 85.231 38.0789 85.2012 37.8742C85.1714 37.6694 85.0883 37.4763 84.9606 37.3147C84.8328 37.1531 84.6648 37.0287 84.4739 36.9543V36.9543Z" fill="black"/>
</g>
</g>
<defs>
<clipPath id="clip0_3_576">
<rect width="68" height="76" fill="white" transform="translate(20 16)"/>
</clipPath>
</defs>
</svg>
