<svg width="108" height="108" viewBox="0 0 108 108" fill="none" xmlns="http://www.w3.org/2000/svg">
<g clip-path="url(#clip0_3_559)">
<path d="M82.5743 18.4141H25.4257V89.5858H82.5743V18.4141Z" fill="white"/>
<path d="M82.5743 90H25.4257C25.3128 90 25.2045 89.9564 25.1247 89.8787C25.0449 89.801 25 89.6957 25 89.5859V18.4141C25 18.3043 25.0449 18.199 25.1247 18.1213C25.2045 18.0436 25.3128 18 25.4257 18H82.5743C82.6872 18 82.7955 18.0436 82.8753 18.1213C82.9551 18.199 83 18.3043 83 18.4141V89.5859C83 89.6957 82.9551 89.801 82.8753 89.8787C82.7955 89.9564 82.6872 90 82.5743 90V90ZM25.8688 89.1717H82.166V18.8452H25.8688V89.1717Z" fill="black"/>
<path d="M38.5096 34.2018C38.4312 34.2036 38.3539 34.183 38.2875 34.1424C38.2211 34.1018 38.1684 34.0431 38.136 33.9736C37.5184 32.7722 36.7698 31.6388 35.9032 30.5929C35.8318 30.5077 35.7981 30.3985 35.8095 30.2891C35.8209 30.1797 35.8765 30.0792 35.964 30.0098C36.0516 29.9403 36.164 29.9075 36.2764 29.9186C36.3888 29.9297 36.4921 29.9837 36.5635 30.0689C37.3005 30.95 37.9574 31.8917 38.527 32.8833L41.0638 28.4377C41.0882 28.3854 41.1235 28.3386 41.1675 28.3002C41.2115 28.2619 41.2633 28.2329 41.3194 28.215C41.3756 28.1972 41.4349 28.1909 41.4937 28.1966C41.5525 28.2023 41.6094 28.2198 41.6609 28.2481C41.7123 28.2764 41.7571 28.3147 41.7925 28.3608C41.8279 28.4068 41.853 28.4595 41.8663 28.5155C41.8796 28.5715 41.8808 28.6295 41.8698 28.686C41.8587 28.7425 41.8358 28.7961 41.8023 28.8434L38.9005 33.9905C38.8636 34.0589 38.8069 34.1153 38.7374 34.1528C38.668 34.1904 38.5888 34.2074 38.5096 34.2018V34.2018Z" fill="black"/>
<path d="M38.5096 47.6486C38.4312 47.6504 38.3539 47.6297 38.2875 47.5892C38.2211 47.5486 38.1684 47.4899 38.136 47.4204C37.5184 46.2189 36.7698 45.0855 35.9032 44.0397C35.8318 43.9545 35.7981 43.8452 35.8095 43.7359C35.8209 43.6265 35.8765 43.526 35.964 43.4565C36.0516 43.387 36.164 43.3542 36.2764 43.3653C36.3888 43.3764 36.4921 43.4305 36.5635 43.5157C37.3005 44.3968 37.9574 45.3385 38.527 46.3301L41.0638 41.8845C41.0882 41.8322 41.1235 41.7853 41.1675 41.747C41.2115 41.7087 41.2633 41.6796 41.3194 41.6618C41.3756 41.644 41.4349 41.6377 41.4937 41.6434C41.5525 41.6491 41.6094 41.6666 41.6609 41.6949C41.7123 41.7231 41.7571 41.7615 41.7925 41.8075C41.8279 41.8536 41.853 41.9063 41.8663 41.9623C41.8796 42.0182 41.8808 42.0763 41.8698 42.1328C41.8587 42.1892 41.8358 42.2428 41.8023 42.2902L38.8832 47.3612C38.8596 47.4411 38.8109 47.5118 38.7439 47.5634C38.6769 47.6149 38.5949 47.6447 38.5096 47.6486V47.6486Z" fill="black"/>
<path d="M37.441 61.1036C37.3628 61.1044 37.286 61.0833 37.2198 61.0428C37.1536 61.0024 37.1007 60.9443 37.0674 60.8754C36.4498 59.674 35.7012 58.5406 34.8346 57.4947C34.7632 57.4096 34.7295 57.3003 34.7409 57.1909C34.7523 57.0815 34.8079 56.9811 34.8954 56.9116C34.983 56.8421 35.0954 56.8093 35.2078 56.8204C35.3202 56.8315 35.4235 56.8856 35.4949 56.9707C36.2318 57.8519 36.8888 58.7935 37.4584 59.7852L39.9952 55.3396C40.0215 55.2919 40.0574 55.2499 40.1006 55.2159C40.1439 55.182 40.1937 55.1568 40.2471 55.1418C40.3006 55.1268 40.3565 55.1224 40.4117 55.1288C40.4669 55.1352 40.5203 55.1523 40.5686 55.179C40.6186 55.2047 40.6628 55.2398 40.6987 55.2824C40.7346 55.3249 40.7614 55.3739 40.7776 55.4267C40.7938 55.4794 40.799 55.5347 40.7929 55.5894C40.7869 55.6441 40.7697 55.6971 40.7424 55.7452L37.8232 60.8585C37.7893 60.9299 37.7355 60.9907 37.668 61.034C37.6005 61.0773 37.5218 61.1014 37.441 61.1036V61.1036Z" fill="black"/>
<path d="M51.3415 34.4216C49.9254 34.4216 48.5267 34.4216 47.1192 34.4216C47.0063 34.4216 46.8981 34.378 46.8182 34.3003C46.7384 34.2226 46.6935 34.1173 46.6935 34.0075C46.6958 33.8983 46.7413 33.7942 46.8207 33.717C46.9 33.6398 47.007 33.5955 47.1192 33.5933V33.5933C55.5204 33.6694 64.0432 33.5257 72.4443 33.1708C72.5566 33.1684 72.6655 33.2084 72.7481 33.2825C72.8308 33.3566 72.8807 33.4589 72.8874 33.568C72.8897 33.6224 72.881 33.6767 72.8617 33.7278C72.8424 33.7789 72.813 33.8258 72.7751 33.8659C72.7372 33.9059 72.6915 33.9383 72.6407 33.9611C72.5899 33.984 72.535 33.9968 72.479 33.999C65.4766 34.2779 58.3787 34.4216 51.3415 34.4216Z" fill="black"/>
<path d="M51.3242 47.5809H47.1192C47.0063 47.5766 46.8992 47.5305 46.8201 47.4519C46.7409 47.3734 46.6957 47.2683 46.6935 47.1584C46.698 47.0507 46.7445 46.9487 46.8236 46.8733C46.9027 46.7979 47.0085 46.7547 47.1192 46.7527C55.5204 46.8203 64.0432 46.6766 72.4443 46.3216C72.5566 46.3193 72.6655 46.3593 72.7481 46.4334C72.8308 46.5074 72.8807 46.6098 72.8874 46.7189C72.8897 46.7733 72.881 46.8276 72.8617 46.8787C72.8424 46.9298 72.813 46.9767 72.7751 47.0167C72.7372 47.0568 72.6915 47.0891 72.6407 47.112C72.5899 47.1348 72.535 47.1477 72.479 47.1499C65.4766 47.4626 58.37 47.5809 51.3242 47.5809Z" fill="black"/>
<path d="M51.7064 60.7994C50.299 60.7994 48.9002 60.7994 47.4928 60.7994C47.4373 60.7994 47.3823 60.7887 47.3312 60.7678C47.28 60.7469 47.2336 60.7162 47.1948 60.6776C47.156 60.6391 47.1254 60.5933 47.105 60.5431C47.0845 60.4929 47.0746 60.4393 47.0758 60.3853C47.0758 60.2755 47.1206 60.1701 47.2005 60.0925C47.2803 60.0148 47.3886 59.9712 47.5015 59.9712V59.9712C55.9113 60.0472 64.4341 59.9036 72.8265 59.5486C72.9417 59.5486 73.0522 59.5931 73.1337 59.6724C73.2151 59.7516 73.2609 59.8591 73.2609 59.9712C73.2609 60.0832 73.2151 60.1907 73.1337 60.27C73.0522 60.3492 72.9417 60.3938 72.8265 60.3938C65.8328 60.6558 58.7522 60.7994 51.7064 60.7994Z" fill="black"/>
<path d="M37.441 74.339C37.3637 74.336 37.2885 74.3134 37.2229 74.2733C37.1574 74.2333 37.1038 74.1773 37.0674 74.1108C36.4494 72.9096 35.7008 71.7762 34.8347 70.7301C34.7779 70.644 34.7558 70.5406 34.7728 70.4397C34.7897 70.3387 34.8445 70.2475 34.9265 70.1835C35.0084 70.1194 35.1119 70.0872 35.2168 70.0929C35.3218 70.0987 35.4208 70.142 35.4949 70.2146C36.2338 71.0942 36.8909 72.0361 37.4584 73.029L39.9952 68.5749C40.0505 68.4785 40.1429 68.4075 40.2521 68.3774C40.3612 68.3472 40.4782 68.3606 40.5773 68.4143C40.6764 68.4681 40.7494 68.558 40.7804 68.6642C40.8114 68.7704 40.7977 68.8842 40.7424 68.9806L37.8146 74.1192C37.7771 74.1841 37.723 74.2385 37.6575 74.277C37.5921 74.3155 37.5175 74.3369 37.441 74.339Z" fill="black"/>
<path d="M51.7064 74.0432H47.4928C47.4369 74.0421 47.3817 74.0303 47.3305 74.0084C47.2793 73.9866 47.233 73.9552 47.1943 73.9159C47.1556 73.8767 47.1252 73.8304 47.1048 73.7797C47.0845 73.729 47.0746 73.675 47.0758 73.6206C47.0758 73.5666 47.0868 73.5131 47.1083 73.4634C47.1298 73.4136 47.1613 73.3685 47.201 73.3307C47.2406 73.2929 47.2876 73.2632 47.3392 73.2433C47.3908 73.2234 47.446 73.2138 47.5015 73.2149C55.9113 73.2825 64.4341 73.1388 72.8265 72.7923C72.882 72.7889 72.9376 72.7963 72.9901 72.8141C73.0426 72.8319 73.0909 72.8597 73.1322 72.8959C73.1735 72.9322 73.2069 72.976 73.2305 73.025C73.2541 73.074 73.2674 73.1271 73.2696 73.1811C73.2719 73.2355 73.2632 73.2898 73.2439 73.3409C73.2247 73.392 73.1952 73.4389 73.1573 73.479C73.1194 73.519 73.0737 73.5514 73.0229 73.5742C72.9721 73.5971 72.9172 73.61 72.8613 73.6121C65.8328 73.891 58.7522 74.0432 51.7064 74.0432Z" fill="black"/>
</g>
<defs>
<clipPath id="clip0_3_559">
<rect width="58" height="72" fill="white" transform="translate(25 18)"/>
</clipPath>
</defs>
</svg>
