<svg width="108" height="108" viewBox="0 0 108 108" fill="none" xmlns="http://www.w3.org/2000/svg">
<g clip-path="url(#clip0_3_690)">
<path d="M34.7573 49.0106C34.8802 55.39 34.6712 61.1737 34.8187 68.4592C34.8925 72.257 34.6466 73.2996 36.0479 75.3227C37.7073 77.8049 40.8786 79.0461 43.9392 79.8031C60.6929 84.0478 70.2682 79.5922 73.4395 76.6755C75.2218 75.0496 75.4061 72.3315 75.4061 70.0106C75.4061 63.1471 75.2341 59.1879 75.2341 49.2092C75.2341 48.39 74.3613 47.8563 73.7713 47.2358C73.1813 46.6152 73.1322 46.5656 72.0259 46.4166C62.7087 45.1258 51.4249 44.7659 34.7573 49.0106Z" fill="white"/>
<path d="M56.8947 82.0001C52.4772 81.9629 48.0809 81.3793 43.804 80.2625C39.76 79.2323 37.0926 77.7057 35.6668 75.6455C34.4376 73.8334 34.4376 72.6792 34.4376 70.1348C34.4376 69.6508 34.4376 69.1295 34.4376 68.5213C34.3639 64.7979 34.4376 61.3972 34.4376 58.1455C34.4376 54.8937 34.4376 52.1508 34.4376 49.0728C34.4374 48.9669 34.4724 48.8641 34.5371 48.7808C34.6017 48.6975 34.6923 48.6386 34.7941 48.6135C52.2361 44.1827 63.5199 44.8157 72.2471 46.0196H72.5913C72.9226 46.0183 73.2489 46.1004 73.5408 46.2586C73.8327 46.4168 74.0809 46.6461 74.263 46.9256L74.6932 47.3352C75.0113 47.5457 75.2805 47.8234 75.4821 48.149C75.6837 48.4747 75.8129 48.8407 75.8609 49.2217C75.8609 54.6703 75.8609 58.3813 75.9469 61.6331C75.9469 64.3387 76.0207 66.8955 76.0207 70.0107C76.0207 72.6419 75.7625 75.3228 73.9065 77.0231C70.8458 79.6792 65.081 82.0001 56.8947 82.0001ZM35.2243 49.3706C35.2243 52.3245 35.2243 55.1295 35.2243 58.0586C35.2243 61.3104 35.2243 64.6614 35.2243 68.4221C35.2243 69.0302 35.2243 69.5639 35.2243 70.0355C35.2243 72.5178 35.2243 73.4487 36.3306 75.0001C37.6458 76.9362 40.141 78.3387 43.9515 79.3068C63.6183 84.2714 72.1488 77.11 73.0706 76.2784C74.73 74.876 75.0005 72.4309 75.0005 70.0107C75.0005 66.8955 75.0005 64.3511 74.9267 61.6455C74.9267 58.3689 74.8407 54.6703 74.8407 49.2341C74.8407 48.8121 74.4227 48.4398 73.9802 47.993L73.5009 47.5338C72.9723 46.9753 72.9723 46.9753 72.3823 46.9008H72.0258C63.397 45.6969 52.3221 45.0763 35.2243 49.3706Z" fill="black"/>
<path d="M55.3337 27.0923C50.6382 25.3795 47.639 27.4522 42.9067 30.1951C35.04 34.7501 26.2022 39.305 18.3232 43.8476C17.2784 44.4433 16.1229 45.3245 16.5163 46.3299C16.8371 46.8513 17.3218 47.249 17.893 47.4593C20.9167 48.9487 44.1236 58.0214 53.7358 61.1118C54.776 61.5125 55.8797 61.7186 56.9931 61.7199C58.2671 61.554 59.4865 61.0954 60.5577 60.3795C69.3217 55.415 80.7162 49.5941 89.4802 44.5799C90.7094 43.9097 91.9386 42.8547 91.3609 41.837C91.0125 41.4 90.5476 41.0727 90.0211 40.8937C78.1349 35.2465 68.2277 31.7714 55.3337 27.0923Z" fill="#ACD4F7"/>
<path d="M56.7226 62.1542C55.664 62.1057 54.6191 61.8922 53.6251 61.5212C43.9146 58.3935 20.8184 49.3829 17.7209 47.8687C17.0408 47.6131 16.4739 47.1199 16.1229 46.4786C15.705 45.4857 16.3688 44.468 18.1142 43.4503C22.0476 41.179 26.3005 38.8581 30.406 36.6116C34.5114 34.3652 38.7521 32.0691 42.6977 29.7854L43.6073 29.2517C47.8603 26.7694 50.9209 24.9822 55.5181 26.6453L58.6033 27.7747C70.1698 31.9574 79.3026 35.2215 90.2423 40.4095C90.8627 40.6264 91.4058 41.0237 91.8033 41.5513C91.9181 41.7338 91.9928 41.939 92.0225 42.1531C92.0522 42.3672 92.0362 42.5852 91.9754 42.7925C91.7788 43.5371 91.029 44.2818 89.7629 45.0141C85.3748 47.4964 80.2491 50.2641 75.2832 52.9201C70.3173 55.5762 65.1671 58.2694 60.8035 60.7517C59.673 61.5024 58.3856 61.9782 57.0422 62.1418L56.7226 62.1542ZM52.0518 26.9308C49.3967 26.9308 47.1351 28.2712 44.0498 30.0584L43.1279 30.5921C39.1946 32.8758 34.9539 35.1967 30.8362 37.4308C26.7184 39.6648 22.5024 41.9857 18.5444 44.2694C17.8315 44.679 16.6761 45.5106 16.9465 46.1187C17.2353 46.5229 17.6379 46.83 18.1019 46.9999C21.0151 48.4396 44.3202 57.562 53.8832 60.6524C54.8675 61.0362 55.9133 61.2339 56.9685 61.2357C58.1657 61.084 59.3131 60.6596 60.3241 59.9946C64.7123 57.5123 69.838 54.7322 74.8038 52.0762C79.7697 49.4201 84.8831 46.6896 89.2589 44.1825C90.2669 43.6116 90.906 43.0159 91.029 42.5318C91.0525 42.4575 91.0592 42.3787 91.0486 42.3014C91.0379 42.224 91.0102 42.1501 90.9675 42.085C90.6509 41.7336 90.2543 41.4653 89.8121 41.3031C78.9216 36.14 69.8134 32.8262 58.2714 28.6435L55.1739 27.5265C54.1758 27.1448 53.119 26.9431 52.0518 26.9308V26.9308Z" fill="black"/>
<path d="M55.3337 40.4716C54.3954 40.3653 53.4455 40.4757 52.5557 40.7943C52.1124 40.9608 51.7353 41.2694 51.4823 41.6729C51.2292 42.0764 51.114 42.5525 51.1545 43.0284C51.247 43.3853 51.4291 43.7122 51.6831 43.9774C51.9372 44.2426 52.2547 44.4373 52.6049 44.5425C53.306 44.7518 54.0412 44.8193 54.7682 44.7411C55.5838 44.7636 56.3929 44.5891 57.1283 44.2323C57.4951 44.052 57.7934 43.7554 57.9776 43.3879C58.1618 43.0203 58.2218 42.602 58.1485 42.1968C57.9228 41.6438 57.5279 41.1781 57.0215 40.8677C56.5151 40.5573 55.9237 40.4186 55.3337 40.4716V40.4716Z" fill="white"/>
<path d="M54.1045 45.2252C53.5422 45.2402 52.9814 45.1605 52.4451 44.9893C52.0167 44.8594 51.6297 44.6178 51.3233 44.2888C51.0169 43.9598 50.8017 43.555 50.6996 43.1152C50.6358 42.5353 50.7657 41.9505 51.0685 41.4536C51.3714 40.9567 51.8299 40.5762 52.3713 40.3723C53.3188 40.0265 54.3319 39.9034 55.3336 40.0124V40.0124C56.0308 39.9631 56.7251 40.1432 57.3123 40.5259C57.8995 40.9085 58.3482 41.473 58.591 42.1347C58.686 42.6395 58.6179 43.1617 58.3965 43.6243C58.1752 44.0869 57.8124 44.4654 57.3618 44.7039C56.5592 45.1006 55.6738 45.2964 54.7805 45.2748L54.1045 45.2252ZM54.547 40.8936C53.9271 40.8712 53.3089 40.9725 52.7278 41.1915C52.3871 41.3299 52.0988 41.5739 51.9044 41.8884C51.71 42.203 51.6196 42.5717 51.6461 42.9415C51.7215 43.2186 51.8663 43.4715 52.0665 43.6758C52.2667 43.8801 52.5156 44.029 52.7892 44.1081C53.4372 44.2869 54.1118 44.3457 54.7805 44.2819C55.5258 44.3005 56.2656 44.1477 56.9439 43.8351C57.2154 43.6967 57.4379 43.4769 57.581 43.2058C57.724 42.9348 57.7805 42.6257 57.7428 42.3209C57.4847 41.5266 56.5628 40.9805 55.3336 40.8936H54.547Z" fill="black"/>
<path d="M27.0626 71.9221C26.9494 71.9205 26.8404 71.8785 26.7549 71.8036C26.6694 71.7286 26.6129 71.6255 26.5955 71.5125C25.9406 65.872 26.0067 60.1698 26.7922 54.5462C26.8647 53.4622 27.2117 52.4151 27.8001 51.5054C28.4351 50.7578 29.2351 50.1712 30.1356 49.7927C37.5804 46.0259 45.6075 43.5704 53.871 42.532C53.9912 42.5178 54.1123 42.5512 54.2086 42.6253C54.3049 42.6994 54.3689 42.8083 54.3872 42.9292C54.3958 42.9905 54.392 43.053 54.3761 43.1128C54.3601 43.1726 54.3324 43.2285 54.2945 43.2772C54.2566 43.3259 54.2094 43.3663 54.1556 43.3961C54.1018 43.4259 54.0426 43.4444 53.9816 43.4505C45.828 44.4635 37.9051 46.8727 30.5535 50.5746C29.7754 50.905 29.085 51.4151 28.5376 52.0639C28.0437 52.8467 27.756 53.7438 27.7018 54.6703C26.9174 60.2101 26.839 65.8285 27.4682 71.3884C27.4787 71.4507 27.4763 71.5144 27.4612 71.5757C27.4461 71.637 27.4187 71.6944 27.3806 71.7445C27.3425 71.7946 27.2946 71.8362 27.2399 71.8668C27.1852 71.8973 27.1249 71.9162 27.0626 71.9221V71.9221Z" fill="black"/>
<path d="M25.8334 64.8475C25.3779 67.8802 24.5522 70.8442 23.3751 73.672C23.2153 74.0691 23.0555 74.5532 23.3751 74.9131C23.5143 75.0526 23.6885 75.1513 23.879 75.1986C26.0858 75.9638 28.5005 75.8348 30.6149 74.8386C30.9093 74.728 31.1597 74.5231 31.3278 74.2553C31.3917 74.0503 31.4126 73.8341 31.3894 73.6204C31.3661 73.4067 31.2991 73.2003 31.1926 73.0142L28.2918 65.7163C28.1687 65.2976 27.9299 64.923 27.6034 64.6365C27.2101 64.3138 26.6324 64.3262 25.8334 64.8475Z" fill="white"/>
<path d="M26.743 76.1295C25.6992 76.1422 24.6605 75.9786 23.6701 75.6454C23.4041 75.5623 23.1632 75.4129 22.9695 75.2111C22.8179 74.9538 22.738 74.6601 22.738 74.3609C22.738 74.0616 22.8179 73.7679 22.9695 73.5107C24.1352 70.7262 24.9607 67.8088 25.4278 64.8228C25.4271 64.7538 25.4436 64.6859 25.4759 64.6251C25.5081 64.5644 25.555 64.5128 25.6122 64.4752C26.7676 63.6809 27.4928 63.9664 27.8247 64.2022C28.2137 64.528 28.5034 64.9583 28.6605 65.4433L31.5737 72.766C31.7083 73.0148 31.7879 73.2901 31.807 73.5729C31.8261 73.8557 31.7842 74.1394 31.6843 74.4043C31.4738 74.763 31.1487 75.0388 30.7624 75.1862C29.5093 75.8 28.1358 76.1224 26.743 76.1295V76.1295ZM26.2882 65.1206C25.8117 68.1045 24.9865 71.0209 23.8299 73.8086C23.6701 74.1933 23.6209 74.4415 23.707 74.5408C23.7959 74.6075 23.8957 74.6579 24.002 74.6898C26.0975 75.4082 28.3866 75.2838 30.3937 74.3423C30.5885 74.2664 30.7586 74.1375 30.8853 73.9699C30.996 73.7589 30.8853 73.4114 30.7501 73.1011L27.837 65.7784C27.7406 65.4429 27.5583 65.1389 27.3084 64.8972C27.0626 64.7979 26.7184 64.8724 26.2882 65.1206V65.1206Z" fill="black"/>
<path d="M27.2224 60.8387C26.5978 60.7841 25.9711 60.9162 25.4204 61.2185C24.8696 61.5209 24.4191 61.9801 24.1248 62.539C23.8552 63.1088 23.7672 63.7489 23.8728 64.3713C23.9785 64.9937 24.2727 65.5677 24.7148 66.0142C25.0633 66.3304 25.4819 66.5574 25.9354 66.6762C26.3889 66.795 26.8639 66.802 27.3207 66.6968C27.8854 66.5296 28.4118 66.2512 28.8695 65.8777C29.1297 65.6875 29.3544 65.4521 29.5332 65.1827C29.6911 64.8629 29.7711 64.5098 29.7668 64.1525C29.7932 63.3869 29.5531 62.6362 29.0883 62.0308C28.6234 61.4254 27.9632 61.0036 27.2224 60.8387V60.8387Z" fill="white"/>
<path d="M26.657 67.2428C25.8226 67.2411 25.0195 66.922 24.4076 66.3492C23.8842 65.84 23.5353 65.1755 23.4115 64.4524C23.2877 63.7292 23.3955 62.985 23.7192 62.3279C24.0591 61.6892 24.5763 61.1645 25.2074 60.8183C25.8384 60.4722 26.5558 60.3196 27.2715 60.3794C28.1277 60.5552 28.8942 61.0323 29.4345 61.7255C29.9747 62.4188 30.2537 63.2833 30.2216 64.1648C30.2368 64.5979 30.1348 65.027 29.9266 65.406C29.7272 65.7409 29.4589 66.0287 29.1399 66.2499C28.6382 66.6646 28.0562 66.969 27.4313 67.1436C27.1779 67.2071 26.918 67.2404 26.657 67.2428ZM26.9397 61.2854C26.4584 61.299 25.9891 61.4404 25.5791 61.6953C25.1692 61.9502 24.8329 62.3097 24.6042 62.7375C24.3429 63.2131 24.2434 63.7621 24.3211 64.3002C24.3989 64.8384 24.6495 65.3359 25.0344 65.7162C25.326 65.9792 25.6755 66.1682 26.0539 66.2675C26.4322 66.3668 26.8286 66.3735 27.2101 66.2872C27.7153 66.1447 28.1847 65.8951 28.5868 65.5549C28.7997 65.4041 28.9831 65.2147 29.1276 64.9964C29.2517 64.751 29.311 64.4774 29.2997 64.2021C29.329 63.5509 29.1327 62.9097 28.7446 62.3888C28.3566 61.8679 27.8009 61.4996 27.1732 61.3475L26.9397 61.2854Z" fill="black"/>
<path d="M72.3824 75.3104C72.3422 75.3042 72.3058 75.2828 72.2807 75.2505C72.2555 75.2182 72.2436 75.1775 72.2471 75.1366C72.4356 72.5884 72.4643 70.0307 72.3332 67.4788C72.3315 67.4582 72.334 67.4375 72.3407 67.418C72.3473 67.3985 72.3579 67.3806 72.3718 67.3654C72.3857 67.3502 72.4025 67.3381 72.4213 67.3299C72.44 67.3216 72.4602 67.3174 72.4807 67.3175C72.5004 67.3138 72.5206 67.3146 72.54 67.3198C72.5594 67.325 72.5773 67.3344 72.5926 67.3475C72.6079 67.3606 72.6201 67.3769 72.6284 67.3953C72.6367 67.4137 72.6408 67.4338 72.6405 67.454C72.7675 70.0227 72.7347 72.5969 72.5421 75.1614C72.539 75.202 72.5209 75.24 72.4912 75.2676C72.4616 75.2952 72.4227 75.3105 72.3824 75.3104V75.3104Z" fill="black"/>
<path d="M70.5386 75.9432C70.5181 75.9432 70.4979 75.939 70.4791 75.9308C70.4604 75.9225 70.4436 75.9104 70.4297 75.8952C70.4158 75.8801 70.4052 75.8622 70.3986 75.8426C70.3919 75.8231 70.3894 75.8024 70.3911 75.7818L70.5386 71.9219C70.5461 71.8832 70.5657 71.8479 70.5944 71.8211C70.6231 71.7943 70.6595 71.7775 70.6984 71.7729C70.7844 71.7729 70.8582 71.8598 70.8459 71.9343L70.6984 75.8315C70.6876 75.8652 70.6661 75.8945 70.6372 75.9147C70.6083 75.9349 70.5737 75.9449 70.5386 75.9432V75.9432Z" fill="black"/>
<path d="M37.0558 63.0108C37.0156 63.0076 36.9781 62.9893 36.9507 62.9593C36.9233 62.9294 36.9082 62.8901 36.9083 62.8494C37.0681 60.9629 37.1542 59.0515 37.1419 57.165C37.1402 57.1444 37.1427 57.1237 37.1494 57.1042C37.156 57.0847 37.1666 57.0668 37.1805 57.0516C37.1943 57.0364 37.2112 57.0243 37.2299 57.0161C37.2487 57.0078 37.2689 57.0036 37.2894 57.0037C37.3297 57.0035 37.3686 57.0188 37.3982 57.0465C37.4279 57.0741 37.4461 57.112 37.4492 57.1526C37.4492 59.0639 37.3754 60.9753 37.2156 62.8742C37.2141 62.8938 37.2087 62.9129 37.1998 62.9304C37.1909 62.9479 37.1787 62.9634 37.1639 62.9761C37.149 62.9888 37.1318 62.9984 37.1133 63.0043C37.0947 63.0103 37.0752 63.0125 37.0558 63.0108V63.0108Z" fill="black"/>
</g>
<defs>
<clipPath id="clip0_3_690">
<rect width="76" height="56" fill="white" transform="translate(16 26)"/>
</clipPath>
</defs>
</svg>
