<?xml version="1.0" encoding="UTF-8"?>
<svg xmlns="http://www.w3.org/2000/svg" width="1080" height="1920" viewBox="0 0 1080 1920">
  <rect width="1080" height="1920" fill="#175CD3"/>
  <svg xmlns="http://www.w3.org/2000/svg" width="720" height="720" fill="#FFF5D6" viewBox="0 0 256 256" x="180" y="600" aria-hidden="true"><path d="M223.68,66.15,135.68,18a15.88,15.88,0,0,0-15.36,0l-88,48.17a16,16,0,0,0-8.32,14v95.64a16,16,0,0,0,8.32,14l88,48.17a15.88,15.88,0,0,0,15.36,0l88-48.17a16,16,0,0,0,8.32-14V80.18A16,16,0,0,0,223.68,66.15ZM128,120,47.65,76,128,32l80.35,44Zm8,99.64V133.83l80-43.78v85.76Z"></path></svg>
</svg>
