<svg width="108" height="108" viewBox="0 0 108 108" fill="none" xmlns="http://www.w3.org/2000/svg">
<g clip-path="url(#clip0_3_536)">
<path d="M46 72.73C45.8124 70.5227 45.1977 68.3728 44.19 66.4C43.6711 65.3514 42.9968 64.3872 42.19 63.54C41.33 62.68 40.28 61.99 39.33 61.2C36.3806 58.791 34.4631 55.3461 33.97 51.57C33.63 48.7 33.16 45.57 33.91 42.73C34.47 40.66 38.06 34.91 40.19 33.13C43.64 30.27 48.75 28.51 53.4 27.93C58.0486 27.3322 62.7675 28.2102 66.89 30.44C69.3574 31.8216 71.4763 33.749 73.0847 36.0749C74.6931 38.4008 75.7484 41.0637 76.17 43.86C76.4783 46.6108 76.2136 49.3957 75.3927 52.0392C74.5717 54.6828 73.2123 57.1277 71.4 59.22C69.89 61.02 68.09 62.61 66.59 64.42C64.5393 66.8632 63.0356 69.7171 62.18 72.79C60.2453 73.0551 58.2916 73.1555 56.34 73.09H51.34C49.5529 73.1248 47.7662 73.0044 46 72.73V72.73Z" fill="white"/>
<path d="M45 73.1001C50.942 73.6201 56.918 73.6201 62.86 73.1001C63.19 77.6201 63.52 80.3701 62.17 84.7401C61.9004 85.8576 61.4069 86.9088 60.7193 87.83C60.0318 88.7513 59.1645 89.5236 58.17 90.1001C55.61 91.3501 52.46 90.7301 49.65 90.0401C48.5546 89.8456 47.5101 89.4306 46.58 88.8201C44.81 87.4801 44.72 85.1001 44.75 83.0201C44.82 78.9401 44.9 76.7601 45 73.1001Z" fill="#ACD4F7"/>
<g opacity="0.13">
<path d="M76.56 45.8501C76.4405 45.7456 76.3007 45.6671 76.1494 45.6193C75.998 45.5715 75.8384 45.5556 75.6806 45.5725C75.5228 45.5894 75.3702 45.6388 75.2324 45.7175C75.0946 45.7963 74.9746 45.9027 74.88 46.0301C74.63 46.5601 74.72 46.3001 74.61 47.0301C74.61 47.1301 74.61 47.2301 74.61 47.3301C74.54 47.6301 74.3 48.6501 74.22 48.8801C74.36 48.5801 74.36 48.5901 74.22 48.8801C73.7131 50.3317 73.0421 51.7207 72.22 53.0201C71.7562 53.9514 71.1785 54.8214 70.5 55.6101C69.37 57.0101 66.24 59.6101 64.44 61.9201C63.91 62.5601 62.75 64.0401 62.58 64.2901C61.8892 65.0398 61.2667 65.8497 60.72 66.7101C59.72 68.4701 59.81 68.4401 59.17 69.7101C58.6796 70.5791 58.3701 71.5384 58.26 72.5301C58.2543 72.5933 58.2543 72.6569 58.26 72.7201C58.0791 72.9865 57.9601 73.29 57.9117 73.6084C57.8632 73.9268 57.8866 74.2519 57.98 74.5601C58.55 76.2901 58.55 78.2901 58.41 81.4601C58.27 84.6301 58.41 83.4601 57.51 86.4601C57.2891 87.1773 56.9513 87.8531 56.51 88.4601C56.2718 88.7499 56.1072 89.093 56.03 89.4601C55.9587 89.8364 56.0284 90.2258 56.2257 90.554C56.4231 90.8823 56.7342 91.1265 57.1 91.2401C57.2803 91.1453 57.4541 91.0384 57.62 90.9201C58.36 90.4001 59.09 89.8601 59.84 89.3601L61 88.7101C61.5867 87.5286 62.0363 86.2838 62.34 85.0001C62.85 82.3101 62.98 81.7901 63.49 78.8301C63.655 77.5387 63.655 76.2315 63.49 74.9401C63.4897 74.0794 63.2205 73.2403 62.72 72.5401V72.5401L62.22 72.6001L61.35 72.6801C62.2581 69.5004 63.8179 66.5445 65.93 64.0001C67.41 62.3801 69.07 60.8901 70.65 59.3301C72.1422 57.9645 73.4348 56.3958 74.49 54.6701C75.05 53.4801 74.96 53.5901 75.33 52.7301C75.38 52.5901 75.33 52.7301 75.24 52.8801C75.45 52.4501 75.65 52.0201 75.83 51.5801C76.1176 50.9151 76.3193 50.2161 76.43 49.5001C76.73 48.1001 77.29 46.6101 76.56 45.8501Z" fill="black"/>
</g>
<g opacity="0.13">
<path d="M59 70.06L59.12 69.81V69.72C59.06 69.83 59 69.94 59 70.06Z" fill="black"/>
</g>
<path d="M54.5 91.6299C53.7609 91.6273 53.0227 91.5772 52.29 91.4799C50.5 91.2199 46.17 90.2799 44.78 86.9899C44.371 85.8221 44.1944 84.5855 44.26 83.3499C44.26 81.2899 44.26 79.6999 44.26 78.0999C44.26 76.4999 44.26 74.9099 44.26 72.8499C44.2578 72.7797 44.271 72.7098 44.2987 72.6453C44.3265 72.5807 44.368 72.5231 44.4205 72.4763C44.4729 72.4296 44.535 72.395 44.6023 72.3748C44.6696 72.3547 44.7405 72.3496 44.81 72.3599C50.8408 72.7758 56.89 72.8593 62.93 72.6099C63.0611 72.5988 63.1913 72.6398 63.2924 72.724C63.3935 72.8082 63.4573 72.9289 63.47 73.0599C63.8962 76.9454 63.68 80.8746 62.83 84.6899C62.6594 86.3635 62.0257 87.9565 61 89.2899C59.25 91.1999 56.57 91.6299 54.5 91.6299ZM45.19 73.3899C45.19 75.1899 45.19 76.6399 45.19 78.0999C45.19 79.5599 45.19 81.2899 45.19 83.3499C45.118 84.4518 45.2676 85.5569 45.63 86.5999C46.46 88.5999 48.98 90.0199 52.37 90.4999C55.76 90.9799 58.68 90.2799 60.14 88.6299C61.0446 87.435 61.5986 86.0119 61.74 84.5199C62.5335 80.9476 62.7596 77.2726 62.41 73.6299C58.91 73.8499 49 73.7199 45.19 73.3899Z" fill="black"/>
<path d="M61.71 73.5001H61.63C61.5662 73.4892 61.5051 73.4658 61.4504 73.4312C61.3957 73.3966 61.3483 73.3515 61.3111 73.2985C61.2739 73.2455 61.2476 73.1857 61.2337 73.1224C61.2198 73.0592 61.2185 72.9938 61.23 72.9301C62.02 68.4501 65.33 64.9301 68.54 61.4601C71.54 58.2701 74.59 54.9801 75.54 51.0301C76.1331 47.0719 75.6779 43.0274 74.22 39.3001C73.1624 36.3524 71.2207 33.803 68.66 32.0001C64.18 29.0001 56.47 26.9401 50.39 28.6101C44.6 30.2101 39.87 33.2001 37.07 37.0001C34.4889 40.5629 33.3657 44.9769 33.93 49.3401C34.5487 53.7497 36.4909 57.8678 39.5 61.1501C39.93 61.6401 40.39 62.1501 40.84 62.6001C41.8168 63.5889 42.7192 64.6484 43.54 65.7701C44.9473 67.7937 45.7297 70.186 45.79 72.6501C45.7913 72.7144 45.78 72.7784 45.7566 72.8384C45.7331 72.8983 45.6982 72.9531 45.6536 72.9995C45.609 73.046 45.5557 73.0832 45.4968 73.109C45.4378 73.1348 45.3744 73.1488 45.31 73.1501C45.1808 73.1502 45.0565 73.1003 44.9633 73.0108C44.8701 72.9213 44.8152 72.7992 44.81 72.6701C44.7491 70.3993 44.0261 68.1957 42.73 66.3301C41.9384 65.2645 41.0658 64.2615 40.12 63.3301C39.67 62.8501 39.2 62.3301 38.76 61.8501C35.6356 58.4026 33.6275 54.0903 33 49.4801C32.4179 44.8825 33.6046 40.2355 36.32 36.4801C39.25 32.4801 44.17 29.3601 50.18 27.7101C56.54 25.9601 64.59 28.1601 69.25 31.2301C71.9803 33.1319 74.0553 35.8321 75.19 38.9601C76.6849 42.8739 77.1363 47.1091 76.5 51.2501C75.5 55.4601 72.32 58.8401 69.26 62.1201C66.01 65.6101 62.94 68.9001 62.2 73.1201C62.1747 73.2302 62.1121 73.3282 62.0228 73.3975C61.9335 73.4667 61.823 73.503 61.71 73.5001V73.5001Z" fill="black"/>
<path d="M56.85 73.2599C56.7191 73.2573 56.5945 73.2035 56.5029 73.11C56.4113 73.0165 56.36 72.8908 56.36 72.7599V72.6899C56.36 68.4499 56.61 64.0199 56.98 59.5199C57.0622 57.6953 57.3712 55.8881 57.9 54.1399C56.5599 53.779 55.3541 53.0353 54.43 51.9999C54.31 51.8599 54.2 51.7199 54.09 51.5699C53.93 51.8599 53.76 52.1499 53.58 52.4299C52.44 54.2299 51.19 55.1599 49.75 55.2699C49.3544 55.3004 48.9564 55.2701 48.57 55.1799C48.9142 56.3182 49.2013 57.4729 49.43 58.6399C50.3592 63.2158 50.7684 67.8821 50.65 72.5499C50.65 72.6825 50.5973 72.8097 50.5036 72.9035C50.4098 72.9972 50.2826 73.0499 50.15 73.0499C50.0174 73.0499 49.8902 72.9972 49.7964 72.9035C49.7027 72.8097 49.65 72.6825 49.65 72.5499C49.7654 67.9593 49.3629 63.3703 48.45 58.8699C48.1836 57.5151 47.8295 56.1789 47.39 54.8699L46.84 54.6399C44.84 53.7399 42.54 52.5499 41.26 50.5499C40.9719 50.2198 40.8002 49.8041 40.7713 49.3669C40.7424 48.9297 40.8579 48.4951 41.1 48.1299C41.3794 47.8303 41.7406 47.6193 42.1389 47.5233C42.5371 47.4273 42.9548 47.4505 43.34 47.5899C43.9826 47.825 44.5541 48.2209 45 48.7399C46.4061 50.2878 47.4844 52.1043 48.17 54.0799C48.6433 54.2535 49.1463 54.3317 49.65 54.3099C50.76 54.2199 51.77 53.4399 52.72 51.9199C52.99 51.4999 53.24 51.0799 53.46 50.6499C52.7077 49.1536 52.2849 47.5134 52.22 45.8399C51.9751 43.9514 52.4189 42.0379 53.47 40.4499C53.6157 40.2082 53.8315 40.0165 54.0887 39.9004C54.3459 39.7843 54.6324 39.7493 54.91 39.7999C55.2226 39.9003 55.4888 40.1097 55.66 40.3899C56.0994 41.1588 56.383 42.0067 56.4945 42.8852C56.606 43.7637 56.5433 44.6556 56.31 45.5099C55.9762 47.2847 55.3973 49.0045 54.59 50.6199C54.7621 50.8805 54.9491 51.1309 55.15 51.3699C55.9658 52.2791 57.035 52.9235 58.22 53.2199L58.29 53.0599C59.2409 51.0286 60.7674 49.3213 62.68 48.1499C63.0685 47.8601 63.546 47.7151 64.03 47.7399C64.2418 47.7641 64.4442 47.8408 64.6188 47.963C64.7934 48.0853 64.9348 48.2492 65.03 48.4399C65.167 48.8026 65.2202 49.1916 65.1856 49.5778C65.151 49.964 65.0294 50.3374 64.83 50.6699C64.0494 52.2407 62.7076 53.4613 61.07 54.0899C60.3475 54.3219 59.5838 54.3969 58.83 54.3099C58.3315 56.0312 58.0526 57.8086 58 59.5999C57.63 64.0699 57.43 68.4799 57.39 72.6999V72.7699C57.3889 72.8382 57.3737 72.9056 57.3455 72.9678C57.3173 73.0301 57.2767 73.0859 57.2261 73.1318C57.1755 73.1777 57.116 73.2128 57.0513 73.2348C56.9866 73.2568 56.9181 73.2654 56.85 73.2599ZM42.62 48.4299C42.4853 48.4208 42.3502 48.4411 42.2241 48.4895C42.0981 48.5378 41.9841 48.613 41.89 48.7099C41.59 49.0999 41.98 49.7899 42.11 49.9899C43.3566 51.5975 45.0203 52.8323 46.92 53.5599C46.2995 52.0322 45.4124 50.627 44.3 49.4099C43.9651 49.0078 43.5356 48.6951 43.05 48.4999C42.9117 48.4524 42.7663 48.4287 42.62 48.4299V48.4299ZM59.26 53.3599C59.7818 53.3838 60.3036 53.3127 60.8 53.1499C62.2071 52.5896 63.3502 51.5179 64 50.1499C64.1188 49.9595 64.1962 49.7463 64.2272 49.5241C64.2582 49.3018 64.2421 49.0755 64.18 48.8599C64.1613 48.8091 64.1271 48.7653 64.0823 48.7348C64.0374 48.7044 63.9842 48.6887 63.93 48.6899C63.672 48.7006 63.4238 48.7914 63.22 48.9499C61.5054 50.0109 60.131 51.5414 59.26 53.3599V53.3599ZM54.66 40.7499C54.4967 40.7968 54.3572 40.9041 54.27 41.0499C53.3614 42.4479 53.005 44.1338 53.27 45.7799C53.2974 47.0624 53.5443 48.3308 54 49.5299C54.6075 48.1847 55.0506 46.7712 55.32 45.3199C55.69 43.3799 55.53 41.9899 54.83 40.9499C54.73 40.7999 54.67 40.7599 54.64 40.7499H54.66Z" fill="black"/>
<path d="M79.19 32.9C79.102 32.8975 79.0161 32.8722 78.9408 32.8266C78.8654 32.7811 78.8031 32.7168 78.76 32.64C78.7087 32.5231 78.7052 32.3908 78.75 32.2713C78.7948 32.1517 78.8845 32.0544 79 32L84.19 29C84.3427 28.8848 84.5287 28.8225 84.72 28.8225C84.9113 28.8225 85.0973 28.8848 85.25 29C85.321 29.0545 85.3766 29.1264 85.4117 29.2088C85.4467 29.2911 85.4599 29.3811 85.45 29.47C85.4 29.91 85.4 29.93 79.45 32.92C79.3629 32.9313 79.2744 32.9245 79.19 32.9Z" fill="black"/>
<path d="M46.15 22.8099C46.0527 22.809 45.9577 22.7803 45.8762 22.7271C45.7947 22.674 45.7301 22.5986 45.69 22.5099L43.16 16.6899C43.1268 16.629 43.1069 16.5617 43.1017 16.4925C43.0965 16.4234 43.106 16.3539 43.1296 16.2886C43.1533 16.2234 43.1905 16.1639 43.2388 16.1142C43.2871 16.0644 43.3455 16.0255 43.41 15.9999C43.5308 15.9496 43.6666 15.9486 43.7881 15.9972C43.9096 16.0458 44.0073 16.1401 44.06 16.2599L46.6 22.1199C46.6504 22.2407 46.6514 22.3765 46.6027 22.498C46.5541 22.6196 46.4598 22.7172 46.34 22.7699C46.2805 22.7976 46.2156 22.8113 46.15 22.8099V22.8099Z" fill="black"/>
<path d="M29.09 35.8099H29L23.28 34.5899C23.1091 34.5742 22.9461 34.5105 22.8098 34.4061C22.6736 34.3017 22.5696 34.1609 22.51 33.9999C22.4839 33.9071 22.4831 33.809 22.5077 33.7158C22.5324 33.6226 22.5815 33.5377 22.65 33.4699C22.94 33.1899 23.08 33.0499 29.23 34.8399C29.3626 34.8585 29.4824 34.929 29.563 35.0359C29.6437 35.1428 29.6786 35.2773 29.66 35.4099C29.6414 35.5425 29.5709 35.6623 29.4641 35.743C29.3572 35.8236 29.2226 35.8585 29.09 35.8399V35.8099Z" fill="black"/>
<path d="M21.49 58.4301C21.3767 58.4315 21.2664 58.3936 21.1779 58.3229C21.0894 58.2521 21.0281 58.1529 21.0045 58.0421C20.981 57.9312 20.9965 57.8157 21.0486 57.715C21.1006 57.6144 21.1859 57.5349 21.29 57.4901L27.21 54.8501C27.3293 54.797 27.4649 54.7936 27.5868 54.8404C27.7087 54.8873 27.807 54.9807 27.86 55.1001C27.913 55.2194 27.9165 55.3549 27.8696 55.4768C27.8227 55.5987 27.7293 55.697 27.61 55.7501L21.69 58.3901C21.6273 58.4185 21.5588 58.4322 21.49 58.4301V58.4301Z" fill="black"/>
<path d="M63.56 22.7C63.5041 22.7128 63.4459 22.7128 63.39 22.7C63.3217 22.6775 63.259 22.6405 63.2063 22.5916C63.1536 22.5426 63.1121 22.4829 63.0845 22.4165C63.057 22.35 63.0441 22.2784 63.0468 22.2065C63.0495 22.1347 63.0676 22.0642 63.1 22L65.19 16.51C65.2132 16.4492 65.2483 16.3937 65.2931 16.3467C65.338 16.2996 65.3918 16.262 65.4513 16.2359C65.5109 16.2098 65.5751 16.1959 65.6401 16.1949C65.7051 16.1939 65.7697 16.2058 65.83 16.23C65.8904 16.2521 65.9457 16.2862 65.9927 16.3301C66.0396 16.374 66.0773 16.4269 66.1034 16.4857C66.1295 16.5445 66.1436 16.6079 66.1447 16.6722C66.1458 16.7365 66.134 16.8003 66.11 16.86L64 22.38C63.9643 22.4694 63.9041 22.5469 63.8262 22.6036C63.7484 22.6602 63.6561 22.6936 63.56 22.7V22.7Z" fill="black"/>
<path d="M86.62 54.1699C86.5575 54.1841 86.4925 54.1841 86.43 54.1699L80.68 51.7999C80.6202 51.7756 80.5659 51.7398 80.52 51.6945C80.4741 51.6492 80.4375 51.5953 80.4125 51.5358C80.3874 51.4764 80.3743 51.4126 80.3738 51.3481C80.3734 51.2836 80.3857 51.2197 80.41 51.1599C80.4343 51.1002 80.4701 51.0458 80.5154 50.9999C80.5607 50.954 80.6146 50.9175 80.6741 50.8924C80.7335 50.8673 80.7973 50.8542 80.8618 50.8538C80.9263 50.8533 80.9902 50.8656 81.05 50.8899L86.8 53.2199C86.9326 53.2438 87.0503 53.3194 87.1272 53.43C87.2041 53.5407 87.2339 53.6773 87.21 53.8099C87.1861 53.9425 87.1106 54.0602 86.9999 54.1371C86.8893 54.214 86.7526 54.2438 86.62 54.2199V54.1699Z" fill="black"/>
</g>
<defs>
<clipPath id="clip0_3_536">
<rect width="66.11" height="75.63" fill="white" transform="translate(21 16)"/>
</clipPath>
</defs>
</svg>
