<svg width="108" height="108" viewBox="0 0 108 108" fill="none" xmlns="http://www.w3.org/2000/svg">
<g clip-path="url(#clip0_3_678)">
<path d="M56.8683 109.256C55.6378 109.187 54.4364 108.861 53.3442 108.301C52.2519 107.741 51.294 106.959 50.5342 106.007C47.7854 102.658 47.1195 98.1376 46.6756 94.4873L45.2244 83.8883C45.2098 83.7783 45.2175 83.6666 45.2469 83.5596C45.2763 83.4525 45.327 83.3522 45.396 83.2644C45.4649 83.1765 45.5509 83.1029 45.6488 83.0476C45.7468 82.9923 45.855 82.9565 45.9671 82.9422C46.0792 82.9279 46.1931 82.9354 46.3022 82.9643C46.4114 82.9932 46.5136 83.0428 46.6032 83.1105C46.6928 83.1781 46.7679 83.2624 46.8243 83.3585C46.8806 83.4546 46.9171 83.5606 46.9317 83.6706L48.3659 94.2697C48.8439 97.7022 49.4244 101.972 51.7805 104.952C52.4682 105.902 53.4191 106.639 54.5205 107.075C55.6219 107.511 56.8277 107.629 57.9951 107.414C60.3342 106.727 61.6659 104.216 62.5707 102.089C64.9134 96.6753 66.3434 90.9241 66.8049 85.0603C66.9585 83.0008 66.9927 80.9078 67.0268 78.8817C67.0268 77.8604 67.0268 76.8557 67.0268 75.8343C67.1805 70.6938 67.7439 64.1134 70.7317 58.3366C73.0817 54.284 76.0078 50.5799 79.422 47.3357C81.7386 45.0335 83.8839 42.5714 85.8415 39.9683C86.2674 39.5116 86.4995 38.9127 86.4903 38.2938C86.4622 38.1861 86.409 38.0861 86.335 38.0019C86.2609 37.9176 86.168 37.8514 86.0634 37.8083C85.2687 37.5283 84.3948 37.5583 83.622 37.892C80.5976 39.3619 77.9574 41.4928 75.9049 44.1208C73.795 46.7077 71.1984 48.8734 68.2561 50.5004C68.0999 50.5732 67.9249 50.5977 67.7542 50.5708C67.5834 50.5439 67.4251 50.4668 67.3 50.3497L65.5927 48.7924C65.5063 48.7069 65.4389 48.6047 65.3948 48.4923C65.3507 48.3799 65.3309 48.2597 65.3366 48.1394C65.8395 41.4508 65.8395 34.735 65.3366 28.0464C65.3182 25.3928 64.6569 22.7815 63.4073 20.4278C63.2594 20.1651 63.0556 19.9367 62.8098 19.758C62.7023 19.7109 62.586 19.6866 62.4683 19.6866C62.3506 19.6866 62.2343 19.7109 62.1268 19.758C61.9076 19.8289 61.7054 19.9425 61.5322 20.0922C61.3591 20.2418 61.2187 20.4244 61.1195 20.6287C60.7866 21.5695 60.7043 22.5782 60.8805 23.559C61.481 31.4013 60.9928 39.2873 59.4293 47.0008C59.3889 47.1957 59.2791 47.3701 59.1196 47.4928C58.96 47.6155 58.7611 47.6785 58.5585 47.6706C58.3566 47.6635 58.1641 47.585 58.0166 47.4496C57.8691 47.3142 57.7766 47.131 57.7561 46.9338C56.9195 39.332 51.5585 32.6343 47.2561 27.2427C46.729 26.5146 46.0963 25.8659 45.3781 25.3171C45.0833 25.1024 44.7426 24.9562 44.3818 24.8895C44.021 24.8228 43.6494 24.8373 43.2951 24.932C42.7975 25.2233 42.4161 25.6727 42.2143 26.2055C42.0125 26.7384 42.0023 27.3229 42.1854 27.8622C44.4307 34.4861 49.7288 38.7309 50.7049 46.465C50.7259 46.6469 50.6855 46.8306 50.5899 46.9878C50.4943 47.1451 50.3488 47.2673 50.1756 47.3357C50.0041 47.4084 49.8125 47.4215 49.6324 47.3728C49.4523 47.3241 49.2946 47.2165 49.1854 47.0678L48.5707 46.2641C47.386 44.5777 46.0115 43.0275 44.4732 41.6427C43.6271 40.9164 42.5979 40.426 41.4927 40.2228C40.3876 40.0196 39.2471 40.1109 38.1903 40.4873C32.3854 43.6018 27.9464 49.5962 25.1464 58.3199C24.7707 59.4585 24.7537 60.1952 25.1464 60.5636C25.3611 60.7239 25.6176 60.8215 25.8864 60.8452C26.1552 60.8689 26.4254 60.8177 26.6659 60.6976C27.3371 60.3335 27.9197 59.8308 28.3732 59.2241C29.5889 57.8698 30.6641 56.4002 31.5829 54.8371C32.2829 53.7487 33 52.6269 34.0415 51.2538C35.3537 49.9204 36.7945 48.7147 38.3439 47.6538C38.8842 47.2386 39.5166 46.954 40.1899 46.8231C40.8633 46.6922 41.5586 46.7187 42.2195 46.9004C44.6098 47.7041 45.1732 50.4836 45.3781 52.5097L46.1805 60.1952C46.1997 60.4166 46.1303 60.6366 45.9868 60.8085C45.8434 60.9805 45.6373 61.0908 45.4122 61.1162C45.1884 61.1348 44.966 61.0662 44.7934 60.9251C44.6208 60.7841 44.5119 60.582 44.4903 60.3627L43.6878 52.6771C43.4317 50.1822 42.8 48.8594 41.6732 48.4911C41.2703 48.3912 40.8492 48.3847 40.4433 48.4718C40.0374 48.559 39.6576 48.7376 39.3342 48.9934C37.9236 49.9961 36.6041 51.1166 35.3903 52.3422C34.4 53.6483 33.6829 54.7366 33.0342 55.8083C32.0461 57.445 30.9028 58.9867 29.6195 60.4129C28.9963 61.2029 28.2036 61.8488 27.2976 62.305C26.742 62.5688 26.1177 62.6605 25.5077 62.5677C24.8977 62.475 24.331 62.2023 23.8829 61.7859C23.4856 61.2242 23.2437 60.5709 23.1809 59.89C23.1181 59.2091 23.2364 58.5239 23.5244 57.9013C26.5122 48.759 31.1732 42.4297 37.3878 39.0976C38.7446 38.5546 40.2289 38.3939 41.6738 38.6335C43.1186 38.8731 44.4666 39.5036 45.5659 40.4538C46.5916 41.3178 47.5242 42.2829 48.3488 43.3338C46.9202 37.5424 42.5153 33.5879 40.7342 28.1804C40.4378 27.2434 40.4935 26.2333 40.8913 25.3333C41.2891 24.4332 42.0026 23.7027 42.9024 23.2743C43.5081 23.0776 44.1531 23.0266 44.7831 23.1257C45.413 23.2248 46.0094 23.471 46.522 23.8436C47.3731 24.4797 48.1115 25.2491 48.7073 26.1208C52.3268 30.6418 56.6805 36.1673 58.6268 42.3125C59.5541 36.144 59.7831 29.894 59.3098 23.6762C59.0912 22.392 59.2268 21.074 59.7024 19.8585C60.1348 19.0582 60.8706 18.4568 61.7512 18.1841C62.0863 18.082 62.4389 18.0473 62.7879 18.0818C63.137 18.1163 63.4754 18.2194 63.7829 18.385C64.2776 18.6972 64.6877 19.1223 64.9781 19.6241C66.3792 22.2023 67.1231 25.0748 67.1464 27.9962C67.6417 34.6403 67.6417 41.3111 67.1464 47.9552L68.0683 48.8427C70.5859 47.3082 72.82 45.3663 74.6756 43.0994C76.8988 40.2693 79.7552 37.9778 83.0244 36.4018C83.6329 36.1526 84.2857 36.0243 84.9451 36.0243C85.6045 36.0243 86.2574 36.1526 86.8659 36.4018C87.1862 36.5553 87.4684 36.7757 87.6926 37.0477C87.9167 37.3196 88.0774 37.6363 88.1634 37.9757C88.2496 38.5112 88.2147 39.0587 88.0613 39.5795C87.9079 40.1003 87.6397 40.5817 87.2756 40.9897C85.2589 43.6528 83.0569 46.176 80.6854 48.5413C77.3859 51.6752 74.5524 55.2488 72.2683 59.1571C69.4512 64.5822 68.8537 70.9785 68.7512 75.9013C68.7512 76.9059 68.7512 77.9106 68.7512 78.932C68.7512 80.9748 68.7512 83.1013 68.5293 85.1943C68.071 91.2385 66.618 97.1701 64.2268 102.759C63.1683 105.22 61.5805 108.151 58.5756 109.038C58.0206 109.193 57.4452 109.266 56.8683 109.256Z" fill="black" stroke="white" stroke-width="0.5"/>
<path d="M24.9756 55.6743H21.561L19.8537 57.3487L20.7073 58.1859L23.2683 61.5348L33.5122 66.558L37.7805 58.1859L32.6585 56.5115L24.9756 55.6743Z" fill="white"/>
<path d="M46.3171 85.0771C46.1368 85.0773 45.9613 85.0203 45.8167 84.9147C45.6721 84.8091 45.5662 84.6605 45.5146 84.4911C44.1676 80.2949 41.9742 76.4072 39.0647 73.059C36.1552 69.7108 32.589 66.9704 28.5781 65.0008L26.8707 64.2139C24.2683 63.2696 21.9288 61.7381 20.0415 59.7432C19.6988 59.3946 19.4302 58.9827 19.2514 58.5314C19.0726 58.08 18.9872 57.5983 19 57.1143C19.222 54.8371 21.9025 54.0334 24.4634 54.2511C31.653 54.851 38.7034 56.5457 45.361 59.2743C45.5655 59.3626 45.7266 59.5261 45.8096 59.7296C45.8926 59.9331 45.8909 60.1604 45.8049 60.3627C45.7637 60.4649 45.7021 60.5581 45.6235 60.6365C45.545 60.7149 45.4511 60.777 45.3476 60.8192C45.2441 60.8614 45.133 60.8827 45.0209 60.882C44.9088 60.8812 44.798 60.8584 44.6951 60.8148C38.2048 58.1662 31.3326 56.5279 24.3268 55.959C22.9268 55.8418 20.8098 56.1097 20.7073 57.2985C20.7273 57.8439 20.9523 58.3628 21.339 58.7552C23.0658 60.5205 25.1876 61.8676 27.5366 62.6901C28.1342 62.958 28.7317 63.2259 29.2439 63.5106C33.4781 65.5715 37.2451 68.4487 40.3194 71.9702C43.3938 75.4916 45.7124 79.585 47.1366 84.0055C47.2007 84.2164 47.1775 84.4436 47.072 84.6379C46.9666 84.8322 46.7874 84.978 46.5732 85.0436L46.3171 85.0771Z" fill="black" stroke="white" stroke-width="0.5"/>
</g>
<defs>
<clipPath id="clip0_3_678">
<rect width="70" height="72" fill="white" transform="translate(19 18)"/>
</clipPath>
</defs>
</svg>
