<svg width="108" height="108" viewBox="0 0 108 108" fill="none" xmlns="http://www.w3.org/2000/svg">
<g clip-path="url(#clip0_3_639)">
<path d="M55.563 74.2654C55.563 74.2654 39.3304 78.0851 33.2276 84.4171C29.7836 71.637 25.687 59.042 20.9543 46.683C23.0402 41.6339 27.4508 39.6707 31.6141 38.4384C37.6253 36.5942 45.1741 38.8013 45.1741 38.8013L55.563 74.2654Z" fill="white"/>
<path d="M33.3107 84.7272C33.2585 84.7432 33.2026 84.7425 33.1506 84.7252C33.0959 84.7121 33.0456 84.6841 33.0053 84.6442C32.9649 84.6044 32.936 84.5542 32.9217 84.4992C29.4863 71.7282 25.3898 59.1447 20.649 46.8008C20.6346 46.7608 20.6285 46.7184 20.6308 46.6761C20.6332 46.6338 20.6441 46.5924 20.6628 46.5546C22.812 41.3448 27.37 39.3692 31.5221 38.095C37.5648 36.2692 44.9003 38.4078 45.2489 38.485C45.3016 38.5012 45.3495 38.5307 45.3881 38.5706C45.4267 38.6105 45.4547 38.6596 45.4696 38.7133L55.9081 74.1641C55.9227 74.2068 55.9278 74.2522 55.923 74.297C55.9181 74.3418 55.9034 74.3848 55.88 74.423C55.859 74.4605 55.8302 74.4927 55.7955 74.5175C55.7608 74.5423 55.7211 74.5591 55.6792 74.5667C55.5138 74.611 39.4374 78.4516 33.4649 84.641C33.4224 84.6836 33.3691 84.7134 33.3107 84.7272V84.7272ZM21.3015 46.6888C25.961 58.8434 29.9959 71.2301 33.3899 83.799C39.3063 78.1276 52.8346 74.6014 55.186 74.0163L44.9296 39.0465C43.7907 38.7321 37.0987 37.0767 31.7356 38.6933C27.7489 39.9232 23.3759 41.7954 21.3015 46.6888Z" fill="black" stroke="black" stroke-width="0.2"/>
<path d="M55.563 74.2653C55.563 74.2653 71.4814 69.1738 80.0587 71.0514C75.856 58.2223 72.2989 45.1898 69.4011 32.0043C64.8788 28.9862 60.1103 29.779 55.9537 31.0364C49.9755 32.8718 44.9261 38.8677 44.9261 38.8677L55.563 74.2653Z" fill="white"/>
<path d="M80.1748 71.3528C80.1315 71.3759 80.0834 71.3888 80.0343 71.3905C71.6449 69.5523 55.8618 74.5537 55.7047 74.5958C55.6225 74.6247 55.5321 74.6199 55.4529 74.5824C55.3791 74.5358 55.3228 74.4654 55.2931 74.3827L44.6246 38.9666C44.6057 38.9151 44.6014 38.8595 44.6121 38.8058C44.6228 38.7522 44.648 38.7028 44.6851 38.663C44.892 38.41 49.8526 32.5457 55.8541 30.7311C60.0001 29.4675 64.8837 28.6079 69.5682 31.7352C69.6378 31.7838 69.6862 31.8578 69.7032 31.9415C72.6053 45.1143 76.1677 58.1335 80.3767 70.9485C80.3905 70.9907 80.3955 71.0352 80.3914 71.0794C80.3873 71.1235 80.3741 71.1662 80.3528 71.2048C80.3315 71.2435 80.3025 71.2771 80.2676 71.3038C80.2327 71.3304 80.1927 71.3493 80.15 71.3594L80.1748 71.3528ZM58.9659 72.9406C64.0101 71.589 73.402 69.4946 79.6135 70.6141C75.4844 58.0016 71.9811 45.192 69.1167 32.2333C64.6883 29.3338 60.0309 30.1776 56.054 31.378C50.7029 32.9734 46.0678 38.068 45.2852 38.9513L55.8062 73.8501C56.2956 73.692 57.4526 73.3461 58.9659 72.9406Z" fill="black" stroke="black" stroke-width="0.2"/>
<path d="M55.4803 74.2876C55.4803 74.2876 36.6046 76.0495 29.6637 82.66C26.1673 69.8667 21.949 57.2822 17.0295 44.9686C19.4958 39.8175 24.426 37.6434 29.0659 36.2384C35.78 34.2059 44.049 36.256 44.049 36.256L55.4803 74.2876Z" fill="white"/>
<path d="M29.749 82.9783C29.7011 83.0056 29.647 83.0201 29.5919 83.0204C29.5375 83.0064 29.4877 82.9781 29.4474 82.9384C29.4072 82.8987 29.3781 82.849 29.3629 82.7944C25.8692 69.9943 21.6493 57.404 16.7242 45.0863C16.7083 45.0439 16.701 44.9988 16.7026 44.9537C16.7042 44.9085 16.7147 44.8642 16.7336 44.8233C19.2812 39.4798 24.3903 37.3116 28.9723 35.9222C35.6947 33.8874 44.0313 35.8924 44.117 35.9144C44.171 35.9292 44.2204 35.9577 44.2605 35.9973C44.3006 36.0369 44.33 36.0862 44.346 36.1404L55.784 74.1971C55.7978 74.2441 55.8013 74.2935 55.7944 74.3419C55.7875 74.3903 55.7702 74.4365 55.7439 74.4773C55.7164 74.5162 55.6809 74.5485 55.6397 74.5719C55.5985 74.5953 55.5527 74.6094 55.5055 74.613C55.3318 74.6596 36.6643 76.4375 29.8783 82.8987C29.843 82.9364 29.7984 82.9638 29.749 82.9783V82.9783ZM17.3789 44.9827C22.2147 57.0989 26.3719 69.4772 29.8304 82.0584C36.5406 76.1743 52.2872 74.2451 55.0568 73.9969L43.7879 36.5055C42.5542 36.2344 35.167 34.7293 29.1573 36.5462C24.7075 37.9001 19.8331 39.9516 17.3789 44.9827Z" fill="black" stroke="black" stroke-width="0.2"/>
<path d="M55.563 74.2653C55.563 74.2653 72.2472 65.2507 81.6866 66.9063C77.5109 54.3156 74.058 41.4956 71.3454 28.5108C66.4443 25.5673 61.1676 26.5142 56.5276 27.9191C49.8135 29.9517 44.0655 36.2515 44.0655 36.2515L55.563 74.2653Z" fill="white"/>
<path d="M55.6461 74.5755C55.5785 74.5949 55.5064 74.5922 55.4402 74.5678C55.3962 74.5477 55.3567 74.5187 55.3242 74.4826C55.2917 74.4466 55.2668 74.4042 55.251 74.358L43.7513 36.3358C43.7355 36.2809 43.7341 36.2228 43.7472 36.1673C43.7603 36.1119 43.7875 36.0609 43.826 36.0194C43.8765 35.943 49.7139 29.6462 56.4363 27.6115C61.0514 26.2132 66.4658 25.1845 71.5847 28.2133C71.6231 28.2378 71.6561 28.2701 71.6816 28.3081C71.707 28.3461 71.7244 28.3891 71.7325 28.4341C74.4543 41.4019 77.9032 54.2072 82.0625 66.7878C82.0814 66.8404 82.0859 66.8972 82.0757 66.9521C82.0655 67.007 82.0408 67.0579 82.0043 67.0997C81.9646 67.1387 81.9157 67.1666 81.8621 67.181C81.8086 67.1953 81.7522 67.1956 81.6984 67.1817C72.4738 65.5673 55.9484 74.4137 55.7799 74.5127L55.6461 74.5755ZM44.4202 36.3182L55.7883 73.783C58.2442 72.4963 72.4004 65.3265 81.2482 66.4941C77.1729 54.0962 73.7924 41.4798 71.1228 28.7053C66.2658 25.8936 61.071 26.8815 56.6212 28.2354C50.6115 30.0523 45.2997 35.4 44.4202 36.3182Z" fill="black" stroke="black" stroke-width="0.2"/>
<path d="M53.8648 28.7315C56.1337 32.6677 57.2442 36.8783 58.4973 41.2573C57.133 40.0096 55.5997 38.9657 53.9444 38.1576C53.7815 39.9974 53.5059 41.8134 53.2265 43.6485C53.025 43.7564 52.8253 43.5404 52.7218 43.3526C50.6339 39.5296 49.5678 35.8818 47.6077 32.0066C48.5995 30.9002 49.8394 30.0507 51.2246 29.5288C51.8697 29.2571 53.0744 28.5931 53.8648 28.7315Z" fill="#ACD4F7"/>
<path d="M53.2539 43.9825C53.1553 44.0088 53.0515 44.0088 52.9526 43.9824C52.7294 43.8939 52.5457 43.7258 52.436 43.5101C51.3845 41.5078 50.4449 39.4479 49.6218 37.3403C48.9315 35.6573 48.2173 33.9179 47.3445 32.1491C47.3116 32.0896 47.2988 32.0209 47.3079 31.9536C47.3171 31.8863 47.3478 31.8241 47.3953 31.7763C48.4193 30.6287 49.7048 29.7511 51.1415 29.2188L51.4708 29.0588C52.2247 28.6213 53.08 28.3921 53.9516 28.394C53.9979 28.4042 54.0416 28.4242 54.0797 28.4527C54.1179 28.4812 54.1498 28.5175 54.1731 28.5592C56.3108 32.2701 57.4171 36.1675 58.5924 40.289L58.8169 41.1269C58.8368 41.1946 58.8348 41.2669 58.811 41.3331C58.7873 41.3993 58.7431 41.4558 58.685 41.4945C58.6239 41.5294 58.5536 41.5444 58.4836 41.5375C58.4135 41.5305 58.3472 41.502 58.2935 41.4557C57.0678 40.3361 55.7038 39.3822 54.2362 38.6184C54.0682 40.3068 53.807 42.0112 53.5571 43.6588C53.5501 43.7081 53.5324 43.7552 53.5052 43.7966C53.478 43.8381 53.442 43.8729 53.3998 43.8985L53.2539 43.9825ZM48.0059 32.0706C48.8547 33.783 49.545 35.466 50.2361 37.0859C51.0459 39.1548 51.9694 41.177 53.0023 43.1429C53.25 41.487 53.5029 39.7848 53.6506 38.1197C53.6546 38.0673 53.6717 38.0169 53.7003 37.9731C53.7289 37.9294 53.7679 37.8937 53.8139 37.8694C53.8561 37.8409 53.9052 37.8246 53.956 37.822C54.0068 37.8195 54.0574 37.8309 54.1025 37.8549C55.4617 38.5176 56.7405 39.3383 57.913 40.3004C56.7887 36.3359 55.71 32.5748 53.6961 29.0283C53.0179 29.1098 52.3615 29.3192 51.761 29.6456L51.3445 29.811C50.0734 30.2943 48.9312 31.0674 48.0059 32.0706V32.0706Z" fill="black" stroke="black" stroke-width="0.2"/>
<path d="M23.3681 48.0837C23.3554 48.0937 23.3408 48.1011 23.3251 48.1053C23.3095 48.1095 23.2932 48.1104 23.2771 48.108C23.2549 48.0928 23.2389 48.07 23.2319 48.0438C23.2249 48.0177 23.2274 47.9899 23.2389 47.9656C25.6285 45.8031 28.5314 44.3017 31.6692 43.6053C34.7773 42.914 37.939 42.4873 41.121 42.33C41.1497 42.3287 41.1779 42.3388 41.1996 42.3582C41.2213 42.3775 41.2348 42.4045 41.2373 42.4335C41.2387 42.4626 41.2289 42.491 41.21 42.5129C41.191 42.5347 41.1644 42.5482 41.1357 42.5505C37.9673 42.7004 34.8191 43.1233 31.7253 43.8148C28.6375 44.4898 25.7773 45.9549 23.4177 48.0704L23.3681 48.0837Z" fill="black"/>
<path d="M25.9039 55.1993C25.8827 55.205 25.8603 55.2042 25.8394 55.197C25.8186 55.1898 25.8002 55.1766 25.7868 55.1589C25.7778 55.1471 25.7712 55.1337 25.7673 55.1194C25.7635 55.1051 25.7624 55.0902 25.7642 55.0756C25.7661 55.0609 25.7707 55.0468 25.778 55.034C25.7852 55.0212 25.7949 55.0099 25.8065 55.0009C30.8188 51.314 37.2791 50.4181 42.981 49.6357C42.9943 49.6333 43.008 49.6335 43.0213 49.6364C43.0346 49.6394 43.0471 49.6449 43.0583 49.6528C43.0695 49.6607 43.079 49.6707 43.0864 49.6822C43.0937 49.6938 43.0987 49.7067 43.1012 49.7203C43.104 49.7345 43.1038 49.7492 43.1006 49.7634C43.0974 49.7776 43.0914 49.7909 43.0828 49.8025C43.0742 49.8141 43.0633 49.8237 43.0508 49.8308C43.0383 49.8378 43.0244 49.8422 43.0101 49.8434C37.3352 50.6276 30.8997 51.5168 25.9348 55.1821L25.9039 55.1993Z" fill="black"/>
<path d="M28.4265 62.7943C28.4074 62.7996 28.3872 62.7991 28.3683 62.793C28.3493 62.787 28.3325 62.7755 28.3198 62.76C28.3096 62.7494 28.3017 62.7367 28.2967 62.7228C28.2917 62.7088 28.2896 62.694 28.2907 62.6793C28.2918 62.6646 28.296 62.6502 28.303 62.6373C28.31 62.6244 28.3196 62.6131 28.3313 62.6043C30.176 61.027 32.2871 59.7983 34.5647 58.9763C35.7423 58.5698 36.947 58.247 38.1701 58.0102C40.4367 57.5232 42.7503 57.2856 45.0706 57.3018C45.1001 57.3022 45.1283 57.3145 45.149 57.3359C45.1696 57.3573 45.1811 57.3861 45.181 57.4159C45.1786 57.4446 45.1654 57.4712 45.1441 57.4903C45.1229 57.5094 45.0951 57.5194 45.0666 57.5184C42.7608 57.5005 40.4615 57.7372 38.2097 58.2241C36.9949 58.4586 35.7984 58.7792 34.6291 59.1835C32.3881 59.9963 30.3118 61.2097 28.4987 62.766L28.4265 62.7943Z" fill="black"/>
<path d="M30.5958 70.3943C30.5777 70.3984 30.5588 70.3983 30.5407 70.3938C30.5226 70.3893 30.5057 70.3806 30.4914 70.3684C30.4692 70.3531 30.4532 70.3303 30.4462 70.3041C30.4392 70.278 30.4417 70.2502 30.4532 70.2259C34.3443 66.4892 40.4029 64.6233 47.53 64.9587C47.5465 64.9559 47.5635 64.9568 47.5797 64.9615C47.5959 64.9663 47.6108 64.9746 47.6234 64.986C47.636 64.9974 47.6459 65.0114 47.6524 65.0272C47.6588 65.0429 47.6617 65.0599 47.6607 65.0769C47.6598 65.0939 47.655 65.1104 47.6469 65.1252C47.6387 65.14 47.6273 65.1527 47.6135 65.1624C47.5998 65.1721 47.584 65.1785 47.5674 65.1811C47.5508 65.1837 47.5338 65.1825 47.5177 65.1775C40.4696 64.8389 34.4621 66.6642 30.5958 70.3943Z" fill="black"/>
<path d="M52.8167 47.1797C52.7987 47.18 52.7809 47.1758 52.7648 47.1676C52.7488 47.1594 52.7348 47.1474 52.7243 47.1327C52.7106 47.1088 52.7054 47.081 52.7094 47.0538C52.7133 47.0266 52.7264 47.0017 52.7462 46.9831C57.7486 43.3875 63.7652 41.5079 69.9208 41.6178C69.9343 41.6183 69.9476 41.6215 69.96 41.6272C69.9723 41.6329 69.9835 41.641 69.9927 41.651C70.002 41.661 70.0092 41.6728 70.014 41.6856C70.0188 41.6985 70.0211 41.7121 70.0206 41.7258C70.0203 41.7556 70.0084 41.784 69.9874 41.8048C69.9664 41.8256 69.938 41.837 69.9085 41.8367C63.7939 41.7253 57.8168 43.5912 52.8475 47.1625L52.8167 47.1797Z" fill="black"/>
<path d="M55.3056 54.6493C55.2866 54.6558 55.266 54.656 55.2468 54.6498C55.2276 54.6436 55.2108 54.6314 55.1989 54.615C55.1886 54.6044 55.1808 54.5917 55.1757 54.5777C55.1707 54.5638 55.1687 54.549 55.1698 54.5343C55.1708 54.5195 55.175 54.5052 55.182 54.4923C55.189 54.4793 55.1987 54.4681 55.2103 54.4593C57.0568 52.8846 59.1675 51.6561 61.4438 50.8313C62.6214 50.4248 63.8261 50.102 65.0492 49.8652C67.3169 49.3814 69.6312 49.1467 71.9519 49.1651C71.9659 49.1645 71.98 49.1668 71.9931 49.1718C72.0063 49.1769 72.0183 49.1846 72.0284 49.1945C72.0386 49.2044 72.0466 49.2163 72.052 49.2294C72.0574 49.2426 72.0602 49.2567 72.06 49.2709C72.0597 49.3007 72.0478 49.3291 72.0268 49.3499C72.0058 49.3707 71.9774 49.3821 71.9479 49.3817C69.6276 49.3667 67.3142 49.6042 65.0474 50.0902C63.8354 50.324 62.6417 50.6439 61.4751 51.0474C59.2217 51.8656 57.1321 53.0823 55.3033 54.6409L55.3056 54.6493Z" fill="black"/>
<path d="M57.4943 62.3877C57.4764 62.3946 57.4568 62.3959 57.4382 62.3913C57.4195 62.3866 57.4026 62.3764 57.3898 62.3618C57.3711 62.3404 57.361 62.3127 57.3616 62.2842C57.3622 62.2557 57.3734 62.2286 57.393 62.2083C61.2758 58.4738 67.3405 56.5973 74.4615 56.9433C74.475 56.9438 74.4883 56.947 74.5007 56.9527C74.513 56.9584 74.5241 56.9665 74.5334 56.9765C74.5427 56.9865 74.5499 56.9983 74.5547 57.0111C74.5595 57.024 74.5617 57.0376 74.5613 57.0513C74.562 57.0655 74.5599 57.0796 74.555 57.0929C74.5501 57.1062 74.5425 57.1183 74.5328 57.1285C74.5231 57.1387 74.5114 57.1467 74.4984 57.1521C74.4854 57.1575 74.4715 57.1602 74.4575 57.1599C67.3906 56.8174 61.3816 58.6699 57.5416 62.366L57.4943 62.3877Z" fill="black"/>
<path d="M67.7523 34.5834C65.1109 34.1762 62.4155 34.4238 59.8981 35.305C59.8847 35.3098 59.8705 35.3118 59.8562 35.3107C59.842 35.3097 59.8281 35.3056 59.8155 35.2989C59.8028 35.2921 59.7917 35.2828 59.7828 35.2715C59.7739 35.2602 59.7674 35.2472 59.7637 35.2332C59.7576 35.2204 59.7544 35.2065 59.7544 35.1924C59.7543 35.1783 59.7573 35.1643 59.7632 35.1516C59.7691 35.1388 59.7778 35.1275 59.7886 35.1186C59.7993 35.1097 59.8119 35.1033 59.8255 35.0999C62.366 34.2182 65.0846 33.9768 67.7465 34.3964C67.761 34.3984 67.775 34.4033 67.7877 34.4107C67.8004 34.4182 67.8115 34.4281 67.8204 34.4399C67.8293 34.4517 67.8359 34.4651 67.8397 34.4794C67.8435 34.4937 67.8445 34.5087 67.8426 34.5233C67.8333 34.5398 67.8203 34.5539 67.8046 34.5643C67.7889 34.5748 67.771 34.5813 67.7523 34.5834V34.5834Z" fill="black"/>
<path d="M20.1592 47.9826C20.1343 47.9893 20.1077 47.9863 20.0847 47.9742C20.0617 47.962 20.0441 47.9416 20.0353 47.917L18.7516 44.6149C18.7456 44.6016 18.7423 44.5873 18.7421 44.5727C18.7418 44.5582 18.7446 44.5438 18.7502 44.5304C18.7558 44.5171 18.7641 44.5051 18.7746 44.4952C18.7851 44.4854 18.7976 44.4779 18.8112 44.4732C18.8239 44.4685 18.8374 44.4665 18.851 44.4672C18.8645 44.4678 18.8778 44.4712 18.8901 44.4771C18.9024 44.483 18.9134 44.4913 18.9226 44.5015C18.9317 44.5117 18.9388 44.5236 18.9434 44.5365L20.2518 47.832C20.2579 47.8452 20.2611 47.8596 20.2614 47.8741C20.2616 47.8887 20.2588 47.9031 20.2532 47.9164C20.2476 47.9298 20.2393 47.9418 20.2288 47.9516C20.2183 47.9615 20.2058 47.969 20.1923 47.9737L20.1592 47.9826Z" fill="black"/>
<path d="M20.4294 44.9556C20.4036 44.9629 20.3761 44.9604 20.3518 44.9488C20.3275 44.9372 20.3081 44.9171 20.2972 44.8922L19.6133 42.9022C19.6104 42.8818 19.6127 42.861 19.6199 42.8418C19.6272 42.8225 19.6392 42.8055 19.6548 42.7923C19.6819 42.785 19.7108 42.7883 19.7357 42.8016C19.7607 42.8149 19.7798 42.8372 19.7892 42.8641L20.4731 44.8541C20.4778 44.867 20.4799 44.8807 20.4793 44.8944C20.4787 44.9081 20.4755 44.9215 20.4697 44.9339C20.464 44.9463 20.4559 44.9574 20.4458 44.9666C20.4358 44.9758 20.4241 44.9828 20.4113 44.9874L20.4294 44.9556Z" fill="black"/>
<path d="M79.2417 65.092C79.2169 65.0969 79.1911 65.0931 79.1685 65.0812C79.146 65.0692 79.1281 65.0499 79.1178 65.0264C78.6441 63.9661 78.2982 62.8527 78.0875 61.7103C78.0837 61.6964 78.0828 61.6818 78.0849 61.6676C78.0869 61.6533 78.0919 61.6397 78.0995 61.6275C78.1071 61.6153 78.1171 61.6049 78.1289 61.5969C78.1407 61.5889 78.154 61.5835 78.168 61.5809C78.1969 61.5776 78.226 61.5849 78.25 61.6016C78.2741 61.6183 78.2914 61.6432 78.2987 61.6717C78.509 62.7933 78.8496 63.8867 79.3133 64.9291C79.3236 64.957 79.3235 64.9877 79.313 65.0153C79.3024 65.043 79.2821 65.0657 79.256 65.0792L79.2417 65.092Z" fill="black"/>
<path d="M77.6064 65.1079C77.5823 65.1143 77.5566 65.1108 77.5349 65.0981C77.5132 65.0854 77.4973 65.0645 77.4908 65.0401L77.0041 63.4552C76.998 63.4425 76.9948 63.4285 76.9948 63.4144C76.9947 63.4003 76.9977 63.3863 77.0036 63.3736C77.0095 63.3608 77.0182 63.3496 77.0289 63.3406C77.0397 63.3317 77.0523 63.3253 77.0658 63.3219C77.0925 63.3141 77.1211 63.3159 77.1467 63.3271C77.1724 63.3382 77.1934 63.358 77.2063 63.3831C77.462 63.906 77.6332 64.4666 77.7132 65.0433C77.703 65.063 77.6877 65.0794 77.6689 65.0908C77.65 65.1022 77.6284 65.1081 77.6064 65.1079V65.1079Z" fill="black"/>
</g>
<g clip-path="url(#clip1_3_639)">
<path d="M64.6341 63.0294L62.8781 63.4706L63.3171 74.5H71.2195L77.8049 78.9117L85.2683 81.1176V52.8823H84.8293L79.561 55.0882L72.9756 60.3823L70.3415 62.5882H68.5854L64.6341 63.0294Z" fill="white" stroke="black"/>
<path d="M85.4393 82H85.3152C80.1437 80.8992 75.2786 78.6464 71.0724 75.4048C68.7009 75.5166 66.3018 75.4048 63.9717 75.4048C63.6912 75.4105 63.4145 75.338 63.172 75.1952C62.9898 75.0521 62.8437 74.8673 62.7454 74.6561C62.6472 74.4448 62.5996 74.213 62.6067 73.9795L62 64.8691C61.9366 64.3967 61.9936 63.9157 62.1655 63.4718C62.4095 63.0861 62.7434 62.7671 63.1377 62.543C63.532 62.3188 63.9746 62.1963 64.4267 62.1863C66.3655 61.9427 68.3195 61.8446 70.2727 61.8929C75.3466 56.6949 78.8901 53.3973 85.3014 52C85.4 51.9811 85.5015 51.9837 85.599 52.0078C85.6965 52.0319 85.7878 52.0769 85.8667 52.1397C85.9468 52.2019 86.011 52.2825 86.0542 52.3748C86.0973 52.4672 86.1182 52.5686 86.1149 52.6707V81.3014C86.115 81.403 86.0928 81.5034 86.0499 81.5952C86.0069 81.687 85.9444 81.768 85.8667 81.8323C85.7462 81.9341 85.596 81.993 85.4393 82ZM71.293 74.0075C71.4411 74.0136 71.5845 74.062 71.7066 74.1472C75.5506 77.156 79.9756 79.3125 84.6948 80.477L84.7637 53.551C79.1521 54.9483 75.9533 58.0224 70.9759 63.0806C70.91 63.1488 70.8302 63.2017 70.7421 63.2354C70.654 63.2692 70.5597 63.2831 70.4657 63.2762C68.5117 63.2267 66.5569 63.3341 64.6197 63.5976C64.3577 63.5976 63.5718 63.7234 63.4064 64.1006C63.3618 64.3266 63.3618 64.5593 63.4064 64.7853L63.9992 73.9097C64.0176 74.0493 63.9717 74.0354 63.9992 74.0354C66.3845 74.0354 68.8525 74.1472 71.2516 74.0354L71.293 74.0075Z" fill="black" stroke="white" stroke-width="0.5"/>
<path d="M91.2026 71.2407C91.1187 71.2425 91.0352 71.2273 90.9571 71.1961C90.879 71.1649 90.8078 71.1184 90.7476 71.0591C90.6213 70.9285 90.5505 70.7529 90.5505 70.57C90.5505 70.3871 90.6213 70.2116 90.7476 70.081C91.4764 69.2026 91.8679 68.0872 91.8502 66.9397C91.8325 65.7923 91.4067 64.6898 90.6511 63.835C90.5248 63.7044 90.454 63.5288 90.454 63.346C90.454 63.1631 90.5248 62.9875 90.6511 62.8569C90.7776 62.7298 90.9486 62.6584 91.1268 62.6584C91.3049 62.6584 91.4759 62.7298 91.6024 62.8569C92.6024 63.9618 93.1674 65.4001 93.1903 66.8991C93.2131 68.3982 92.6923 69.8536 91.7265 70.9892C91.6613 71.0658 91.581 71.1277 91.4908 71.171C91.4005 71.2143 91.3024 71.2381 91.2026 71.2407V71.2407Z" fill="black" stroke="white" stroke-width="0.5"/>
<path d="M93.5465 75.5865C93.45 75.5845 93.3548 75.5624 93.2671 75.5215C93.1793 75.4807 93.1008 75.4219 93.0364 75.3489C92.9101 75.2183 92.8393 75.0428 92.8393 74.8599C92.8393 74.677 92.9101 74.5014 93.0364 74.3708C94.0745 73.4697 94.9215 72.3644 95.5261 71.122C96.1306 69.8796 96.4802 68.5258 96.5537 67.1426C96.6272 65.7593 96.423 64.3753 95.9535 63.0743C95.484 61.7733 94.759 60.5823 93.8223 59.5734C93.7522 59.5103 93.6959 59.4332 93.6569 59.3468C93.6178 59.2605 93.5969 59.1668 93.5955 59.0719C93.5941 58.9769 93.6122 58.8827 93.6487 58.7952C93.6852 58.7077 93.7392 58.6289 93.8074 58.5637C93.8755 58.4985 93.9563 58.4484 94.0446 58.4165C94.1329 58.3847 94.2268 58.3719 94.3203 58.3788C94.4138 58.3857 94.5048 58.4122 94.5876 58.4567C94.6704 58.5012 94.7431 58.5627 94.8012 58.6372C95.8579 59.7851 96.6779 61.1353 97.2129 62.6085C97.748 64.0817 97.9875 65.6484 97.9173 67.2167C97.8235 68.7848 97.4215 70.3182 96.7348 71.7267C96.0482 73.1352 95.0908 74.3905 93.9188 75.4188C93.8157 75.5138 93.6852 75.5726 93.5465 75.5865V75.5865Z" fill="black" stroke="white" stroke-width="0.5"/>
<path d="M70.7691 72.8338C70.7105 72.8338 70.6544 72.8102 70.6131 72.7683C70.5717 72.7264 70.5484 72.6695 70.5484 72.6102L70.2727 64.1426C70.2726 64.0819 70.2954 64.0235 70.3364 63.9794C70.3774 63.9352 70.4336 63.9086 70.4933 63.905C70.5518 63.905 70.6079 63.9286 70.6493 63.9705C70.6907 64.0124 70.7139 64.0693 70.7139 64.1286L71.0034 72.5962C71.0035 72.6569 70.9808 72.7153 70.9397 72.7594C70.8987 72.8036 70.8426 72.8302 70.7828 72.8338H70.7691Z" fill="black"/>
<path d="M68.5492 68.8794C68.4915 68.8798 68.4357 68.8586 68.3925 68.8199C68.3493 68.7813 68.3216 68.7278 68.3148 68.6698L68.0528 64.394C68.0489 64.3332 68.0682 64.2732 68.1067 64.2264C68.1452 64.1796 68.1999 64.1496 68.2597 64.1425C68.2905 64.1406 68.3213 64.1449 68.3505 64.1551C68.3796 64.1654 68.4065 64.1813 68.4296 64.2021C68.4526 64.2229 68.4714 64.248 68.4848 64.2762C68.4983 64.3043 68.5061 64.3349 68.5078 64.3661L68.7698 68.6418C68.7717 68.6712 68.7678 68.7007 68.7584 68.7285C68.749 68.7564 68.7343 68.7821 68.7151 68.8041C68.6959 68.8262 68.6725 68.8442 68.6464 68.8571C68.6203 68.87 68.592 68.8776 68.563 68.8794H68.5492Z" fill="black"/>
<g opacity="0.13">
<path d="M85.4393 78.6184C84.9429 78.1014 84.1708 78.1713 83.5366 77.9198C82.8472 77.6124 82.1578 77.2491 81.5098 76.8858C80.434 76.51 79.3916 76.0425 78.3937 75.4885C76.5186 74.3427 74.5469 73.3366 72.7131 72.121C71.7796 71.5199 70.6629 71.2816 69.5695 71.4503C68.5354 71.4503 67.5151 71.576 66.481 71.604C65.7671 71.5354 65.0471 71.573 64.3439 71.7158C64.0325 71.8532 63.7767 72.0944 63.6192 72.3994C63.4616 72.7044 63.4117 73.0549 63.4777 73.3926C63.5437 73.7303 63.3975 74.1598 63.6579 74.3809C63.9183 74.602 64.5696 74.6014 64.9092 74.6082C70.5071 74.6082 69.8158 74.1428 72.9337 75.8937C74.5156 77.1154 76.2436 78.1295 78.0766 78.9119C79.6 79.7589 81.2086 80.4381 82.8748 80.9379C83.6331 81.1056 84.4604 81.4969 85.1773 81.0637C85.3846 80.9462 85.5612 80.7801 85.6923 80.5793C85.8233 80.3785 85.9051 80.1489 85.9308 79.9096C85.9564 79.6702 85.9252 79.4281 85.8397 79.2035C85.7542 78.9789 85.6169 78.7783 85.4393 78.6184Z" fill="black"/>
</g>
</g>
<defs>
<clipPath id="clip0_3_639">
<rect width="57.4524" height="49.2449" fill="white" transform="translate(15 38.6514) rotate(-15)"/>
</clipPath>
<clipPath id="clip1_3_639">
<rect width="36" height="30" fill="white" transform="translate(62 52)"/>
</clipPath>
</defs>
</svg>
